<svg width="500" height="500" viewBox="0 0 500 500" fill="none" xmlns="http://www.w3.org/2000/svg">
<circle cx="250" cy="250" r="250" fill="#1592ED"/>
<path d="M225.075 171.351L226.108 170.179L230.793 163.563L231.413 163.357L232.239 163.219L233.342 163.632L233.962 164.184L234.651 164.459L235.684 164.046L236.029 163.494L236.855 161.22L236.992 160.53L236.579 159.635L235.821 159.083L235.062 158.669L234.51 158.049L234.303 157.291L234.234 155.706L233.752 155.017L231.478 152.742L218.044 136.134L216.049 133.034L215.705 131.38L216.808 128.83L216.67 127.59L216.325 126.831L216.05 125.177L215.981 124.35L215.706 123.592L214.81 122.214L214.466 121.387V119.595L215.155 117.872L216.258 116.356L217.566 115.185L220.873 113.048L222.321 111.877L225.146 108.5L226.179 107.88L230.038 106.777H230.589L230.864 106.432L231.002 105.33L231.277 104.365L231.828 103.951L233.482 103.4L233.963 102.918L234.652 101.677L235.134 101.333L236.03 101.057L236.789 100.712L240.922 97.1978L242.231 95.7498L243.334 94.3715L244.297 93.4756L245.813 92.7865L247.398 92.4419L248.706 92.5797L249.67 93.6824L249.739 94.7857L250.084 95.4053L251.876 94.7857L253.461 93.9587L253.806 93.3385L253.668 92.3047L253.598 90.3751L254.012 88.9279L255.39 86.4462L255.804 85.2058L255.252 82.7937L251.188 78.7284L250.085 76.5231L250.568 73.5597L253.048 68.2532L252.634 65.9101L253.461 64.325L256.424 62.74L257.113 61.913L257.664 60.0523L258.767 59.7077L260.351 59.9144H261.937L262.9 58.9503L263.245 57.1578V53.9188L263.104 53.0918L262.829 52.3337L262.692 51.5074L263.106 50.7487L264.346 49.44L264.828 48.7508L265.103 47.786L266.206 46.4077L267.446 43.3065L268.342 41.7904L269.513 38.827L271.029 38L272.82 39.1716L274.612 41.7904L276.609 42.8937L278.883 41.5154L281.295 40.412L283.706 42.4106L287.013 51.5764L289.149 54.1951L291.767 54.8843L296.934 52.6101L300.035 53.9195L303.962 58.8125L306.787 60.3975L307.958 61.4313L308.027 62.8792L307.269 65.2912L307.817 66.1858L311.124 66.6682L312.572 67.4262L318.358 72.526L319.047 73.9732L319.117 75.6272L318.703 83.4146L318.358 85.2064L317.394 87.1361L317.945 88.1009L320.839 89.617L322.217 90.8575L323.181 92.3047V93.6142L321.528 94.3722L320.15 95.337L320.564 96.8532L321.942 98.4382L324.767 100.161L325.112 100.988L324.974 102.091L324.904 103.814L325.249 104.641L325.801 105.054L326.007 105.606L325.249 107.674L325.456 108.432L328.212 112.567L329.59 115.323L331.312 122.077L332.897 125.04L335.722 126.212L338.615 125.385L340.269 123.317L341.027 120.63L341.441 117.804L341.371 114.566L341.647 112.912L342.473 112.223L343.437 112.498L347.778 114.566L349.225 115.737L351.705 114.634L353.497 115.806L355.22 119.182L356.323 120.216L358.527 120.147L359.491 119.664L360.317 119.045L361.076 118.562L362.04 118.493L362.798 118.907L363.557 119.734L364.315 120.698L364.729 121.457L364.866 123.317L364.04 126.763L363.765 130.346L364.317 138.065L364.523 138.961L365.074 139.167H365.694L366.176 139.582L367.072 142.338L366.797 145.233L364.799 151.021L364.248 153.571L364.111 156.327L365.007 162.047L365.696 163.563L366.66 164.046L367.763 164.459L369.003 165.631L369.555 167.354L369.003 168.939L368.107 170.387L367.488 172.04L369.347 179.69L369.417 180.448L369.142 181.344L367.971 182.654L367.626 183.618L367.901 185.272L369.899 188.097L370.588 189.682L370.518 191.475L369.278 194.714L369.071 196.506L370.241 199.331L370.311 200.02V200.779V201.537L370.586 202.364L371 204.157L370.449 205.81L368.726 208.704L368.175 211.668L367.83 222.97L367.555 224.623L367.004 226.209L366.246 227.724L362.939 231.378L362.25 233.238L361.836 234.892L361.629 236.339L362.11 237.166L363.763 236.891L364.522 237.649L366.519 241.853L366.864 243.231L366.45 244.058L365.761 244.541L365.279 245.092V246.884L364.797 247.574L361.834 249.916L360.663 250.054L360.181 249.02L360.251 245.919L359.769 245.781L358.321 246.263L355.084 247.021L354.05 247.986L353.636 249.296L353.773 250.811L354.325 252.259L355.91 255.36L356.254 256.945L356.117 258.875L356.668 259.978L357.564 260.115L358.529 259.978L359.492 260.253L360.251 261.08L362.937 264.94L363.696 266.662L364.109 266.938L365.143 267.352L365.557 267.834L365.763 268.937L365.626 270.108L365.144 271.212L364.593 272.039L360.321 275.277L358.943 275.759L358.179 275.689L357.422 275.275L355.01 274.379L353.15 272.863L352.117 272.449L350.669 272.518L349.705 273.138L347.776 275.275L346.673 276.24L345.984 277.756L344.881 280.719L344.262 281.339L343.643 281.822L343.16 282.374L342.954 283.408V284.511L342.678 285.2L339.578 288.921L339.096 289.954L338.063 293.814L337.236 295.123L336.065 296.019L334.343 296.846L332.483 297.466L331.449 297.328L328.969 294.985L327.728 294.366L320.976 292.023L320.15 292.16L320.012 293.264L320.082 297.468L319.668 298.846L318.703 299.949L317.188 301.257L316.774 301.877V302.429L317.188 304.703L317.532 305.462L317.808 306.358L317.67 309.666L317.808 310.837L317.532 311.526L315.947 311.802L314.776 312.629L313.674 314.49L312.226 318.211L311.331 319.106L307.886 320.759L306.578 321.655L302.789 326.272L301.135 327.237L299.343 327.444L298.517 326.755L297.965 325.514L297.001 324.066L293.971 322.55L292.11 324.618L290.113 331.509L288.254 335.437L286.876 337.435L285.567 338.399L284.052 338.882L283.707 339.641L284.189 342.742L284.048 348.739L284.462 351.565L285.703 354.184L288.803 356.527L289.767 357.905L289.147 359.628L287.769 360.317L285.977 360.387L282.602 359.767L280.742 360.042L278.95 361.213L275.781 363.833L270.201 367.416L269.926 369.276L270.407 380.233L268.34 392.018L268.271 394.016L268.823 394.705L275.505 393.741H277.503L278.743 393.948L279.363 394.568L279.777 395.395L280.052 396.359L280.19 397.186L280.672 398.219L282.187 399.323L282.806 400.149L282.876 402.01L281.636 402.491L279.913 402.699L278.605 403.595L279.156 405.87L285.287 408.007L285.701 411.108L285.287 411.797L284.668 412.279L284.117 412.831L283.91 413.795L284.117 414.829L285.288 416.344L285.632 417.241L285.426 419.308L284.392 421.238L268.546 437.088L269.924 438.742L273.231 440.12L276.262 442.257L276.744 442.946L277.089 443.773L277.503 445.427L278.536 443.979L279.432 443.496L279.639 445.012L278.881 446.597L278.398 447.218L276.951 447.976L274.402 448.941L265.997 450.456L264.894 450.801L260.623 453.833L258.763 454.04L257.73 453.902L257.385 453.833H257.11L256.352 454.315L254.285 456.382L253.527 456.037H253.252L252.77 456.107L252.289 456.521L252.014 456.866L251.806 457.21L251.737 457.485L251.462 457.692L251.117 457.83L249.809 457.485H249.325L248.017 457.692L247.397 457.9L246.846 458.107L246.226 458.659L245.192 459.625L244.917 459.831L244.642 459.969L244.227 460.038L243.608 460.107L241.127 460.038L240.231 460.245L233.961 462.932L230.999 462.862L229.345 463L228.656 462.93L227.554 462.793L227.002 462.586L226.727 462.311L226.452 461.897L226.177 461.001L226.108 460.45L226.245 458.521L226.176 458.176L225.417 457.487L222.524 456.591L218.666 455.832L217.288 455.902L216.254 456.315H215.84L208.055 453.834L207.985 453.765L207.572 453.213L207.434 452.661L207.503 452.247L207.71 451.903L208.262 451.558L215.151 449.008L216.185 448.319L217.08 447.493L218.044 445.839L219.008 443.152V440.396L218.664 438.397L217.975 436.468L217.561 434.4L217.009 433.436L216.458 433.022H215.842L214.946 433.366L214.12 434.055L213.638 434.745L213.018 435.089L212.122 435.16L211.158 434.815L209.643 433.988L203.579 429.715L201.788 427.579L201.03 426.063L200.754 421.928L198.895 419.791L197.173 416.483L195.864 415.449L194.486 414.001L193.66 412.416L193.385 410.417L193.454 401.252L193.729 400.425L194.418 399.529L196.76 397.668L197.518 395.876L194.693 394.222L193.729 393.947L192.143 393.672L190.42 393.258L178.364 388.642L175.815 388.504L171.474 389.675L166.307 390.434L165.411 390.779L164.86 391.26L164.24 391.88L163.482 392.362L162.656 392.293L161.829 391.397L161.209 390.5L160.451 389.675L157.076 386.919L154.802 384.507L154.458 383.955L151.84 376.788L149.98 375.892L142.263 374.169L140.816 373.617L139.782 373.066L138.887 372.239L138.06 370.446L133.789 357.215L130 348.326L131.792 347.223L134.754 346.051L137.51 345.292L140.68 344.328L142.196 343.502L143.091 342.813L143.78 342.054L144.263 341.227L144.607 340.676L145.02 340.401L145.435 340.47L145.779 340.815L145.986 341.228L146.055 341.78L145.918 342.47L145.299 344.537L144.885 345.433L144.402 346.742L144.333 347.706L144.54 348.464L145.022 348.947L145.711 349.085L146.469 349.015L147.366 348.601L147.917 348.049L148.399 347.567L148.881 346.533L149.57 342.95L149.639 341.365L149.295 338.539L148.261 336.057L146.469 333.025L142.266 327.926L141.37 324.343L140.199 308.078L140.613 300.497L141.51 297.051L142.405 296.018L143.025 295.881L143.576 296.087L144.402 296.776L145.022 297.396L145.504 298.085L146.123 298.637L146.812 298.912H147.639L148.259 298.498L148.741 297.878L149.43 296.983L150.532 295.673L155.355 292.09L157.008 290.437L157.972 288.714L158.247 286.991L157.351 284.372L152.942 279.273L152.253 277.825L151.289 273.897L149.705 270.589L149.635 269.487L149.842 268.108L153.975 258.46L154.045 258.39L154.252 258.253L154.734 257.909L155.423 257.426L156.181 256.668L156.801 255.772L157.215 252.808L156.044 246.124L154.184 243.437L153.632 242.127L153.081 239.991L151.841 237.992L150.6 236.614L150.186 235.718L150.048 233.513L149.704 232.134L148.808 230.618L144.399 224.76L143.985 223.933L143.778 222.969V222.211L144.881 220.625L149.429 219.523L151.703 218.696L153.769 217.662L155.217 216.284L155.631 215.457L155.768 215.112L155.079 210.839L154.665 209.599L154.114 208.221L153.218 206.98L151.909 205.602L150.256 204.361L147.776 201.88L147.156 200.639L147.501 199.468L149.016 198.159L159.626 191.957L159.97 191.405L160.108 190.785L160.177 186.925L160.729 186.236L161.762 185.685L164.035 185.202L165.207 184.789L165.896 183.962L166.033 182.377L166.308 181.136L166.997 179.965L167.411 178.931L166.997 178.242L164.104 176.588L163.001 175.83V175.209L164.172 174.728L171.543 174.797L176.229 175.899L177.469 176.313L178.916 176.588L180.364 176.658L194.832 174.66H199.24L201.237 174.315L206.404 172.662L215.568 172.041L221.906 172.524L223.009 172.386L224.042 172.041L224.731 171.697L225.075 171.351Z" fill="white"/>
</svg>
