<svg width="500" height="500" viewBox="0 0 500 500" fill="none" xmlns="http://www.w3.org/2000/svg">
<circle cx="250" cy="250" r="250" fill="#1592ED"/>
<path d="M344 385.289L343.621 387.976L343.749 389.216L339.074 389.009L339.202 390.559L341.097 394.381L340.337 396.757L337.179 401.302L336.547 403.885L337.683 406.984L342.358 411.013L343.242 413.906L342.737 415.145L341.854 416.282L341.222 417.521V418.659L333.136 418.762L330.358 418.659L328.463 418.246L327.578 417.833L327.074 417.523L325.432 416.284L323.664 414.529L317.979 406.367L316.588 405.128L315.452 404.818L314.189 404.922L310.271 406.161L307.491 406.677L302.31 407.194H300.415L297.509 407.505L296.497 408.332L295.866 409.365L295.107 414.117L294.095 417.63L292.832 420.522L290.305 424.862L287.147 428.994L285.125 430.956L281.461 433.126L281.21 433.332L281.968 431.988L282.348 430.645V427.545L282.6 426.1L283.991 424.24L284.371 423.103L283.867 419.9L282.604 417.938L280.581 416.595L278.054 415.456L278.937 414.423L280.073 413.701L281.464 413.495L283.231 413.701L282.6 412.772L281.842 411.016L281.21 410.087L282.978 407.917L283.482 405.334L283.103 395.003L283.607 392.834L285.374 390.457L281.205 390.561L278.93 390.251L277.287 388.701L273.369 383.019L272.99 381.881L272.863 379.712L273.114 376.302L272.61 374.958L270.842 373.513L271.223 372.273L271.981 371.447L272.993 371.034L274.383 370.827L276.026 366.385L276.909 367.108L278.173 366.591L281.205 364.628L279.942 363.184L276.151 353.886V352.13L278.046 348.514L277.034 346.965L273.372 339.01V338.288L274.004 337.359V336.222L273.499 335.189L272.868 334.26L273.499 333.02L273.372 331.16L272.612 329.198L271.349 327.648L270.717 326.408L270.97 325.272L271.602 324.239L271.981 323.206L271.477 322.173L269.329 320.21L268.697 319.177L268.95 318.35L270.341 317.317L270.845 316.491V308.019L270.086 306.263L267.686 305.747L268.697 302.131L265.539 298.928L257.2 294.176L253.157 289.63L248.988 286.428L247.976 285.289V284.67L246.965 279.4V278.161L247.344 277.128L248.104 276.507L249.495 276.301L251.769 275.578L253.536 273.616L254.673 271.239L257.579 256.57L258.97 253.781L259.349 252.232L259.222 250.578L258.718 249.44L257.203 246.962L255.687 241.796L255.183 236.219L255.687 230.641L257.203 225.476L259.477 221.549L262.888 218.139L267.31 215.661L272.868 214.732L274.51 215.765L279.436 219.794L279.816 220.104H280.952L282.72 219.794L288.785 217.521L290.175 217.831L289.543 220.827L290.175 222.272L290.555 222.893L290.807 223.822L291.059 224.234L291.312 224.545L291.816 224.751L292.32 224.957L294.975 225.679L295.479 225.886L296.363 226.298L297.123 226.919L297.502 227.229L298.133 227.952L298.386 228.262L299.144 230.535L299.524 230.947L299.776 231.359L300.028 231.67L300.532 231.876L300.913 232.081L301.545 232.288L302.68 232.495L306.722 232.701L307.226 232.596L307.858 232.493L309.249 231.976L309.753 231.872L310.133 232.077L310.385 232.388L310.765 233.216L311.016 234.765L311.901 237.451L312.532 242.1L312.911 243.03L313.039 243.441L313.419 243.752L313.798 244.063L314.179 244.269L314.683 244.474L315.187 244.681L316.323 244.887L317.839 245.507L318.343 245.714L319.734 246.954L321.755 249.431L322.136 249.743L322.515 249.948L323.527 250.361L323.906 250.671L324.158 250.982L324.537 251.293L324.79 251.705L324.918 252.117L325.169 253.046L325.297 253.667L325.169 254.287L324.918 255.216L325.044 255.733L325.424 256.043L325.928 256.249L326.307 256.559L326.688 256.766L326.939 257.178L327.319 258.006L327.571 258.418L327.951 258.728L330.225 260.484L332.248 261.723L332.499 262.034L332.752 262.446V262.757L333.131 265.235L332.88 265.752L332.248 266.373L330.48 267.095L328.585 268.232L327.826 268.542L326.814 268.749L326.182 269.059L325.678 269.37L325.299 269.679L324.919 270.507L324.287 271.229L323.655 271.436L322.897 271.331L321.381 270.919L319.99 270.403L319.486 270.196L318.35 269.99L317.719 269.784L317.215 269.577L314.307 267.822L313.172 267.616L306.855 267.822L302.305 268.855L301.546 269.166L300.41 269.269H291.949L285.504 270.096L285.252 271.234L285.883 272.267L288.916 276.294L289.42 277.327L289.799 279.807L291.19 281.253L291.569 281.77V282.39V283.113L291.19 284.351L290.811 285.074L290.305 285.487L289.926 285.797L289.674 286.107L289.422 286.52L289.169 286.932V287.344V289.1L289.042 289.72L288.79 290.237L288.538 290.65L288.285 290.96L288.034 291.373L287.781 291.784V292.301L288.034 296.539L287.906 297.572L287.653 298.192L287.274 298.605V300.981L287.906 305.217L288.285 306.456L289.548 308.316L291.571 311.932L291.824 312.655L291.951 313.171L291.824 313.998V314.721L292.835 316.271L293.215 316.891L293.342 317.719L293.469 318.855L293.721 319.785L294.857 321.23L295.11 321.746V322.263L294.857 322.986L294.478 323.296L293.594 323.918L293.342 324.228L293.09 324.641L292.962 325.674L292.458 326.5V327.017V327.74L292.711 328.773L293.594 329.909L297.888 330.943L301.427 333.525L302.059 333.629L303.322 333.941L303.701 334.251L304.081 334.457L304.333 334.868L304.713 335.49L304.84 336.418L304.713 338.174L304.965 338.794L305.469 339.416L308.123 341.377L309.767 342.307L311.282 343.443L311.662 343.755L312.041 344.166L312.42 344.683L313.683 347.265L314.568 348.505L315.959 349.951L318.358 351.811L318.737 352.327L323.791 361.109L324.422 361.832L326.066 362.76L326.824 363.382L329.099 366.584L330.363 368.857L331.626 370.923L334.532 374.126L335.795 375.264L336.807 375.985L337.312 376.192L340.342 377.846L341.102 378.467L342.112 380.222L343.629 383.632L344 385.289Z" fill="white"/>
<path d="M280.064 212.04L280.444 214.933L272.738 219.375L269.326 220.408L266.673 220.511L256.945 219.583L253.155 219.789L249.617 220.409L248.733 220.72L247.973 221.341L247.214 221.962L246.078 222.168L245.195 222.063L243.426 221.547L242.416 221.341L237.994 221.445L234.835 222.374L232.436 224.028L229.909 226.714L224.982 207.396V204.297L226.877 201.715L220.813 201.094L217.907 199.132L214.368 191.9L213.736 191.384L212.601 191.073L211.59 190.351L211.21 188.801V184.255L210.958 183.222L209.567 181.673L209.188 180.33V179.09L210.324 175.785H209.188L207.798 178.573L207.293 180.227L207.042 182.088L205.526 181.159L204.894 179.61L204.766 177.749L205.019 175.787L207.042 172.276L205.906 171.448L204.515 171.552L202.871 172.276L201.608 169.693L202.113 166.387L204.008 159.776L203.881 157.71L203.377 156.573L200.85 154.507L199.965 153.369L198.702 151.715L197.817 149.856L197.691 148.202L200.218 144.792L204.512 145.619L209.187 147.064L213.356 145.515L207.543 143.138L204.512 142.312L201.354 142.001L197.816 142.622L196.3 144.275L195.289 146.548L193.646 149.13L191.119 146.444L188.972 142.001L188.341 137.869L190.362 135.698V134.872L187.204 134.25L186.193 132.184L185.689 129.396L184.173 126.708L181.142 125.47L177.352 124.642L174.952 123.299L175.836 120.51L159.284 110.592L158.02 109.352L157.137 108.114L156.757 105.841L156.883 101.603L156 99.9503L156.128 85.2804L157.263 81.0438L158.654 80.5272L159.918 80.0107L161.181 79.8051L161.685 79.7007L163.328 80.113L165.35 80.2173H165.982L166.486 80.0107L166.867 79.7007L167.246 79.4941L167.75 79.1842L168.634 79.2886L169.897 79.5984L172.044 80.2194L173.812 80.5292L174.192 80.426L174.823 80.8382L175.707 81.459L179.118 85.2804L179.622 85.5914L180.506 86.0036L183.161 86.9323L184.803 87.139L185.688 87.4489L186.823 88.0698L188.971 89.6194L189.982 90.6525L190.486 92.0977V93.4408L190.614 93.9574L190.741 94.3706L190.868 94.5762L191.373 96.2301L191.877 96.5401L192.381 96.7466L195.412 96.2301L204.128 92.9243L206.655 91.4801L208.678 90.0337L209.309 88.4841L210.573 88.5884L211.077 88.4841L211.582 88.1741L211.709 87.451V86.3146L211.836 85.7981L211.964 85.3848L212.468 84.9726L213.227 84.456L214.618 83.7329L216.892 81.4612L217.524 81.3568H218.408L219.04 81.4612L222.703 82.6998L223.335 82.5954L223.966 82.1833L225.357 79.8071L225.61 79.084L225.736 78.4631L225.61 77.9465L225.736 77.43L225.864 76.9134L225.991 76.5013L228.014 73.4021L228.646 72.8855L229.405 72.369L230.416 71.748L230.795 71.5425L230.923 71.0259L230.67 69.5807V69.0642L230.797 68.5476L231.05 68.1344L231.554 67.8244L232.186 67.6178H232.818L233.449 67.7231L233.953 67.9288L234.334 68.1344L234.838 68.2386L235.342 68.3431L235.722 68.1364L236.226 67.31L236.478 67.1033L236.982 67L237.362 67.2056L237.741 67.6178L237.869 68.3409L237.996 68.8575L237.869 69.374L236.986 70.5115L233.7 72.4733L233.068 73.2998L232.056 75.9868L231.928 76.5033L232.056 77.2266L232.436 78.1552L235.722 85.077L236.354 85.9034L236.986 86.4199L238.5 87.6597L238.881 87.8653L240.396 88.3818L241.408 88.7939L242.543 89.6215L242.922 90.0337L243.05 90.4458L243.178 91.0668L241.155 98.4027L241.283 99.0237L241.534 99.6435L242.293 100.471L242.797 101.297L243.303 102.743L243.807 105.43L245.449 109.873L245.953 110.595L246.334 110.906L246.965 111.628L248.608 114.522L249.112 115.244L249.492 115.451L250.375 116.071L250.628 116.382L251.007 116.691L251.387 117.208L252.523 119.379L252.774 120.307L252.902 121.03L252.143 122.168L251.511 122.684L250.628 123.305L250.248 123.717L250.121 124.338L250.248 125.267L251.511 128.471L251.764 128.987L252.523 130.64L252.902 131.984L252.774 133.223L251.007 135.393L253.406 141.075L254.165 142.213L254.293 142.625L254.421 143.142L254.042 143.968L252.778 145.724L252.147 146.034L251.641 146.139L251.137 146.345L250.758 146.757L250.505 147.274L250.378 147.997L249.874 148.824L249.621 148.928L248.863 149.34L247.979 149.65L247.6 149.961L247.472 150.477L247.6 151.098L248.231 151.925L248.483 152.648L248.735 153.37L248.483 154.403L248.104 154.92L247.851 155.436L247.347 155.747L246.968 155.852H246.336H245.827H245.195L244.944 156.574L244.816 157.607L245.576 162.05L245.827 162.567L246.207 163.187L249.366 166.286L249.493 166.699L249.621 167.216L249.493 168.249L249.113 169.798L249.366 172.381V172.898L248.985 173.826V174.343L249.366 175.065L250.502 176.202L251.133 177.03L251.893 178.269L252.776 178.992L254.544 180.025L254.796 180.437L255.049 181.058L254.921 182.091L254.793 182.711V183.538L255.046 184.055L257.573 186.638L257.7 188.497L257.448 190.047L257.828 191.907L258.079 193.974L258.332 194.902L259.091 196.04L264.017 201.205L266.923 203.891L269.578 204.719L270.082 205.131L270.462 205.647L270.714 206.576V207.197L270.335 207.92V208.23L272.609 210.607L273.24 211.124L274 211.536L275.516 211.742H276.274L277.033 211.638L278.549 211.327L278.801 211.223H279.181L279.685 211.636L280.064 212.04Z" fill="white"/>
</svg>
