<svg width="500" height="500" viewBox="0 0 500 500" fill="none" xmlns="http://www.w3.org/2000/svg">
<circle cx="250" cy="250" r="250" fill="#1592ED"/>
<path d="M343.25 428.603L337.51 424.419H337.438L337.367 423.142L337.65 421.652V420.588L337.367 419.382L336.73 418.177L336.376 417.68L336.304 417.185L336.233 416.049L336.8 413.78L338.217 414.276L339.917 415.908L341.476 417.043L340.98 415.766L339.422 412.787V411.795L339.776 410.802L339.28 409.809L338.005 408.391L337.083 406.617L336.516 404.773L336.233 400.73L335.453 398.957L331.838 395.482L330.988 392.786L330.775 387.466L330.279 385.125L327.232 378.813L326.949 377.466L327.517 376.189L330.138 375.053L330.988 374.061L331.271 372.005L330.917 369.948L330.067 367.962L328.437 365.551L328.365 364.558V363.494L328.152 362.502L327.656 361.651L326.666 360.659L326.311 360.091L325.744 356.544L325.107 354.7L323.76 353.918L319.863 354.415L318.233 354.273L317.029 353.281L316.888 352.5V351.223L317.101 350.017L317.313 349.308L318.022 349.025L318.943 350.231L320.29 349.735L321.353 350.726L322.274 350.868L322.911 350.372L323.974 348.812L324.612 348.313L323.621 346.894L323.125 345.262L322.345 343.985L320.291 343.489L319.016 342.851L318.447 341.432L318.022 339.731L317.313 338.312L312.991 333.488L311.22 330.935L310.015 328.239L311.22 328.521L311.502 327.671L310.651 320.295L310.297 319.302L301.866 311.074V310.365H302.433L304.063 311.57H307.181L312.92 310.365L311.575 309.797L310.653 309.159L308.599 310.648L307.253 310.081L304.702 306.18L302.222 303.06L301.726 301.358L301.867 298.804L300.946 299.513L300.52 300.718V302.066L300.661 303.058L299.315 303.413L297.544 302.986L295.844 301.923L294.852 300.576L294.073 301.002L293.719 301.215L292.443 299.654L291.875 296.959L292.301 294.334L293.719 292.703L292.583 289.583L292.512 288.378L292.654 287.241L293.505 285.752L293.717 285.043L294.567 283.411L294.78 283.198L294.638 282.629L294.426 281.92L294.284 281.353L296.551 279.863L297.188 279.225H295.986L294.001 279.792H293.152L291.805 279.155L291.664 278.517L292.09 277.595L292.515 276.104L292.374 275.182L291.878 273.267L291.95 271.92L292.375 270.784L293.438 268.443L293.721 267.238L293.084 259.79L293.438 258.371L294.288 257.522L295.139 255.676L295.493 253.62L294.855 252.273L294.005 254.542L291.808 258.798L291.312 261.423L292.021 266.033V268.728L291.1 269.934L290.037 270.926L288.691 272.841L286.919 273.976L284.653 272.772L284.298 271.848L284.157 269.58L283.873 268.728L282.883 268.232L282.032 268.799L281.536 269.936V271.213L281.962 271.85L284.656 274.616L285.435 275.68V276.461L285.152 277.242L284.939 278.234L285.152 284.191L285.578 285.965L286.145 286.958L287.562 288.731L287.846 289.936L287.773 290.928L287.348 292.276L287.277 292.985L286.994 293.907L284.939 296.39L284.726 296.462L284.018 296.816L283.876 296.888V297.384L284.018 298.093L284.23 298.661L284.444 298.802L283.309 299.653L282.388 298.873L281.325 297.596L277.782 296.39L273.318 292.062L271.687 291.14L267.931 289.65L266.586 288.728L265.948 287.735L265.452 286.884L264.957 286.104L264.035 285.394L263.114 285.182L262.477 285.394L261.909 285.252L261.13 284.118L260.917 283.125L261.199 281.068L260.845 280.076L260.278 279.367L259.853 278.374L259.499 277.31L259.357 276.459L258.79 275.041L255.814 272.558L254.68 271.211L252.341 266.388L251.491 265.749L246.459 259.011L245.538 257.238L245.255 255.677L245.327 251.918L245.894 250.571L247.311 249.294L249.224 248.443L251.137 248.584L251.774 249.152L252.128 250.003L252.411 250.712L253.261 250.996H256.167L257.797 253.761L258.293 255.818L256.946 257.165L260.703 259.719L262.615 260.499L265.168 260.783L265.593 263.053L268.285 264.968L271.901 266.032L275.089 265.748L277.711 264.329L283.238 260.215L284.932 258.37L285.004 257.944L284.862 256.88L284.933 256.454L285.217 256.312L285.925 256.099L286.138 255.957L287.555 253.758L288.122 252.481V250.849L287.84 247.941L288.335 246.805L288.407 246.168L287.84 245.529L287.344 245.601L284.651 246.097L282.666 245.671L281.957 244.749L282.311 243.756L283.87 243.047L282.949 242.621L282.028 242.408H280.044L279.121 242.194L276.855 239.925L273.383 237.584L271.682 235.952L270.974 234.179L270.265 233.115L267.077 231.838L266.297 230.491L266.935 228.79L268.423 227.939L270.336 227.797L272.178 228.365L271.682 226.804L272.391 225.457L273.526 224.181L274.517 222.833L273.314 220.918L272.745 220.35L272.109 222.905L270.834 225.246L268.848 226.735L266.297 226.453L265.447 225.815L264.81 224.679L264.456 223.261L264.596 221.629L265.305 220.565L267.218 219.642L268.069 218.578L265.518 218.295L264.382 219.642L263.886 221.415L263.107 222.265L259.281 222.194L258.29 221.343L258.218 219.144L257.155 221.485L256.518 222.336L255.314 222.831V217.016L255.739 215.88L260.345 209.214L261.976 208.078L264.03 207.937L266.864 208.15L266.085 207.157L265.872 206.093L266.297 205.312L267.573 205.1L267.077 204.319L266.51 203.75L265.873 203.325L265.165 203.253L264.669 203.536V204.813L264.314 205.097L259.991 205.168L259 205.381L258.433 205.664L257.652 205.736L256.164 205.664L255.881 206.019L255.244 207.579L254.676 208.147L253.542 208.289L252.338 207.862L251.347 207.153L250.638 206.303L251.064 206.089L251.772 205.451L252.268 205.097L249.15 203.891L248.229 203.04L249.364 201.976L248.087 201.339L247.662 200.275L248.087 199.352L249.364 198.997L249.15 198.36L248.868 197.721L247.805 198.29L246.955 198.858L246.317 199.708L246.035 200.772L245.609 200.346L244.546 199.495L244.121 198.999L243.554 201.055L242.986 201.764L242.137 201.977L241.145 201.623L240.153 200.773L239.304 199.637L239.02 198.645L238.524 196.517L236.825 191.906L236.683 189.779H236.038L235.968 193.111L235.755 194.884L234.905 195.311L234.409 194.247L233.133 188.5H232.566L231.929 190.416L230.724 191.834L229.165 192.827L227.323 193.395L224.913 193.182L222.433 192.331L220.308 191.905L219.104 192.827L217.9 192.26L216.695 191.409L215.703 190.345L215.067 189.209L215.208 190.911L215.775 192.329L217.405 195.308L219.106 201.408L224.206 211.339L224.42 213.68L222.649 212.19L221.302 209.92L219.106 205.097L217.829 200.628L216.766 198.146L215.349 197.082L213.437 198.216L212.799 200.841L213.153 203.82L214.712 207.153L215.208 209.919L215.634 211.195L216.909 212.828L215.988 212.686L215.634 212.474L214.783 211.337L213.72 208.855L209.187 202.045L208.619 200.485L208.265 198.073L207.415 196.514L205.148 194.103L203.447 191.62L202.526 190.698L202.101 189.776L201.959 187.151L201.605 186.087L203.164 186.513L207.77 186.087L208.76 185.591L209.682 184.527L210.958 182.399L211.171 182.895L211.383 183.25L211.525 183.605V184.242H212.162L214.005 179.56L214.43 178.709V178.142L211.738 178.851L208.195 182.61L205.715 184.242L203.376 183.816L203.093 180.979L204.228 176.298L205.786 174.737L207.629 167.999L208.905 166.438L211.031 165.588L211.881 163.601L212.731 159.132L211.101 160.409L210.321 164.027L209.187 165.305L207.84 165.021L207.061 163.319L206.778 161.05L206.919 159.135L210.179 153.319L211.455 150.056L210.392 148.069L209.966 149.772L209.258 151.758L208.336 153.673L207.202 155.162L206.067 157.219L205.855 159.773L206.28 164.738L205.571 168.639L203.729 172.045L198.697 178.711L195.508 185.521L195.226 185.734L194.73 186.231L194.021 186.656L192.888 186.728L192.25 186.515L191.825 186.019L191.116 184.883L185.66 180.699L184.809 179.635L184.881 178.288L185.307 176.941L186.016 175.663L187.078 174.458L192.606 170.77L195.723 170.132L199.266 168.926L198.558 168.501L197.777 168.359H196.073L195.081 168.218L194.727 167.863L194.585 167.225L194.018 166.445L191.964 164.812L191.115 163.962L190.546 162.756L189.838 154.883L189.413 153.392L188.421 152.541L186.509 152.4L186.863 154.386L185.871 156.302L184.525 157.011L183.603 155.45L184.879 155.024L185.375 154.883L182.967 153.11L182.185 150.343L181.76 147.364L180.413 144.74L178.571 142.257L175.453 136.937L173.115 135.305L175.17 139.278L178.995 145.024L179.349 145.946L180.058 152.968L181.829 157.934L181.901 159.352L181.264 163.466L181.972 172.687L181.264 174.46L180.697 173.396L179.138 171.481L178.358 170.134L174.674 160.276L172.902 157.722L165.037 150.484L164.116 149.066L163.336 144.951L162.201 143.178L159.154 140.128L158.518 139.206L158.163 138.426L157.667 137.929L156.463 137.716L155.612 137.433L153.841 136.156L152.99 135.873L151.502 135.092L150.652 133.177L149.802 129.134L145.056 115.658L143.638 113.316L143.001 111.898L142.15 103.882L141.654 102.818L138.184 99.9096L137.688 98.5627L137.121 97.2157L135.066 95.3708L134.429 94.165L134 92.5343L134.283 91.1873L134.709 88.4912L134.85 86.7896L134.213 83.2431V81.4698L134.709 79.9086L137.047 76.5749L138.252 72.7447L139.173 70.9714L140.59 70.7579L143.283 70.8295L146.543 67L149.236 67.9221L150.371 69.3407L150.725 70.831L150.938 72.3212L151.505 73.881L152.213 74.5903L153.134 75.0868L155.048 75.7961L158.661 76.0791L161.496 75.5117L163.694 76.0081L165.324 79.5547L165.961 83.1721L166.597 85.0163L167.589 86.1519L169.361 86.0101L171.345 84.7333L172.974 83.031L173.755 81.6124L173.614 80.6896L176.021 81.7535L180.273 88.5636L185.447 94.3096L187.501 97.5015L188.209 99.4166L188.99 100.976L190.124 102.963L191.825 104.382L193.028 104.949L194.02 104.807L195.012 104.098L197.065 101.97L197.987 101.332L199.05 101.191L200.539 101.332L215.42 104.312L216.27 105.162L216.765 106.51L217.757 115.589L218.465 117.079L219.174 118.214L223.213 120.768L223.921 123.819L224.276 124.528L225.055 125.521L226.543 126.723L239.226 135.022L244.469 137.433L246.737 137.716L248.934 136.935L250.705 136.864L252.264 137.218L254.035 138.14L255.38 138.354L256.443 138.14L258.357 136.581L259.419 135.871L261.263 135.234L261.972 134.595L262.254 133.673L261.972 132.681L260.838 130.269L260.556 129.915L260.273 129.276L259.918 128.78L259.706 128.284L259.564 127.717L259.493 126.511L259.918 121.333L260.343 120.127L260.912 119.063L262.754 117.927L265.801 118.282L266.651 118.85L267.927 119.986L269.203 121.9L270.479 124.17L270.692 124.666L271.046 125.375L271.683 127.148L271.966 128.496L272.392 129.56L272.959 129.986L275.367 130.127L276.784 130.554L278.061 131.404L280.186 133.532L281.108 134.951L281.036 145.731L281.886 147.222L282.949 147.718L286.421 148.356L287.839 148.994L289.183 150.13L290.176 151.335L291.097 152.895L291.451 153.676L302.434 171.976L303.639 174.459L305.623 180.56L306.828 182.759L310.938 187.724L310.654 193.327L311.15 194.746L311.717 196.164L313.348 197.511L313.561 197.653L316.112 200.277L317.601 202.192L318.238 203.611L318.379 204.887L318.097 206.093L317.247 208.931L316.751 211.271L316.822 212.69L317.105 213.896L320.648 221.698L323.908 237.019L325.751 246.666L326.531 248.368L334.397 259.717L336.451 263.405L336.877 265.037L336.736 265.888L336.24 266.101L335.318 266.172L334.681 267.308L334.54 269.364L335.886 274.47L336.736 276.74L337.728 278.159L338.861 278.513L340.35 278.726L343.113 280.287L347.224 284.826L350.27 292.06L351.616 293.833H352.679L356.294 298.658L356.861 299.722L357.641 301.566L357.57 302.772L357.002 303.763L355.939 304.332L354.522 304.827L351.759 305.182L350.625 305.678L350.412 306.317L350.484 307.026L350.767 307.452L351.121 307.948L354.876 311.353L356.507 314.119L356.435 315.183L356.009 316.318L353.388 318.873L352.466 320.646L352.679 322.277L354.876 326.888L355.159 328.519L354.876 329.796L354.522 331.002L354.096 333.059V333.981V334.69L357.923 341.642L358.986 343.06L360.331 344.408L363.946 351.572L364.867 355.26L365.009 360.296L363.52 367.318L363.591 376.468L362.174 380.155L362.103 381.574L362.244 382.851L362.598 383.774L362.881 384.342L363.589 385.477L365.928 389.732L366 391.223L365.858 392.924L364.795 395.761L364.3 400.514L363.095 403.493L358.702 408.458L357.994 410.019L357.781 411.578L357.853 414.202L357.427 417.466L357.144 424.205L356.153 427.397L353.318 432.574L352.468 433L351.831 432.787L351.263 432.362L349.988 431.014L348.358 429.879L347.012 429.595L344.957 429.383L343.25 428.603Z" fill="white"/>
</svg>
