<svg width="500" height="500" viewBox="0 0 500 500" fill="none" xmlns="http://www.w3.org/2000/svg">
<circle cx="250" cy="250" r="250" fill="#1592ED"/>
<path d="M373.915 288.478L375 291.542L374.457 294.967L371.206 300.197L369.942 305.426L366.874 313.36L363.622 313.903L361.999 315.164L362.36 317.15L364.525 319.495L360.732 325.266L356.94 328.691L348.271 335.004L346.284 337.527L342.312 343.84L340.145 346.727L337.619 348.891L330.579 353.583L323.173 361.879L319.02 364.945L308.907 367.108L296.267 372.519L291.753 373.062L277.669 372.519L272.793 371.617L268.279 369.272L253.834 358.268L250.222 354.843L248.599 351.417L248.417 345.825L247.696 341.497L246.432 337.709L241.918 328.509L240.654 323.641L240.112 318.95L239.93 314.08L241.736 310.473L250.583 304.703L253.11 302.18L246.79 301.637L235.773 310.296L228.007 311.739L229.271 313.903L233.065 318.23L233.785 320.216L235.23 328.873L237.579 332.662L243.178 339.334L244.264 343.663L243.72 346.186L241.555 351.236L241.194 353.583L241.736 356.106L244.264 360.974L254.737 375.403L258.165 381.535L261.959 384.058L263.947 387.123L260.695 392.716L256.903 394.701L246.429 398.491L241.732 401.014L226.566 411.475L222.234 413.279L216.817 414L212.121 412.377L210.133 407.509L207.785 404.985L192.437 399.032L194.602 401.018L192.437 399.934L190.27 397.589L189.008 397.046L187.02 396.327H176.004L171.672 395.242L170.225 394.701L165.711 392.178L161.919 388.21L161.737 384.964L161.193 383.88L160.29 382.435L156.679 380.451L154.693 378.105L155.776 374.679L156.862 373.237L164.445 365.479L166.069 363.317L166.972 361.513L166.61 360.068L166.43 359.167L165.166 357.004L165.708 347.625L165.166 346.183L164.263 344.018L163.36 343.299L161.013 338.79L163.902 337.168L166.251 334.643L169.319 327.068L170.583 318.41L169.138 312.098L165.527 305.967L163.36 300.915V295.505L164.983 291.356V290.454L165.527 290.274L170.222 281.436L169.501 275.124L164.987 269.533L160.655 265.204L159.032 262.498L158.488 260.515L158.671 258.527L158.488 256.543V252.395L156.865 249.146L153.974 246.259L150.545 240.307L148.557 235.798L146.752 232.908L141.335 227.498L136.82 224.251L134.834 221.73L133.57 219.381L132.667 217.397L131.403 215.774L127.433 212.888L124.181 198.099L124 191.606L125.986 182.406L127.25 177.897L133.57 164.912L136.096 154.808L142.057 143.085L146.21 138.76L151.085 136.235L158.126 130.463L161.737 126.138L167.154 115.858L169.862 112.792L182.32 105.938L185.931 103.232L188.457 100.888L191.348 96.559L196.948 89.7054L199.656 87.7177L202.182 87L204.17 87.7177L205.432 88.6196L207.058 90.9679L213.737 107.2L252.92 175.554L254.726 179.345L262.308 212.892L263.572 216.138L265.195 218.664L268.265 222.631L272.418 229.124L274.944 234.718L276.749 243.193L276.932 246.259L275.847 256.539L276.39 262.131L287.224 263.216L315.212 261.229L334.172 262.852L345.726 265.197L348.617 266.098L350.423 267.181L352.229 268.627L359.09 276.559L367.033 283.594L370.285 284.676L371.73 285.938L373.915 288.478Z" fill="white"/>
</svg>
