<svg width="500" height="500" viewBox="0 0 500 500" fill="none" xmlns="http://www.w3.org/2000/svg">
<circle cx="250" cy="250" r="250" fill="#1592ED"/>
<path d="M409.627 258.386L408.99 259.289L408.777 260.511L409.043 261.519L409.203 262.741L408.937 263.75L408.033 264.175L399.154 271.346L393.198 274.426L392.295 274.745L390.114 276.87L389.422 277.455L387.083 278.411L385.648 278.623L384.424 278.145L383.946 277.826L383.415 277.614L382.829 277.508L382.244 277.455L381.393 277.667L381.18 278.198V278.941L381.127 279.737L379.106 287.864L375.81 293.866L375.012 294.928L373.842 295.566L370.971 296.203L369.802 296.68L370.6 298.539L370.653 299.07L370.334 299.496L369.164 300.292L368.898 300.664L368.739 302.098L368.153 304.807L367.993 306.135L369.216 306.985L374.854 305.977L376.715 306.348V306.773L375.065 308.313L373.311 309.695L371.396 310.703L369.375 311.394L367.886 311.447L365.174 310.704L359.591 309.801L358.368 310.013L357.516 310.916L356.931 311.925L356.133 312.828L353.634 313.571L352.624 314.473L350.975 316.492L349.274 317.979L348.583 318.776L348.317 319.892L347.998 320.742L346.614 322.761L346.137 323.823V324.673L345.339 326.478L344.647 328.763L343.85 334.711L343.212 336.836L343.106 338.27L342.84 339.438L342.202 340.394L341.458 341.191L341.298 342.147L341.352 343.05L341.458 344.166L338.639 342.413L338.161 341.67L337.841 341.032L337.416 340.501L336.565 339.97L335.661 339.758L334.917 339.812L334.226 339.546L333.482 338.644L332.844 338.112L332.631 337.475L332.472 336.838L332.046 336.254L331.408 335.722L331.089 335.669L330.823 335.828L327.313 336.359L325.877 336.785L324.761 337.581L324.016 338.59L323.165 341.034L322.58 342.096L321.516 343.105L320.399 343.476H317.796L316.52 343.688L314.127 344.697L312.904 344.909L312.266 344.803L311.309 344.112L310.724 343.9L310.086 343.847L308.916 344.006L308.278 343.953L303.387 342.359L300.302 340.235L299.345 339.863L298.122 340.341L298.707 341.457L301.047 343.9L301.578 345.122L302.322 349L304.396 351.23L304.874 352.346L304.502 353.993L303.864 355.161L303.173 355.639L302.429 356.011L301.577 356.861L299.45 358.666L291.794 361.002L290.145 361.267L288.87 360.631L286.371 358.56L285.253 358.082L282.648 357.285L281.373 357.18L278.767 357.551L276.003 358.667L273.61 360.42L272.386 362.704L271.643 367.324L271.749 367.962L272.121 369.183L272.174 369.821L272.015 370.139L271.695 370.459L271.376 370.936L271.27 371.627L271.482 373.22L271.802 374.495L271.855 375.77L271.323 377.416L270.525 378.903L269.622 379.647L267.175 380.603L264.889 382.302L263.879 382.514L262.656 380.655L261.858 379.912L260.954 379.275L259.04 378.425L255.318 381.292L254.094 381.718L248.405 382.514L247.288 383.046L246.756 383.523L245.693 384.905L245.161 385.276L243.725 385.541L242.502 386.019L241.811 386.604L241.705 387.082L241.492 387.135L240.375 386.658L239.737 386.127L239.259 385.489L238.674 385.064L237.77 385.17L235.537 386.338L232.666 386.444L229.688 386.179H227.083L224.264 387.56L222.669 387.879L221.446 387.083L221.34 386.392L221.393 385.01L221.074 384.32L220.648 384.107L218.468 383.417L215.915 381.133L214.586 380.389L212.991 380.655L212.139 380.336L211.342 379.274L210.385 378.317L209.055 378.637L208.629 379.539L207.778 383.948L207.832 385.17L208.364 387.56V388.782L207.992 389.578L207.514 389.79H206.876L206.184 390.003L205.599 390.48L204.695 391.596L204.163 392.073L200.229 394.038L199.165 394.198L198.474 391.596L198.368 390.693L198.048 389.897L197.729 389.472L197.197 389.1L196.719 388.888L196.347 388.834L195.921 388.941L195.284 388.886L194.539 388.727L193.264 387.93L192.626 387.665L192.094 387.559L191.722 387.665L191.403 387.877L191.083 388.196L190.658 388.462H190.072L185.181 387.187L183.586 386.975L182.734 386.444L182.468 386.125L181.724 384.851L181.246 384.266L180.714 383.895L179.97 383.417L179.598 383.045L179.438 382.726V382.407L179.598 381.61L179.864 380.76L180.981 378.104L181.087 377.627V377.042L180.822 376.723L180.556 376.617L179.97 376.511L179.545 376.299L179.066 375.928L178.109 374.759L177.205 372.688L176.833 372.211L176.461 372.052L176.09 372.105L175.77 372.211L175.558 372.37L175.292 372.583L174.972 372.901L174.653 373.167L174.227 373.326L173.802 373.433L173.11 373.486L172.206 373.38L168.804 369.45L168.697 368.6L167.156 369.077L166.305 370.139L166.039 371.202L165.667 371.945L165.401 372.211L165.082 372.37L164.762 372.317H164.39H163.964L161.625 372.794L160.987 372.741L160.509 372.635L160.083 372.475L159.232 371.944L158.966 371.679L158.754 371.307L158.594 370.51L158.541 370.085V369.66L158.594 369.234V368.757L158.541 368.386L158.381 367.695L158.115 367.323L157.583 366.845L156.254 366.368L155.669 366.209H154.393L154.021 367.483L154.287 369.661L153.701 373.379L153.489 373.75L152.904 374.442L152.745 381.557L152.319 383.681L145.407 387.771L141.95 390.639L139.717 393.241L138.176 395.684L137.218 397.915L137.058 398.606L137.005 398.925V399.19L137.217 399.722L137.483 400.306L138.547 401.899L139.025 403.227V405.246L137.324 408.645L135.037 411.512L133.496 413L133.442 412.097L133.548 410.981L133.602 410.769L133.868 410.397L133.921 410.186V409.921L133.868 409.708L133.814 409.496L133.708 409.284L132.804 407.796L132.698 407.585L132.539 407.107L132.326 406.735L131.954 406.416L130.146 405.46L127.382 403.442L126.638 403.016L126.052 402.804L125.201 402.698L124.989 402.645L124.777 402.485L124.617 402.273L124.191 401.157L122.862 399.193L123.287 397.759L123.234 397.334L123.022 396.643L122.224 394.837L121.799 394.36L121.32 394.094L120.842 394.147L120.47 394.201H120.098L119.354 394.095L118.982 394.148L118.663 394.095L118.025 393.776L117.387 393.616L116.909 393.404L115.845 392.714L115.526 392.288L115.366 391.811L115.472 391.44L115.632 391.12L115.952 390.855L116.323 390.643L116.749 390.537L117.069 390.483H117.494L117.866 390.324L118.238 390.112L118.982 389.846L119.354 389.581L119.674 389.209L119.886 388.624L120.152 388.147L120.471 387.827L121.323 387.402L121.748 387.031L122.068 386.394V385.863L121.908 385.385L121.695 384.96L121.429 384.641L121.11 384.375L120.738 384.109L120.313 383.897L119.462 383.366L118.61 381.932L116.005 378.852L115.633 378.161L114.782 376.408L114.462 375.877L114.196 375.558L113.559 375.292L112.761 375.133H112.442L111.963 375.239L110.794 375.664H110.474L109.996 375.61L109.252 375.291L108.88 375.079L108.72 374.813L108.667 374.548L108.72 374.282V374.017L108.88 373.539L108.986 373.327L108.615 372.159L105.264 367.804L104.041 365.414L103.881 364.988L103.827 364.298L103.987 364.086L104.2 363.98H104.412L104.678 364.033L104.89 364.139L105.102 364.193L105.368 364.139L105.74 363.874L106.006 363.714L106.272 363.608H106.483L106.856 363.874L107.228 364.139H107.494L107.865 364.033L108.503 363.608L108.769 363.289L109.035 362.918L109.301 362.28L109.621 361.855L110.152 361.324L110.365 361.005L110.471 360.686L110.417 360.42L110.311 360.208L110.205 359.996L110.045 359.89L109.833 359.784L109.407 359.573L109.247 359.413L109.194 359.201L109.14 358.404L109.034 357.926L108.874 357.342L108.768 356.864L108.822 356.598L108.928 356.387L109.088 356.226L109.247 356.121L110.417 355.378L110.895 354.953L111.107 354.74L111.639 353.89L111.745 353.731L112.011 353.466L112.543 353.146L114.244 351.765L114.776 350.968L114.83 350.49V350.171L114.723 349.906L114.564 349.534L114.086 348.737L111.852 343.32L111.799 343.108L111.693 342.843L111.481 342.471L111.003 340.931L110.365 337.798L110.311 337.161L110.523 336.152L110.683 335.089L110.737 334.878L110.843 334.665L111.003 334.506L111.374 334.186L111.534 333.975L111.747 333.655V333.284V332.965L111.321 331.957L111.586 331.426L113.873 331.319L114.245 331.213L114.777 330.894L114.883 330.629L114.937 330.363V330.044L114.725 329.035V328.451L114.884 326.697L114.831 326.326L114.777 326.007L114.723 325.795L114.564 325.635H114.404L113.766 325.901H113.554L113.288 325.741L113.076 325.263L112.864 325.052L112.651 324.998L112.439 324.945L112.227 324.891L112.067 324.785L111.907 324.625L111.748 324.306L111.482 323.509L110.578 321.916L110.418 321.757L110.258 321.597L110.099 321.491L109.513 321.119L109.247 320.854L108.981 320.323L108.876 319.898V319.632L109.035 319.367L109.407 318.516L109.035 317.028L110.79 315.648L111.162 315.276V315.17L111.482 314.533L111.853 314.267L112.226 314.108L112.545 314.054H113.13L114.194 314.16L116.161 314.001L116.427 312.619L116.373 311.026L116.586 310.388L117.011 309.963L117.331 309.592L117.437 309.273L117.49 308.901L117.384 308.582L117.225 308.104L116.959 307.627L116.107 306.618L115.948 306.459L115.736 306.353L115.523 306.299L115.311 306.245H115.045L114.779 306.299L114.567 306.405L114.195 306.193L113.717 305.822L112.919 304.759L112.494 304.334L112.174 304.174L112.015 304.281L111.642 304.6L111.005 305.184L110.792 305.29L110.58 305.344H110.26L109.729 305.025L107.336 303.325L106.858 303.166L106.646 303.272L105.954 303.538L105.742 303.591H105.42L104.995 303.485L103.877 303.008L103.24 302.848L100.581 301.574L98.72 300.936L97.5502 300.671L96.3803 300.299L95.7954 299.928L93.6685 298.015L93.3489 294.563L93.5084 293.66L93.7206 293.5L93.9333 293.288L94.1454 292.969L94.465 292.438L94.5708 292.067V291.747L94.1454 289.942L94.1991 289.57L94.3049 289.305L95.2089 288.508L96.8578 287.658L98.293 287.339H98.6652L98.8774 287.445L99.1432 287.605L100.153 287.87L100.897 287.658L101.323 287.605H101.748L102.759 287.764L103.078 287.71L103.343 287.605L103.556 287.392L103.716 287.074L103.769 286.861L103.663 286.649L103.504 286.437L103.397 286.278L103.343 285.747L103.238 285.534L102.918 284.95L102.598 284.047L102.12 283.25L101.695 282.719L101.429 282.454L101.166 282.075L101.06 281.863L100.156 277.295L99.8903 276.338L99.7845 275.541L99.7308 275.276L99.6245 275.064L99.5186 274.905L99.3581 274.639L99.1985 274.374V273.682L98.4541 269.646L98.2941 267.787L101.006 266.14L101.432 265.503L100.954 264.76L100.9 264.388L100.954 263.911L101.326 262.954L101.592 262.529L101.911 262.317L103.932 262.211L107.283 261.521H107.868L108.24 261.626L109.303 261.467L114.035 259.13L114.621 258.971L114.886 259.024H115.259H115.737L116.64 258.812L117.066 258.6L117.332 258.388L117.438 258.229L117.598 258.069L119.778 256.422L119.991 256.103L120.15 255.837L120.31 255.412L120.416 255.201L120.628 255.041L121.054 254.669L122.489 252.97L122.861 252.385L123.499 251.748L124.297 251.111L124.882 250.58L125.254 250.368L125.574 250.314L125.84 250.368L125.999 250.474L126.159 250.633L126.265 250.845L127.063 250.899L130.199 249.625L131.051 248.509L131.263 247.978L131.689 247.712L131.901 247.658L132.113 247.818L132.699 248.296L133.07 248.721L133.443 248.986L133.655 249.092L134.027 249.198L135.516 249.517H135.994L136.366 249.412L136.472 249.199L136.578 248.987V248.775V247.713L136.524 247.128L136.419 246.863L136.312 246.651L136.046 246.332L135.941 246.172L135.834 245.907V245.586L135.888 245.108V244.737L135.834 244.525L135.623 244.099L135.463 243.887L135.303 243.781L135.144 243.675L134.452 243.409L134.24 243.25L134.186 242.984L134.132 242.507L134.239 241.604V241.124L134.185 240.753L133.919 240.116L133.813 239.903L132.005 237.726L131.899 237.513L131.687 236.823L130.783 234.964L130.517 234.592L128.869 232.839L128.656 232.467L128.551 232.202L127.912 230.343L127.487 227.262L126.902 226.466L126.104 225.988L125.838 225.882L125.041 225.722H123.339L123.073 225.669L121.956 225.297L119.829 224.235L117.33 223.544L116.373 223.385L114.724 222.269L111.374 221.26L110.736 220.941L110.417 220.622L110.363 220.356V220.091V219.825L110.575 219.029V218.763V217.489L110.521 216.851L110.416 216.64L109.406 214.249L108.82 213.399L107.757 212.602L107.545 209.947L107.438 209.627L107.119 209.043L106.799 208.671L106.214 207.821L105.895 207.396L105.58 207.185L105.314 207.079H104.782L103.931 207.185L101.432 206.919L100.847 206.759L100.581 206.6L100.421 206.334L100.155 205.007L100.581 203.201L100.687 201.342L100.793 200.651L101.113 199.749L101.166 199.323V198.952L100.634 197.73L100.528 197.571L100.368 197.411L100.209 197.251L99.943 197.198H99.6771L99.4113 197.092L99.0917 196.88L98.72 196.295L98.6663 195.817L98.8258 194.33L98.7726 193.799L98.6663 193.427L98.4541 193.002L96.3272 190.506L95.8486 189.816L95.1573 188.488L95.051 188.116V187.85L95.1047 185.407L95.051 185.195L94.8915 185.141L94.4661 185.354L94.2534 185.408L93.8817 185.302L93.828 185.036L93.7743 183.974L93.6685 183.602L92.8709 182.115L95.3695 180.575L96.911 179.407L97.2306 179.301L97.6565 179.248L98.3478 179.513L99.2517 179.725L101.591 179.884L102.335 179.831L102.76 179.778L103.026 179.566L103.93 179.035H104.408L105.1 178.769L105.578 178.503L105.897 178.45L106.163 178.503L106.323 178.609L106.801 179.087L107.333 179.406L109.938 179.194L110.789 178.982L111.001 178.77L112.756 177.867L114.086 177.017L114.617 176.857L114.989 176.804L116.691 176.91L118.232 177.388H118.552L118.871 177.281L119.563 176.804L119.988 176.75H120.414L120.733 176.591L121.851 175.582L122.063 175.317L122.169 174.201L122.222 173.935L122.382 173.51L122.648 173.138L122.754 172.979L123.286 172.182L123.392 171.97L124.19 171.014L124.561 170.429L124.721 170.164L125.359 169.632L125.572 169.367L125.678 169.101V168.89L125.624 168.359L125.518 168.093L125.412 167.881L125.04 167.562L123.125 166.659L122.115 166.5L120.148 166.446L119.616 166.286L119.085 166.074L117.277 164.958L117.065 164.746V164.694V164.641L117.118 164.535L117.172 164.375L117.278 164.163L117.332 163.951L117.278 163.42V163.207L117.384 162.995L117.49 162.73V162.517L117.437 162.198L117.225 162.144L117.065 162.198L116.693 162.41L116.427 162.569L116.107 162.676H115.576L115.31 162.569L115.098 162.41L114.832 162.144L114.459 161.72L113.556 161.029L113.024 160.763L112.652 160.657L112.386 160.763L111.642 161.083L111.535 161.189L111.057 161.879L110.95 162.038L110.684 162.144L110.418 162.198L109.301 162.144L109.035 162.198L108.078 162.516L107.813 162.569L106.962 162.622L102.016 163.525L96.5393 163.154L93.4552 161.348L92.9235 160.605L92.9767 160.393L93.083 160.181L93.1894 159.969V159.595L93.083 159.064L92.605 158.055L92.127 157.417L90.6376 156.09L90.318 155.505L90.1058 155.027L90 154.124V153.806L90.0532 153.54L90.1595 153.38L90.319 153.221L90.9045 152.849L91.0645 152.69L91.1177 152.478L91.2241 151.947L91.2778 151.734L91.4373 151.522L91.8632 151.045L92.1291 150.673L92.2349 150.514V150.248V149.769V149.397L92.2886 149.132L92.395 147.644L92.3412 146.263L92.6071 145.306L92.9267 144.51L92.9799 144.085L92.9267 143.819L92.7672 143.66L92.5545 143.394L92.2886 143.023L91.969 142.172V141.747L92.0227 141.428L92.1823 141.269L92.395 141.162L92.6608 141.109H92.9267L93.1388 141.215L93.351 141.321L93.6706 141.64L93.8301 141.746L94.0423 141.852L94.255 141.906L94.5208 141.852L94.7867 141.693L95.1058 141.321L95.2121 141.055L95.1058 140.79L94.9999 140.524L94.8936 140.099L94.9999 139.78L95.1595 139.409L95.7975 138.558L95.9571 138.399L96.1171 138.239L96.6489 137.868L98.084 136.434L98.2962 136.38L98.8816 136.326L99.3076 136.167L99.4671 135.955L99.5208 135.69L99.465 135.481L99.0927 134.897L99.039 134.685L98.9332 133.622L99.039 133.357L99.2517 133.091L100.103 132.454L100.263 132.135L100.316 131.869L100.37 130.807L101.539 130.064L103.347 128.046L104.304 127.249L105.208 126.292L106.378 124.487L106.643 123.902L106.856 123.317L106.962 122.946L107.44 121.937L107.546 121.618V121.034V120.503L107.652 120.237L107.864 119.547L108.024 119.121L107.971 118.59L109.46 116.678L110.203 116.093L111.267 115.615L111.586 115.403L111.852 115.138L113.182 112.801L113.394 112.164L115.415 108.552L115.627 107.915V107.278L115.523 106.853L115.363 106.428L115.204 106.109L114.938 105.79L114.087 104.887L113.875 104.622L113.715 104.25L113.343 102.71L113.183 102.391L112.705 101.382L112.599 101.011L112.493 97.5583L112.332 97.0803L111.907 96.6028L111.748 96.4966L111.535 96.3373L111.269 96.1774L110.897 96.0711L110.525 96.0175H110.1L109.674 96.0711L108.93 96.2831L108.61 96.3898L107.813 97.0803L107.121 98.2488L106.59 98.8336L106.058 98.8867L105.473 98.6748L104.729 97.6661L104.516 96.8158L104.729 95.8597L105.367 95.063L106.376 94.3195L117.543 89.4335L120.308 88.6905L122.86 88.265L124.296 89.9121L124.508 93.0989L125.094 94.2674L126.476 95.9145L131.156 99.207L132.325 99.8443L133.07 100.11L133.761 100.056L134.239 99.7907L134.611 99.2595L135.249 98.7284L135.941 98.4628H136.419L136.844 98.7821L137.27 99.5251L137.59 101.119L138.121 102.606L138.388 104.144V106.269L137.643 108.34L136.899 109.615L136.208 110.252L135.41 110.784L130.093 112.748L129.667 113.014L129.507 113.279L129.453 113.599L129.56 114.024L129.879 114.449L129.933 114.502L135.942 116.415H136.261L137.058 116.095L138.122 116.042L141.1 116.627L143.333 117.318L143.919 117.849L143.973 118.114L143.866 119.602L143.92 120.027L144.132 120.717L144.344 121.037L144.556 121.249L144.982 121.408L145.834 121.514L146.365 121.568L147.641 121.462L149.928 121.515L154.767 119.444L155.458 119.284L157.373 119.338L157.851 119.284L158.171 119.231L158.383 119.125L158.595 118.966L159.393 118.222L159.871 117.797L160.296 117.638L160.774 117.478L161.784 117.319H162.156L163.166 117.584L163.432 117.478L163.645 117.319L163.698 117.107L163.858 116.841L164.07 116.576L164.442 116.256L164.814 116.203H165.026L165.612 116.468L167.207 114.875L167.792 114.504H168.005L168.27 114.557L169.068 114.663L170.504 114.504L173.8 112.167L174.651 111.901L181.138 110.733L183.105 109.99L184.223 109.405L184.595 108.927L185.18 107.706L185.02 106.537L185.498 106.272L186.881 105.9L188.157 105.316L191.401 102.182L192.677 101.332L194.06 100.907L195.017 100.801L195.868 100.589L197.038 99.6324L199.59 96.8174L200.442 96.2326L214.213 90.9749L219.053 89.8064L221.445 89.9126L226.231 91.0811H228.57L229.634 90.7619L231.655 89.5934L232.718 89.1685L235.217 89.0623L237.77 89.2222L239.577 89.6471L242.129 91.4524L243.885 92.2491L244.842 92.6745L245.586 92.1965L246.596 91.8778L248.351 91.0275L250.956 90.6026L253.189 89.646L259.676 89.1149L262.069 88.478L262.707 88L262.812 88.1599L263.238 90.072L262.121 92.1434L256.326 95.967L253.243 98.5144L252.127 98.9919L250.85 99.3631L249.787 99.7886L249.521 100.373L249.947 100.904L250.533 101.967L250.426 102.552L249.894 104.251V105.101L250.32 110.041L250.108 110.572L249.842 110.943V111.368L250.586 112.006L251.171 112.165H252.661L254.575 112.802L257.128 113.174L258.085 113.917L258.457 114.926L258.563 118.325L259.041 119.441L261.7 123.53L262.125 123.849L262.179 124.221L261.753 125.177L261.275 125.602L258.297 127.355L257.553 128.098L257.287 129.001L258.563 132.507L259.148 132.932L260.424 132.561L261.647 132.507L262.605 133.463L263.348 134.791L264.252 137.447L264.412 138.774L264.306 140.049L263.774 141.271L263.243 141.642L262.499 141.908L261.913 142.279L261.967 142.916L262.392 143.129L264.679 143.023L265.583 144.775L262.392 150.458L262.287 152.689L267.019 153.167L269.411 153.804L270.687 153.963L271.91 153.804L272.973 153.963L273.399 154.866L273.771 156.194L274.781 157.362L276.057 157.893H277.174L279.62 157.574L280.152 157.628L281.747 158.159L282.705 158.212L282.971 158.319H283.077L283.715 158.265L284.034 158.531V159.752L284.194 160.178L284.672 160.549L285.098 160.868H285.629L286.373 160.496L287.703 159.381L288.34 159.062L289.457 158.796L290.043 158.211L290.575 157.149L291.318 156.193L292.594 155.981L293.711 156.724L295.626 159.22L297.009 160.123L301.795 160.282L302.752 160.867L302.912 161.769L302.699 162.779L302.593 163.894L303.125 165.01L305.412 168.091L305.624 169.578L304.189 170.8L302.221 170.694L298.711 168.889L297.648 169.314L297.542 170.11L297.914 173.085L297.754 174.253L297.063 175.316L295.468 177.175L294.191 179.725L293.66 180.202L292.916 180.414L292.169 180.734L291.529 181.159L290.944 181.743V183.443L293.974 190.879L294.08 192.313L293.442 194.597L293.23 195.925L293.39 196.615L294.028 197.731L294.134 198.474L293.868 199.218L293.336 199.961L289.348 204.05L286.796 205.272L286.424 206.175L286.636 206.653L287.008 207.131L287.168 207.927L286.849 208.778L285.679 210.106L285.253 210.849L284.456 214.142L284.03 215.204L281.904 217.913L281.478 219.241L282.487 220.303L280.52 221.312L281.904 222.746L284.828 224.074L287.433 224.711L292.378 225.189L294.559 224.976L298.387 223.437L299.291 223.277L302.588 224.605L303.491 224.711L305.672 224.445L311.733 225.933L312.265 226.252L312.796 226.783L313.382 227.951L313.648 228.323L314.923 229.013L315.562 228.482L316.2 227.526L317.475 226.889L318.432 227.154L322.367 229.12L322.793 229.545L323.218 230.076L323.697 230.395L324.494 230.289L325.026 229.811V228.483L325.398 227.899L326.621 227.739L331.407 228.536L330.928 229.439V230.341L331.248 231.192L331.939 231.935L332.897 234.059L332.259 236.661L330.026 241.495L329.866 243.035L330.132 244.151L331.195 246.541L331.939 250.259L332.577 251.375L334.916 252.597L340.34 252.703L342.787 253.446L343.744 254.189L344.222 254.72L344.434 255.092L344.274 255.676L343.796 255.888L343.158 256.048L342.467 256.42L341.723 257.322L341.138 258.438L340.765 259.606L340.553 260.562L340.607 261.678L340.873 263.112L341.298 264.494L341.99 265.344L343.266 266.247L345.498 269.328L347.04 269.912L347.732 269.541L349.805 267.947L350.656 267.416L352.677 266.725L353.581 266.194L354.378 265.397V265.344L355.176 264.176L355.974 263.433L356.931 263.061L358.26 262.955L359.59 263.22L360.547 263.805L362.514 265.398L362.834 266.514L363.419 267.523L364.27 268.108L365.388 267.948L366.823 267.629L369.96 268.214L371.608 268.054L374.799 267.152L376.341 266.409L377.298 265.399V265.346L380.01 263.965L383.413 260.406L385.965 256.635L388.358 254.51L391.123 253.182L397.292 251.429L398.461 250.898L401.652 248.668L402.449 248.031L403.301 247.553L404.205 247.234L406.491 247.659L406.863 248.721L407.075 252.014L407.607 252.705L408.458 253.236L409.202 254.458L409.68 255.839L409.575 256.796L410 257.592L409.627 258.386Z" fill="white"/>
</svg>
