<svg width="500" height="500" viewBox="0 0 500 500" fill="none" xmlns="http://www.w3.org/2000/svg">
<circle cx="250" cy="250" r="250" fill="#1592ED"/>
<path d="M360.904 345.107L361.005 348.307L355.205 355.107L350.505 359.307L348.306 360.107L346.005 359.807L345.904 358.907L346.705 357.208L347.104 354.907L345.003 356.807L343.503 359.006L341.804 360.706L338.904 361.006L339.205 360.006L339.705 356.706L331.104 365.206L328.604 369.105L326.104 369.706L323.604 369.105L322.404 367.504L322.304 365.403L321.804 362.903L321.104 360.603L319.904 359.303L320.804 371.403L319.904 374.004L316.505 379.105L315.806 381.305V387.305L315.406 388.905L312.606 393.805L295.707 412.105L288.308 417.605L284.707 421.004L282.808 422.305L280.507 423.105L277.808 423.305L270.108 422.305L268.209 421.703L267.509 420.203L266.804 407.808L267.703 406.707L269.203 406.007L270.402 404.207L271.003 402.007L270.604 399.907L273.503 397.207L275.503 393.507L276.604 389.407L277.205 385.207L277.104 382.507L276.503 380.507L274.703 376.507L274.403 374.207L274.903 372.707L275.703 371.107L276.304 368.707H275.604L274.604 369.907L273.503 371.007L272.503 372.308L272.203 373.909L272.703 375.909L274.403 379.709L274.703 382.209L274.403 387.81L273.903 389.411L270.302 394.111L268.501 399.611L265.9 403.009L263.1 404.009L261.6 400.81L262.4 398.111L264.4 394.81L266.001 391.111L265.602 386.911L261.602 393.711L259.802 397.711L259.001 402.011L259.802 411.313L258.403 414.313L253.703 415.413L250.304 414.013L248.003 410.413L246.804 405.613L246.703 400.813L249.403 386.613L248.403 382.511L245.802 389.411L244.602 384.211L246.102 378.911L249.403 374.811L253.703 373.111L257.804 373.311L259.003 373.111L260.003 372.311L259.604 371.811L258.405 371.509L257.005 371.409L256.106 371.109L255.505 369.909L254.905 369.609L254.304 369.809L252.503 370.409L251.503 370.509L250.703 370.81L250.003 370.411L249.203 368.711H248.403L247.503 370.813L244.203 375.613L241.403 378.011L241.003 381.313L241.703 387.711L241.602 391.111L239.501 406.811L238.501 409.811L237.001 411.911L235.802 412.311L234.102 412.709L232.602 413.209L232.001 414.109L231.802 415.008L231.201 416.008L230.6 416.809L229.999 417.109L226.898 417.309L225.398 417.109L221.298 415.409L215.898 414.809L214.499 413.809L215.898 411.508L217.199 410.707L218.598 410.008L219.699 409.207L220.499 407.707V406.607L219.999 405.506L219.398 404.506L218.798 404.107L216.598 407.107L215.298 407.506L214.697 404.607L214.896 400.607L214.697 399.006L213.197 395.405L213.096 393.805L213.697 392.203L214.896 390.203L216.396 388.403L217.596 387.703L219.596 387.504L221.796 386.605L223.396 385.105L223.796 382.504L219.596 385.203L218.995 382.903L218.495 377.303L216.495 373.202V371.303L217.096 369.502L219.296 365.901L220.896 364.202L222.997 363.202L225.798 362.803L227.997 362.103L229.896 360.403L231.296 358.103L231.995 355.803L231.495 356.603L229.894 358.203L229.495 358.903L228.894 359.603L225.995 360.103L223.894 361.103L221.195 361.002L220.094 361.502L217.094 365.502L216.794 366.103L215.394 367.203L214.794 369.805L214.693 375.203L214.993 376.603L216.094 379.203L216.294 380.403L216.594 381.203L216.993 381.703L217.193 382.203L215.693 385.103L215.493 385.603L214.392 387.403L207.292 392.203L205.792 394.504L202.292 402.403L201.092 404.004L199.392 405.504L197.292 406.504L194.991 406.703L191.89 405.703L190.79 404.004L190.29 401.605L189.09 399.004L188.79 401.305L187.59 401.105L186.09 399.405L185.09 397.305L188.29 395.105L192.79 392.706L197.29 389.605L200.79 385.206L201.89 378.905L202.79 377.905L203.89 376.905L204.79 375.706L205.29 374.506L205.489 373.406L205.59 370.906L206.09 370.406L207.09 369.805L207.989 368.805L208.09 367.004L205.89 368.305L204.79 369.805L203.188 373.906L199.989 379.406L199.09 381.805L197.489 384.805L195.59 386.504L193.489 387.805L186.688 394.504L183.688 396.004L180.888 395.504L180.388 392.204L183.588 387.904L189.987 381.803L192.487 377.303L194.386 372.103L195.286 366.603L194.985 361.002L193.086 357.103L192.686 354.904L193.686 352.803L195.086 350.603L197.485 342.904L198.184 342.004L199.384 341.805L200.784 342.004V341.106L199.483 339.706L197.593 327.807V326.408L198.194 324.807L198.994 324.006L199.904 323.808L200.705 323.108L200.806 321.308L196.606 323.409L195.005 323.009L194.106 320.409L193.306 323.209L195.005 334.209V341.509L194.306 343.509L191.505 346.709L190.904 348.509L190.104 351.709L188.304 354.608L185.703 356.808L183.003 357.608L182.703 356.709L184.003 354.709L186.703 351.409L189.102 346.308L188.501 344.007L187.102 344.308L185.703 346.308L184.804 350.408L184.003 351.708L182.903 352.809L181.802 353.208L180.302 352.908L179.403 352.208L178.602 351.309L177.703 350.609L175.403 350.21L174.802 351.21L175.102 356.21L175.001 359.21L174.501 361.609L173.701 363.508L167.6 374.109L164.3 378.109L160.5 380.008L158 380.309L156.198 381.208L155.098 383.107L154.698 386.506L153.698 387.906L151.5 388.706H149L147.3 387.706L144.8 390.506L143.1 391.406L141.6 390.406L138.6 385.506L138.1 383.808L138 381.808L138.698 367.506L141.398 353.006L141.098 343.506L141.498 342.006L141.904 341.308L143.404 339.608L143.904 338.608L145.704 328.608L145.104 320.909L145.704 319.608L149.904 320.909L152.604 320.808L153.804 318.308L154.804 314.608L154.404 312.808L152.204 311.808V311.007L155.204 309.507L156.306 307.308L156.406 301.007L156.606 299.108L157.707 295.507L157.906 294.108L158.508 292.209L160.707 289.709L161.207 288.108L161.008 282.808L160.508 280.707L158.906 277.507L158.406 275.608L158.806 273.808L159.806 273.207L161.006 273.406L162.306 273.906L163.705 273.806L165.104 272.705L168.705 267.705H166.205L167.404 265.806L167.804 263.606L167.702 255.005L167.902 253.905L168.302 252.604L170.302 249.705L171.001 248.104L171.501 245.705L171.2 243.604L167.802 242.003L167.2 240.503L167.4 238.703L168.7 237.602L174.201 240.102L175.1 239.703L175.6 239.003L176.499 238.503L177.398 237.804L177.699 236.604L177.098 235.604L176.098 235.003L174.997 234.604L174.298 234.003L173.898 232.403L174.298 226.703L175.197 225.103L176.896 224.802L178.296 224.103L178.396 221.103L179.997 221.603L181.598 222.203L182.997 223.203L184.197 224.603L182.096 216.203L180.995 203.103H181.096L189.197 209.001L191.596 210.103L194.495 210.403L196.394 210.802L198.695 212.403L200.495 214.302L201.296 214.903L202.195 215.203L203.394 214.603L207.394 207.302L208.794 202.802L209.193 193.302L209.794 188.701L209.693 185.001L209.993 182.803L210.993 180.603L217.193 173.603L218.892 169.403L219.592 162.703L221.092 158.703L221.292 156.305L221.19 154.203L217.89 148.203L216.89 146.603L216.491 145.803L215.991 144.501L215.792 142.701L215.892 140.701L217.892 135.501L217.792 122.603L219.892 112.703L219.693 105.603L218.392 100.403L213.292 90.303L215.19 88.7009L218.991 85.601L222.19 83.5L225.19 82.699L228.69 83.5L231.69 85.8009L234.292 88.5L237.491 90H240.592L242.991 87.8989L243.991 85.599L244.991 82.4979V79.599L245.991 77.699L248.39 76.199L250.59 76H251.29L252.489 76.8989L254.388 79L256.588 81L264.088 90.699L265.588 92.8009L266.788 93.901L267.388 95.101L270.288 97.601L275.588 103.701L276.189 104.303L278.088 105.603L278.788 106.303L279.388 107.701L280.288 110.803L280.888 112.001L281.288 113.103L281.186 115.903L281.686 117.103L282.386 118.302L286.886 131.201L287.386 135.901L286.286 140.801L289.184 143.199L291.286 145.399L291.684 146.199L291.786 147.199L291.586 147.699L291.086 150.801L291.186 155.901L290.686 157.801L288.487 160.301L286.886 161.801V164.401L287.886 169.901L289.686 175.001L291.987 178.802L293.186 180.103L294.886 181.501L296.886 182.701L298.987 183.101L300.788 183.999L302.686 185.101L310.788 188.101L313.588 189.999L316.088 193.199L322.487 203.199L321.088 208.801L317.588 215.999L316.888 218.499L315.788 223.601L315.888 227.201L317.688 235.401L319.888 237.001L320.588 237.901L321.088 239.001L321.788 240.302L322.888 241.701L325.388 243.501L328.388 246.501L329.388 248.103L330.489 250.603L332.388 253.903L333.989 255.503L334.888 257.305V259.605L334.989 260.705L334.888 261.806L335.189 262.907L336.088 264.407L338.487 266.806L340.987 269.907L341.386 273.407L338.786 278.306L338.485 278.407V278.907L337.586 281.207V284.207L338.786 287.007L340.786 290.407L341.586 293.907L340.886 298.707L339.186 302.907L337.886 304.307L336.286 305.205L337.586 307.705L338.086 308.105L338.586 309.305L338.886 310.105L338.586 315.305L339.286 316.503L339.386 317.003L339.586 317.805L339.086 318.805L338.186 320.003L333.987 324.305L333.386 325.105L332.786 327.004L333.886 328.305L335.886 329.405L336.386 330.205L336.686 330.807L336.788 332.607L338.888 334.807L341.388 336.205L342.188 336.506L344.588 337.107H350.688L351.79 337.506L352.489 337.807L353.689 339.107L354.888 339.707L360.904 345.107Z" fill="white"/>
</svg>
