<svg width="500" height="500" viewBox="0 0 500 500" fill="none" xmlns="http://www.w3.org/2000/svg">
<circle cx="250" cy="250" r="250" fill="#1592ED"/>
<path d="M369.036 154.167L369.429 157.527L372 167.217L367.06 168.006L364.885 170.972L364.685 175.523L365.28 180.467L366.069 183.634L366.857 184.823L367.056 186.205L365.476 189.961L363.5 192.534L355.597 199.456L347.693 210.334L347.891 212.112L349.669 216.857L350.062 219.43L351.445 225.363L354.802 230.108L356.978 234.263L355.002 239.207L352.827 240.196L350.062 239.996L347.887 240.39L346.899 242.963L348.282 245.334L354.603 250.479L356.778 252.656L358.554 257.401L359.149 261.952L357.962 281.334L356.579 284.894L353.022 288.849L338.403 300.123L335.832 304.869L334.252 314.363L332.476 318.318L329.117 321.878L324.177 325.438L321.808 327.811L322.796 330.778L328.129 336.118L333.857 340.469L336.427 343.04L337.415 346.205L336.427 352.733L336.627 354.911L339.591 364.008L340.183 368.559L340.383 374.099L341.57 383.393L344.335 393.281L345.915 403.37L344.139 413.457L342.558 416.225L341.963 416.819L340.778 416.423L329.516 419.592L316.873 419.196L312.326 420.778L295.927 431.656L286.64 436.205L275.576 435.813L269.648 437L267.078 436.605L264.509 435.022L263.521 433.242L262.927 431.067L257.987 423.551L256.011 422.167L254.235 421.969L251.271 413.267L248.507 403.18L248.112 402.389L247.324 401.005L245.148 398.434L244.16 396.258L242.975 392.694L241.592 390.519L240.803 389.727L239.616 389.134L237.245 388.541L216.301 388.936L208.003 388.145L200.495 386.563H199.509L196.745 387.156H195.954L194.966 386.958L192.99 384.19L179.359 357.69L178.571 352.545L173.236 344.239L170.867 341.867L170.077 341.668L169.289 341.272L168.696 340.679L168.301 339.89L168.101 338.701L168.696 335.934L169.484 333.956L169.285 332.967L168.891 331.585L165.728 328.023L164.145 326.439L161.97 324.067L160.194 320.505L158.218 315.561L157.625 312.796L157.426 308.445L157.625 306.863L156.043 301.918L155.254 295.783L155.849 293.212L155.649 292.223L155.055 291.037L153.474 288.857L152.686 287.477L152.091 286.092L151.103 283.126L149.722 280.159L145.77 274.423L143.794 272.446L142.018 271.259H140.831L140.042 270.864L139.254 270.666L137.278 269.08L136.684 268.688L134.115 267.497L133.52 266.311L132.927 263.937L132.139 258.795L130.163 253.455L129.569 252.266L127.593 247.522L127 244.555L127.988 237.237L133.716 231.7L142.212 221.02L148.534 208.366V200.848L146.758 195.904L142.807 189.971L141.819 187.793L141.03 185.815V184.826L141.23 183.64L141.823 181.065L145.379 172.762L151.109 163.661L159.405 153.973L172.248 143.293L197.934 128.065L199.517 120.153L200.109 93.6554L202.285 91.0823L203.073 89.6999L205.249 75.8555L204.261 67.7426L205.642 63H210.384L212.557 63.5932L217.497 65.3713L219.472 67.1492L220.46 68.5337L221.055 71.1047L221.253 72.4893V74.2672L221.055 75.8514V77.4337L221.253 79.0158L221.847 81.9824L222.636 83.367L223.624 84.3559L226.787 86.3337L228.368 86.9269L230.144 87.3226L232.515 87.5203L241.206 85.7443H242.789H244.17L245.358 85.9421L246.545 85.3486L247.533 84.3598L248.914 81.5908L249.902 77.6353L253.065 73.6798L258.793 71.9038L259.188 75.0682L271.832 89.7037L275.191 90.0953L277.759 89.8976L279.342 89.5019L280.922 88.9087L282.11 87.9198L283.297 86.7332L284.285 85.9421L285.074 85.3486L286.261 84.9532L287.642 84.7555L289.025 85.3486L290.406 87.1268L293.765 94.8379L297.322 99.1892L299.1 100.574L300.681 101.361L302.856 101.756L303.844 102.152L304.832 103.339V105.518L304.437 107.294L300.286 117.183L299.298 120.351L298.705 123.318V124.504L299.298 125.691L300.681 127.076L303.445 128.856L305.421 130.238L307.199 132.416L309.963 137.16L310.951 138.349L314.114 140.327L320.042 141.116L338.217 145.861H340.393L341.973 144.872L343.161 143.685L344.348 142.894L345.729 142.498L347.705 142.894L350.076 143.883L354.816 146.85L357.582 147.443L359.951 147.645L361.534 147.249L362.915 147.447L364.691 148.238L366.667 149.622L367.855 151.204L369.036 154.167Z" fill="white"/>
</svg>
