<svg width="500" height="500" viewBox="0 0 500 500" fill="none" xmlns="http://www.w3.org/2000/svg">
<circle cx="250" cy="250" r="250" fill="#1592ED"/>
<path d="M224.365 137.698L225.351 141.304L226.409 144.414L224.575 144.132L225.14 145.192L226.903 146.889L227.89 148.515L228.243 149.857L230.218 153.959L232.334 157.352L232.616 159.261L232.687 161.311L233.181 163.503L234.31 165.483L236.002 167.25L237.837 168.593L239.53 169.582L240.376 168.946L240.729 168.311L242.28 163.997L242.421 163.785L243.408 163.573L247.712 165.34L248.77 165.976L249.334 167.319L249.263 168.945L248.629 170.288L247.359 170.854L247.147 171.702L248.064 173.54L252.437 179.622L252.79 180.257L252.861 180.752V181.53L253.074 182.59L253.849 184.217L253.991 185.206L253.919 185.701L253.567 186.549L253.495 186.973L253.567 187.752L253.919 187.823L254.272 187.752L254.625 187.964L255.824 188.53L255.964 188.883L256.246 189.944L257.445 192.984L257.798 193.479L258.079 193.904L258.503 194.964L258.715 196.025L258.362 196.519L258.15 196.732L255.822 198.287L253.424 202.529L252.86 203.872L253.989 208.114L252.084 208.396L252.719 209.597L253.777 210.445L254.623 211.506L255.047 212.708L255.54 213.768L257.586 215.536L258.291 216.455L258.503 217.303V218.364L258.574 219.495L259.139 220.768L259.915 221.829L273.884 234.98L275.154 235.828L277.13 236.748L278.047 237.313L278.753 238.162L279.177 239.504L281.081 242.473L281.927 245.019L282.491 246.221L283.621 247.422L284.75 248.058L286.02 248.483L287.007 249.118L287.501 250.391L287.429 251.452L287.148 253.36L287.36 254.492L287.994 255.412L295.26 262.34L296.6 263.119L298.223 264.461L301.185 268.845L303.09 270.187L302.384 270.966L302.031 271.955L302.172 272.733H304.429L304.5 273.44L304.076 274.218L303.724 274.572L304.853 276.552L306.052 277.684L307.462 278.178L311.624 278.249L313.317 278.744L314.868 279.733L316.42 281.288L317.337 282.631L318.748 285.6L319.665 286.732L320.159 287.934V289.418L320.511 290.691L321.852 291.327L322.627 291.893L323.193 293.095L323.898 295.64L322.84 294.862L321.852 294.579L321.218 295.005L321.006 296.278L321.359 297.409L322.136 297.834L322.912 298.188L323.547 298.895L323.334 299.883L322.276 301.016L320.937 301.863L319.667 302.216L318.68 303.703L317.975 305.398L318.115 307.025L320.655 309.005L321.079 309.994L321.713 312.397L322.843 314.094L325.805 316.143L327.004 317.84L327.357 318.688L327.568 319.536L327.498 320.314L327.216 321.303L327.287 322.223L327.781 323.142L332.93 330.141L333.635 331.768L333.494 332.687L332.649 334.596L332.789 335.515L333.847 338.131L335.118 344.564L335.611 345.908L337.234 347.039L338.645 346.05L341.114 342.161L346.263 338.06L347.392 335.939L348.098 332.263L348.803 330.849L350.567 329.364L350.92 332.405L352.471 333.959L354.447 335.233L355.929 337.425L356 339.051L355.153 342.94L354.73 346.969L354.306 348.383L351.908 351.211L350.85 352.838L350.357 354.605L350.144 356.444L350.216 358.565L349.792 359.343L347.816 361.605L347.111 362.1L345.771 362.312L345.206 361.887L344.713 361.251L343.726 360.827L338.506 360.12L337.024 360.191L335.261 361.039L334.555 362.525L333.991 364.292L332.862 366.06L331.875 366.907L331.241 367.261L330.535 367.332H329.477L328.559 367.05L327.572 366.625L326.586 366.484L325.809 367.191L326.09 368.393L328.348 371.716L328.912 373.483L328.631 375.037L327.644 378.501L327.715 380.693L328.279 384.442L328.139 385.996L325.458 394.975L325.246 397.096L325.67 401.832L325.529 406.923L327.504 420.214L327.645 424.668L326.868 428.84L324.682 431.456L324.399 429.547L323.13 428.133L321.437 427.143L319.674 426.365L318.051 427.214L316.711 427.779L313.678 428.415L313.113 428.84L313.042 429.547L313.395 431.031L313.254 431.81L312.83 432.304L312.053 432.73L311.982 432.87L311.77 433.152L311.559 433.647L311.418 434.071L311.629 434.354L312.194 434.637L312.687 435.061L312.9 435.556V436.898L312.687 437.465L312.123 437.677L310.853 437.182L307.96 435.344L306.409 434.777L304.505 434.424L303.447 434.637L300.484 439.019L299.214 440.293L297.732 441H297.092L297.021 440.152L297.233 438.313L297.021 437.181L296.174 434.848L295.61 433.646L295.186 433.222L293.494 432.089L293.212 431.948L292.647 431.454L291.942 430.676L290.319 428.483L289.614 427.069L288.909 425.514L287.639 423.322L287.215 422.897L286.297 422.262L285.944 421.767L283.123 415.757L282.911 415.404L281.572 414.131L280.795 413.141L280.301 412.294L279.596 410.526L279.384 410.173L279.172 409.891L278.96 409.678L278.114 408.899L277.197 408.264L275.714 406.921L275.433 406.496L275.292 406.071L275.363 404.87L275.292 404.235L275.08 403.81L274.939 403.528L274.728 403.386L274.516 403.174L273.811 402.961L273.458 402.89L271.482 401.123L269.084 400.416L268.591 399.638L268.45 398.931V398.436V398.082L268.732 397.517L268.803 396.81L268.943 396.527L269.084 396.315L269.578 395.89L269.79 395.677L269.931 395.183V394.83L269.79 394.476L269.156 393.487L269.014 392.851L268.943 392.073L268.873 391.507L268.66 391.082L268.096 390.021V389.527L268.167 388.961L268.096 388.607L267.955 388.113L266.826 385.639L266.121 384.365L265.909 383.518L265.556 380.618V378.992L265.768 378.709L265.909 378.285L265.98 377.578L265.839 374.679V374.325L265.98 374.043L266.121 373.76L266.261 373.548L266.402 373.266L266.543 372.913L266.614 372.488V371.286V371.004L266.755 370.722L266.895 370.44L267.037 370.227L267.248 370.015L267.53 369.732L267.742 369.238L267.954 368.39V367.895V367.471L267.742 367.117L266.965 366.128L266.754 364.432L266.471 363.725L264.779 360.968L264.426 360.261L264.568 359.483L268.166 358.916H272.891L273.526 358.846L273.95 358.633L276.49 357.926L280.017 357.785L280.651 357.926L282.274 359.127L282.556 359.268L282.908 359.41L283.543 359.551L283.824 359.692L284.601 360.046L285.447 360.327L285.87 360.399L286.223 360.258L286.576 359.763L286.788 359.198L287 358.986L287.281 358.772L287.634 358.56L288.199 358.418L288.623 358.206L289.681 357.429L290.668 356.934L291.021 356.509L291.161 356.155L290.949 354.459V354.247L290.808 353.964L290.668 353.752L289.539 352.904L288.269 351.702L288.056 351.49L287.916 351.208L287.704 350.642L287.563 350.359L287.351 350.219L287.139 350.006L286.858 349.865L286.646 349.652L286.575 349.299L286.715 348.663L286.787 348.238L286.715 347.814L286.575 347.178L286.504 346.896L286.363 346.614L286.151 346.401L286.01 346.189L285.798 345.977L285.233 345.694L285.022 345.553L284.809 345.341L283.681 343.644L282.904 342.796L282.623 342.655L281.776 342.23L281.142 342.09L280.861 341.948L280.579 341.807L280.367 341.666L280.155 341.453L279.943 341.241L279.872 340.959L279.66 340.324L279.307 337.142L278.813 335.303L278.673 334.243L278.461 333.676L278.32 333.464L278.108 333.323L277.827 333.394L277.05 333.748L276.697 333.819L276.416 333.891L274.159 333.749L273.525 333.609L273.172 333.467L272.96 333.326L272.678 333.185L272.537 332.972L272.397 332.69L272.185 332.408L271.761 330.853L271.62 330.641L271.268 330.146L271.056 329.934L270.632 329.509L270.138 329.227L269.857 329.085L268.375 328.591L268.093 328.45L267.812 328.309L267.671 328.097L267.53 327.814L267.389 327.178L267.177 326.754L266.824 325.764L267.177 323.715L266.401 323.502L263.014 325.057L262.027 325.27H261.393L261.181 325.057L258.43 322.301L257.513 321.594L257.161 320.958L256.596 320.463L255.961 320.038L255.185 319.826L254.409 320.321L254.197 318.341L253.985 318.059L253.703 317.776H253.491L253.351 317.847L252.504 318.06L252.08 318.131H251.657L250.811 317.99L250.387 317.708L250.034 317.355L248.764 315.728V315.516L248.976 315.021V314.596L248.835 313.96L248.623 313.607L248.342 313.325L246.859 312.758L245.237 310.92L242.487 307.385L242.063 306.607L241.922 305.971L241.781 304.557L241.569 303.284L241.71 302.224L241.639 300.951L240.228 299.183L240.087 298.83V298.264L240.158 297.839L240.229 297.132L240.088 296.707L239.948 296.426L238.96 295.719L238.467 295.224L238.043 294.375L237.691 293.81L237.056 293.031L236.844 292.537V292.184L237.056 291.547V291.194L236.915 289.426L237.128 288.366L237.199 287.659L237.128 287.305L237.056 287.023L235.293 284.902L235.08 284.477L234.94 284.124L234.516 281.084L234.587 280.377L234.728 279.882H235.08H235.363H235.715L235.927 279.811L236.208 279.598L236.35 279.245L236.561 278.891L236.702 278.184L236.561 277.69L236.421 277.195L236.068 276.63L235.997 276.205L236.068 275.851L236.28 275.638L236.773 275.426L237.197 275.143L237.338 275.073L237.619 274.507L237.691 274.012L237.832 273.659L238.043 273.376L238.325 273.235L238.607 273.164L238.96 272.952L239.665 271.75L239.877 271.184L239.805 270.831L239.734 270.548L239.31 269.77L237.971 265.882L238.957 264.396L239.029 263.549L238.817 262.629L238.393 261.497L238.252 261.143L237.547 258.952L237.476 258.316L237.547 257.891L237.759 257.609L238.252 257.184L238.605 256.831L239.029 256.052L238.957 255.558L238.817 254.922L238.183 253.437L237.971 253.083L237.759 252.871L237.618 252.658L237.125 252.234L236.912 252.093L236.631 251.598L235.714 249.618L235.361 249.124L235.149 248.911L234.867 248.417L233.95 245.376L233.669 243.537L233.387 242.548L233.105 241.983L232.681 241.416L232.541 240.991L232.47 240.567L233.599 235.547L233.528 235.122L233.457 234.84L233.245 234.558L232.611 233.991L232.046 233.709L231.2 233.356L230.988 233.214L230.142 232.367L229.789 232.013L229.436 231.447L227.602 226.711L227.389 226.075L227.318 225.58L227.389 225.227L227.954 223.388L228.307 222.822L230.142 221.48L230.635 220.701L230.706 220.348L230.635 219.994L230.564 219.499L230.352 219.217L230.14 219.076L229.858 219.147L229.718 219.289L229.436 219.854L229.224 219.996L228.943 219.924L228.661 219.853L228.449 219.712L228.167 219.571L227.815 219.499H227.462L227.109 219.641L226.828 219.853L226.687 220.136L226.615 220.489V220.843L226.757 221.832L226.685 222.185L226.474 222.326L225.909 222.751L225.485 223.104L225.133 223.458L224.003 225.579L223.932 225.861L223.861 226.214L223.79 226.568L223.861 226.921L223.79 227.346L223.649 227.841L222.873 229.467L222.52 229.749L222.167 229.821L220.122 228.973L219.769 228.902H219.276L218.923 228.973L217.653 230.528L216.876 231.023L216.453 231.376L216.171 231.658L216.1 231.94L216.029 232.294V233.072L215.958 233.567L215.676 233.779L215.394 233.851L214.689 233.779L212.925 232.507V231.446L213.067 230.951L213.207 230.526L213.278 226.991L210.528 219.781L210.035 217.872L209.894 216.599L210.175 216.033L211.233 214.619L211.446 214.125L211.939 212.428L212.151 210.448L212.01 209.388L211.798 208.681L211.374 208.327L210.809 208.115L210.385 207.762L209.962 207.055L210.033 206.276L209.962 205.569L209.75 204.934L206.082 197.227L205.87 196.308V195.673L206.294 194.612L206.647 194.117L206.928 193.692L207.705 192.985L207.986 192.632L208.268 192.138L208.621 191.077L208.902 190.652L209.255 190.227L209.608 189.733L210.595 187.471L210.806 186.764L210.947 184.643L211.019 184.218L211.23 183.652L211.936 182.379L212.288 181.178V180.329L212.077 179.694L211.724 179.199L211.3 178.845L208.055 176.443L206.715 174.888V173.474L206.855 172.413V170.08L206.503 168.453L205.797 166.192L205.233 165.343L204.599 164.99L204.034 165.061L203.61 165.414L203.186 165.839L202.975 166.264L202.693 167.112L202.34 167.466L201.776 167.536L200.999 167.183L200.575 166.689L200.294 166.122L200.222 165.628L200.363 164.355L200.292 163.577L200.011 163.082L198.74 161.88L198.317 161.456L197.752 161.173L196.341 160.608L195.424 160.042L194.79 159.335L194.085 158.415L192.885 156.223L192.461 155.092L192.391 154.172L192.884 153.04L193.096 152.475L193.237 151.909L193.308 151.061L193.237 150.566L193.308 150L194.013 147.031L193.942 145.263L193.449 143.142L193.378 142.507L193.449 141.8L193.378 140.88L193.025 139.961L192.672 139.395L192.178 138.9L191.192 138.122L191.051 137.628L190.91 136.921L190.628 136.355L190.205 136.001L189.711 135.789H188.934L184.843 137.062L180.682 139.465L179.764 139.819L179.058 139.89L177.648 139.395L176.308 139.183L175.462 138.97L174.756 138.688L173.698 137.981L172.922 137.699H172.357L171.793 137.911L171.299 138.336L170.735 138.83L169.676 139.396H169.112L168.618 139.043L168.337 138.548L167.984 137.347L167.702 136.781L166.221 135.085L165.656 133.812L164.597 130.771L162.341 126.671L162.411 125.115L164.669 122.569L164.457 121.297L163.328 119.671L162.411 118.185L162.27 116.983L162.622 116.064L163.328 115.286L164.386 114.437L167.701 112.246L168.125 111.185L167.984 110.76L167.702 110.335L166.856 109.628L166.575 109.134L166.081 107.932L165.728 107.437L165.376 107.013L162.835 104.679L160.155 102.7L156.839 99.5183L155.076 97.0438L154.583 96.1241L154.301 95.2763L154.16 94.6401L153.948 93.7923L153.736 93.3675L153.031 93.0853L152.607 91.7428L152.748 91.53L153.101 91.1765L154.159 90.4695L155.781 88.7734V88.1378L155.57 87.6429L155.076 87.4308L154.583 87.218L154.089 86.7238L153.665 85.9454L153.172 83.8244L152.819 82.9053L152.538 82.269L152.255 81.9869L151.832 81.4207L151.408 80.7137L150.843 79.2997L150.419 78.3805L149.926 77.7449L149.361 77.1787L149.221 76.6844L149.573 75.0577L149.645 73.5029L149.432 72.6553L149.151 71.9483L148.727 71.5227L147.81 70.9571L147.245 70.3914L146.681 69.7552L146.046 68.554L145.834 67.9184L145.905 67.2821L146.046 66.6473L146.187 65.7988L146.046 65.1625L145.622 64.5276L145.27 64.102L144 62.3345L152.958 61.4155L154.651 61.6983L156.274 62.4053L158.249 62.7588L159.66 63.2523L159.801 63.4658L159.872 63.7471L159.801 64.0299L159.589 64.242L159.518 64.5955L159.589 65.0204L160.012 65.656L160.365 65.7974L160.647 65.726L161.281 65.1597L161.563 65.019L162.48 64.7369L163.609 64.242L163.891 64.1013L164.103 63.8885L164.384 63.3943L164.525 63.1123L165.301 62.2638L166.219 61.4855L166.431 61.2733L166.643 60.707L167.208 60L168.971 62.6159L169.535 64.1006L169.748 64.3834L170.029 64.5955L170.311 64.6669L171.44 64.8076L172.217 65.0904L173.204 65.656L176.872 68.3433L179.269 69.6159L179.762 70.0408L180.044 70.5357L180.256 71.1713L180.397 71.4534L181.596 73.4329L181.737 73.7158L181.807 73.9979L181.879 74.2799V74.6334L181.807 74.9155L181.455 75.4104L181.384 75.6925L181.243 77.1779L181.314 78.3792L180.962 80.995L181.173 82.0555L181.879 83.7516L182.091 84.1765L182.796 86.0854L183.078 87.9236L183.29 88.772L183.502 89.1962L184.419 89.6218L184.631 89.7618L185.337 90.3288L185.618 90.3995L185.9 90.5409H186.324L186.958 90.9651L187.663 91.6721L189.074 93.7223L189.567 94.7828L189.92 95.8433L190.132 96.3383L190.414 96.8318L190.978 97.6108L191.19 98.0351L191.261 98.3886L191.049 99.3076L191.331 101.501L191.896 103.268L191.824 103.834L191.896 105.389L192.107 106.378L192.813 108.145L193.447 109.419L194.223 110.266L194.789 110.833L195.918 112.106L196.058 112.601L196.13 112.954L195.848 113.661L195.636 114.65L195.707 115.075L195.848 115.357L196.06 115.569L196.341 115.71L196.623 115.782L197.469 116.629L199.374 119.598L199.655 121.438L204.522 130.91L205.227 131.9L205.58 131.971H205.861L206.849 131.759H207.202L209.882 132.324L212.845 132.607L220.322 132.466L221.169 132.678L221.593 132.891L221.874 133.173L222.368 133.951L222.791 135.224L223.144 136.002L223.921 136.921L224.202 137.416L224.365 137.698Z" fill="white"/>
</svg>
