<svg width="500" height="500" viewBox="0 0 500 500" fill="none" xmlns="http://www.w3.org/2000/svg">
<circle cx="250" cy="250" r="250" fill="#1592ED"/>
<path d="M177.001 383.781L171.452 374.914L168.309 373.529L168.125 372.328L164.146 360.508L162.944 354.689L162.665 351.734L161 324.027L162.944 306.201L162.665 302.691L161.094 295.672L161.927 295.396L162.759 294.934L163.499 294.287L164.146 293.641L165.44 292.071L166.827 291.609L168.122 291.516L169.416 290.869L170.25 289.208V287.638L169.972 285.975V284.313L170.62 282.004L170.897 282.188L171.452 282.281L171.914 282.004L172.009 280.802L171.639 277.476L171.916 275.907L173.026 275.077L175.708 275.816L182.736 280.989L189.949 287.638L191.893 290.225L192.818 293.641L193.373 296.967L194.575 298.075L195.87 296.967L196.887 293.641L197.719 291.055L199.384 290.5L201.233 291.517L202.621 293.641L203.177 294.287L203.917 294.564H204.565L205.304 294.103L205.582 293.919L205.767 293.641L205.859 292.811V291.98L205.675 291.15L205.299 290.316L204.651 288.837L204.282 287.267L204.466 285.789L206.501 281.911L207.611 281.08L208.904 280.711L210.938 279.972L210.661 278.955L210.753 271.105L210.57 270.274L210.847 269.536L212.14 269.074L213.159 268.98L216.211 269.536L218.153 270.09L219.725 271.291L221.39 272.03L223.887 271.291L221.76 267.689L221.852 266.212L221.947 266.027L222.502 266.12L224.908 265.012L226.016 264.828L226.848 264.366L227.403 262.888L227.497 261.686L226.572 248.11L225.185 243.308L221.209 239.245L220.284 237.304L219.08 233.517L218.987 230.746L220.19 226.222L220.375 223.636L219.727 221.42L217.23 217.079L216.306 214.863L215.937 212.461L216.955 203.132L220.561 199.993L221.024 200.178L222.041 197.5L226.018 192.882L227.59 190.48L227.775 188.264L227.127 185.955L224.91 181.799L223.985 179.306L223.428 176.073L223.613 173.025L225 170.9L227.775 169.883L229.902 170.438L231.659 172.008L233.138 174.317L235.45 176.165L238.41 175.98L241.277 174.594L243.405 172.747L245.16 170.623L249.692 161.571L249.784 160.186L249.507 158.8V156.953L250.339 149.103L249.877 144.208L250.06 142.176L250.802 140.235L252.929 137.281L253.297 136.264L253.391 135.247L253.114 133.862L252.466 127.12L252.559 123.887L256.074 101.353L255.884 97.5652L255.422 96.2731L253.85 94.2412L253.202 93.0406L249.688 90.7317L247.931 77.155L248.025 72.9989L247.656 71.1518L247.193 70.3215L246.546 69.7664L245.529 68.6581L243.217 64.8715L242.292 62.931L241.735 60.8991L241.551 58.4055L241.734 55.5415L242.476 52.864L243.863 51.0169L246.82 50L248.949 51.2006L252.092 55.9118L253.201 57.2972L256.901 60.8982L257.548 62.4683L257.916 63.947L258.748 64.9638L260.783 65.2409L263.095 65.0562L266.609 63.209L268.458 62.5634L269.198 62.8405L269.755 63.6708L270.4 64.3173L271.51 64.0402L272.158 63.4852L272.712 62.6548L273.082 61.8237L273.36 60.9001L276.042 59.2376L281.405 59.0529L287.047 59.6994L290.563 60.9001L295.001 66.6263L297.313 67.7345L306.191 66.7177L309.336 67.4566L312.478 68.5649L316.271 69.4884L318.861 69.9502L325.242 73.3665L326.997 74.7519L328.569 76.8771L330.141 78.6309L332.083 78.7242L333.378 77.3389L334.025 78.5395L334.671 86.1129L335.318 88.2371L337.353 92.7617L338 95.8104L336.522 106.801L335.877 110.034L334.952 118.623L334.86 118.808L334.583 119.546L334.121 120.193L333.381 121.023L332.826 121.301L331.809 121.208L330.144 120.746L326.537 118.53H326.445L325.798 118.346L325.058 118.439L324.688 118.623L324.04 119.64V123.057L324.873 125.828L325.15 127.49L324.595 136.264L324.039 137.188L323.114 137.649L320.339 137.465L319.137 138.205L320.339 142.361L320.434 144.391L319.047 149.84L318.954 151.133L319.324 157.321L321.266 168.404L321.36 170.619L320.898 175.331L318.401 184.566L318.309 185.952L318.954 187.337L319.417 188.815L320.158 190.478L320.713 198.235L319.788 202.298L319.233 203.315L318.492 206.64L319.879 214.212L320.804 220.494L322.008 224.372L322.191 226.404L321.729 230.653L323.116 242.659L322.933 244.322L321.729 247.093L322.008 247.923L323.395 248.201L324.412 248.569L324.782 249.493L324.412 251.155L321.913 255.22L321.545 256.698V258.823L324.688 274.524V276.833L324.32 279.603L322.008 284.867L321.545 287.361L324.04 295.211L324.873 297.427L325.058 297.888V298.628L324.688 299.46L322.838 300.383L321.729 301.213L320.989 302.137L319.971 305.738L319.509 313.127L319.877 317.467L321.544 321.439L325.888 329.383L330.974 337.878L333.009 341.296L333.566 342.774V344.805L333.011 346.747L327.555 358.661L325.52 372.145L322.283 378.518L324.963 381.195L329.404 383.873L330.884 385.165L331.624 386.643L332.086 388.859L332.363 396.525L332.086 399.389L331.346 401.791L324.318 414.444L323.486 419.155L323.763 420.263L327.37 427.836L328.2 430.513L329.125 435.5L329.772 437.347L330.697 438.917L333.841 442.98L334.209 443.626L334.394 444.272L334.489 445.196L333.564 446.397L331.158 447.598L321.725 450L318.582 449.815L316.639 449.538L308.595 444.18L307.391 442.333L304.616 439.563L302.952 438.455L301.102 437.9L297.96 437.715L297.218 437.161L296.663 435.776L296.293 434.021L295.463 431.712L295.001 430.789L294.723 430.143L293.057 427.189L291.392 424.695L289.727 423.216L288.618 422.476L284.641 422.015L282.237 423.494L281.495 424.88L280.94 426.449L280.385 433.192L280.478 434.761L280.663 435.501L280.94 436.146L281.403 436.792L281.772 437.623L282.148 438.089L283.629 441.228L283.998 442.521L283.629 443.722L282.705 444.553L280.298 445.385L278.911 446.308L276.414 448.339L275.027 448.617L273.272 448.339L270.96 447.139L268.925 446.677L266.614 446.77L263.747 447.787L260.787 447.418L253.944 444.278L237.39 433.473L235.447 431.902L234.429 430.61L233.967 429.687L233.042 425.715L227.771 422.39L226.846 420.911L225.921 418.971L224.627 407.148L223.981 405.394L222.871 404.287L203.451 400.408L201.507 400.222L200.12 400.406L198.918 401.237L196.238 404.008L194.943 404.931L193.648 405.116L192.078 404.377L189.859 402.53L188.379 399.943L187.36 397.912L186.435 395.418L183.755 391.262L177.001 383.781Z" fill="white"/>
</svg>
