<svg width="500" height="500" viewBox="0 0 500 500" fill="none" xmlns="http://www.w3.org/2000/svg">
<circle cx="250" cy="250" r="250" fill="#1592ED"/>
<path d="M158.716 298.892L158.333 294.39L157.948 293.676L158.167 293.456L158.333 292.028L158.277 290.546L158.333 289.173L158.99 287.801L162.009 283.902L162.229 282.914L162.613 280.224L162.887 279.565L163.546 278.797L163.876 277.589L164.095 275.064L164.862 272.483L168.101 265.127L168.375 263.973L168.54 261.667L168.924 260.569L169.417 259.965L170.79 259.032L171.23 258.483L171.338 257.878L171.121 256.671V256.286L171.889 255.463L172.657 254.914L173.261 254.146L173.427 251.345L173.866 250.522L174.633 249.917L175.622 249.313L176.5 245.799L177.049 244.811L177.818 244.043L180.727 242.231L181.55 240.639L182.923 235.917L183.472 234.763L184.46 234.598L185.283 234.654L186.051 234.544L186.984 233.995L187.752 233.062L188.301 231.854L188.52 230.591V229.328L188.904 227.297L191.539 223.893L192.581 222.027L193.844 216.152L194.887 214.724L196.149 212.584L196.479 209.674L196.04 206.763L194.832 204.787L192.472 203.744L189.837 203.195L187.477 202.371L185.885 200.285L185.72 197.43L189.507 187.108L190.989 184.802L192.91 182.88L195.05 181.453L196.313 180.958L198.565 180.739L199.827 180.356L200.98 179.477L202.682 176.841L203.615 175.688L204.219 175.468H205.536L206.141 175.139L206.196 174.864L205.647 174.205L205.703 173.821L205.922 173.602L206.635 173.218L206.854 172.998L212.783 164.708L213.276 164.214L213.935 163.939L215.307 163.775L215.911 163.39L216.351 162.128L216.241 160.59L214.869 153.453L214.924 152.08L215.363 150.598L216.132 149.939L218.602 149.115L219.7 148.402L222.444 145.547L224.53 143.131L225.298 141.759L225.244 140.275L224.42 139.451L222.06 138.737L221.127 138.023L220.469 133.356L220.743 132.752L221.237 132.203L221.567 131.709L221.348 131.16L220.799 130.886L220.25 130.776L219.701 130.611L219.207 130.172L218.384 128.031L218.11 125.286L218.219 122.541L218.659 120.345L219.591 118.039L219.701 116.995L219.371 115.678L218.163 113.427L217.999 112.274L218.932 110.956L219.92 110.188L221.841 108.101L222.555 107.058L222.885 106.29L222.994 105.796L222.939 105.356L223.158 103.38L223.432 102.886L224.091 102.282L224.64 101.952L226.122 101.622L226.726 101.348L227.275 100.799L228.208 99.4817L228.812 99.0419L230.019 98.8229L231.062 100.25L232.489 100.415L233.697 100.031L236.167 98.9332L241.217 97.341L242.37 96.6822L244.291 94.3213L245.829 91.4663L247.585 89.1055L250.329 88.4466L251.867 88.7211H253.183L254.281 88.2275L255.105 86.7995L255.709 85.1524L256.477 84.2739L257.519 83.8896L260.538 83.5602L261.417 83.2302L262.075 82.4066L263.722 79.6615L266.576 76.3672L268.333 75.7084L272.065 75.0501L273.877 74.1711L275.689 72.469L277.17 70.492L279.531 66.1546L282.057 62.8049L286.118 60.1151L290.619 58.1935L308.075 55.3934L312.466 55.613L313.508 55.8875L314.881 55.7777L316.253 55.3934L317.241 54.8444L318.558 53.3071L319.162 52.1541L319.876 51.5496L321.688 51.9339L322.236 52.2639L322.676 52.5933L323.115 52.8129L323.939 52.7575L324.652 52.428L325.75 51.2745L326.464 51L327.671 51.0555L328.879 51.3849L331.184 52.3731L332.337 53.1418L333.216 54.0203L334.588 56.2719L335.356 57.1503L337.442 58.7974L337.826 59.4019L337.277 60.7191L336.673 61.8726L336.728 62.9707L338.21 64.178L347.267 68.1311L347.872 68.6252L348.311 69.1743L348.86 69.6679L349.574 69.9978L350.232 69.9424L351 69.6129L347.267 74.8837L346.444 75.8171L346.17 76.0916L345.621 76.3661L344.797 76.6406L343.918 76.7504L338.869 76.3661L331.568 76.8602L327.451 78.1774L325.86 78.4519H322.347L310.82 80.0441L309.666 79.9887L308.513 79.7696L307.525 79.4396L303.792 78.5612L297.919 78.5063L296.986 78.8901V79.3842L297.865 79.9881L300.17 81.3058L300.5 81.8549L300.17 82.6784L299.621 83.6118L299.402 84.6L299.293 85.8628L298.744 86.5217L297.81 86.8511L295.999 87.2354L295.176 87.6747L294.736 88.2237L294.681 91.2989L294.571 91.7925L294.297 92.2322L285.844 97.1736L284.637 98.2162L284.362 99.1496L284.856 100.138L286.832 102.115L288.149 103.103L289.191 104.201L289.906 105.19L290.345 106.288L290.675 107.276L291.224 110.68L291.114 110.954L290.784 111.613L289.631 112.711L287.984 113.535L286.172 114.194L282.55 115.072L281.671 116.335V116.939L281.835 117.708L282.165 118.366L285.678 123.033L286.392 124.241L286.666 125.339L286.776 127.096L287.106 127.81L288.094 128.908L289.082 130.5L289.521 132.202L289.961 133.245L291.443 135.386L292.376 140.712L292.046 143.073L291.552 143.786L290.948 144.391L290.399 144.775L290.015 145.05L289.85 145.159L289.795 145.216L286.501 152.903L286.337 154.001L286.392 154.879L287.654 157.515L288.422 160.644L288.971 161.798L292.484 165.86L293.198 167.946L292.979 169.319L292.21 170.691L290.894 172.009L287.051 174.863L286.172 175.906L285.624 176.62L285.24 177.114L284.746 177.444H284.088L283.539 177.225L283.045 176.786L282.661 176.237L282.168 175.743L281.509 175.194L281.07 175.029L280.576 175.139L279.863 175.962L279.149 178.707L278.819 184.747L279.752 197.704L280.465 200.559L283.814 204.621L285.242 207.037L286.065 209.014L286.34 211.265L286.284 212.528L285.736 215.383L285.352 216.207L284.968 216.591L284.528 217.03L283.814 217.36L283.21 217.416L282.661 217.306L282.277 216.922L282.112 216.318L282.168 215.549L282.552 214.506L282.882 213.793L283.375 212.145L283.484 211.596L283.428 211.156L283.264 210.826L282.989 210.552L282.659 210.496L282.33 210.716L282.056 211.155L281.672 211.814L281.123 212.418L280.409 212.967L279.202 213.626L276.677 214.395L274.481 214.999L272.121 215.932L270.694 216.811L273.713 223.893L277.115 234.434L277.774 235.862L278.488 236.521L279.311 236.96L280.464 237.4L286.612 238.772L288.094 239.486L290.18 245.195L290.454 245.635L292.266 247.557L294.955 249.753L295.559 250.411L296.053 251.126L296.712 251.839L297.371 251.895L297.975 251.51L298.469 251.017L298.908 250.632L299.621 250.358L303.738 249.754L307.197 248.821L309.227 248.93L318.833 252.608L320.205 252.938L321.469 253.158L322.236 253.377L324.488 254.694L323.883 256.122L322.017 257.604L321.469 258.318L321.25 258.976L321.194 266.279L321.413 267.871L322.072 269.133L323.17 270.287L324.212 271.111L325.584 273.746L322.95 274.185L320.096 274.953L308.569 280.004L307.526 280.772L306.867 281.596L306.648 282.584L306.867 283.463L307.635 284.506L308.24 284.725L308.789 284.67L309.338 284.066L310.052 282.858L310.875 282.144L311.204 282.034L311.973 281.815L312.412 281.76H312.851L313.235 281.815L313.62 281.925L313.894 282.09L314.113 282.254L314.278 282.364L314.717 282.858L314.882 283.351L314.992 286.92L315.101 287.304L315.595 288.347L315.76 288.677L316.144 290.269L316.309 290.653L316.528 290.927L317.407 291.86L317.681 292.19L317.846 292.52L318.011 292.959L318.12 293.399V294.058L317.901 294.716L315.815 298.45L315.596 299.109L314.223 301.524L313.949 301.798L313.619 302.021L312.521 302.516L311.753 303.119L310.216 305.097L310.271 305.646L310.106 306.084L309.887 306.799L309.777 307.073V307.622V308.227L309.667 308.557L309.174 309.599L309.064 309.983L308.845 310.587L308.571 311.192L307.363 313.058L306.431 314.047L305.442 314.871L303.576 316.957L302.369 317.725L300.338 315.969H299.625L298.582 316.243L295.618 317.835L293.971 318.165L292.544 317.725L290.348 316.737L289.744 316.243L289.414 315.584V314.705L289.579 313.882L289.963 312.839L290.128 311.96L290.072 311.081L289.468 309.708L288.7 309.159L288.151 309.05L286.614 309.215L284.968 310.643L283.54 312.29L282.552 314.376L282.387 315.255L281.728 316.628L277.612 321.514L276.239 323.655L275.69 325.028L275.251 326.51L275.195 327.938L275.251 328.926L277.061 334.634L277.445 335.458L277.555 335.677L277.664 335.896L277.883 336.335L278.322 337.543L279.09 340.453L279.584 342.1L278.926 368.728L278.707 369.387L278.267 370.046L277.499 370.43L275.962 370.54L275.303 370.759L274.755 373.01L275.743 376.139L280.244 383.881L280.574 385.309L280.08 386.627L279.202 387.89L278.927 389.263L278.818 394.753L279.311 396.016L280.519 397.553L282.056 398.982L282.111 399.586L281.672 400.574L281.342 401.014L280.958 401.289L280.628 401.728L280.299 402.442L280.243 403.21L280.408 406.944L281.231 411.006L281.725 415.728L282.878 417.924L284.415 422.372L284.58 424.953L283.922 427.204L282.605 429.07L280.793 430.443L279.476 431.101L278.269 431.541L277.061 431.814L275.579 431.869L274.262 431.594L273.603 432.253L272.615 434.01L270.42 442.355L269.377 444.058L266.193 447.791L265.809 447.352L264.272 447.022L258.673 447.736L254.556 442.19L252.36 439.939L251.262 439.554L249.78 439.61L241.437 441.367L240.394 442.19L239.626 445.1L238.803 447.077V447.516L238.364 448.121L237.924 449L235.235 448.121L234.028 447.407L232.656 445.979L231.723 445.375L231.558 444.442L231.502 442.795L231.337 441.861L230.788 441.203L229.691 440.379L228.977 439.501L227.824 437.139L225.958 435.053L225.354 434.174L223.762 433.68L222.664 433.461L220.579 433.9L218.822 435.054L210.149 434.834L205.099 433.792L202.135 434.01L200.872 434.34L198.182 434.559L195.548 435.108L194.559 435.163L193.517 434.998L192.254 434.614L190.333 434.285L189.125 434.394L185.667 435.602L184.35 436.206L182.813 437.634L182.429 437.853L181.771 438.018L180.672 437.853L179.356 437.414L177.653 436.425L176.447 435.492L175.898 434.943L175.567 434.065L176.885 422.645L176.829 420.613L176.61 419.24L176.226 418.088L175.732 417.538L174.965 417.319L174.085 416.825L173.591 416.441L172.493 414.3L171.231 414.19L169.255 414.794H168.486L167.881 414.574L167.333 413.916L166.84 413.147L166.346 411.883L165.467 403.867L165.576 402.824L165.742 402.22L166.125 401.177L168.705 395.961L168.979 395.028L168.869 393.656L168.595 392.777L166.784 388.934L163.766 383.499L160.911 380.149L159.814 379.16L159.21 378.446L158.551 377.348L158.496 377.129L158.331 376.47L158.277 376.251L158.167 376.142L157.453 375.592L157.398 375.318L157.508 375.043L157.563 374.55L157.398 373.945L156.959 372.957L156.301 372.683H155.916L155.367 373.562L155.038 373.945L154.598 374.22L153.72 374.604L152.731 374.769H151.853L149.932 375.043L149.109 370.542L149.549 368.565L149.878 367.96L150.427 365.545L150.098 360.934L149.659 359.945L149.384 359.066L149 358.243L149.055 357.419L150.537 351.929L150.811 349.128L150.757 347.811L149.604 341.223L149.384 337.544L149.44 336.776L150.264 333.537L150.208 332.329L149.494 329.859L150.208 329.419L151.854 329.529L152.403 329.254L152.734 328.705L153.063 323.489L152.898 322.501L152.404 320.854V318.822L152.789 318.218L153.008 318.109L153.447 318.053L153.832 318.163H153.886L156.027 319.48L157.015 319.755L157.62 319.81L157.949 319.645L158.389 319.151L158.663 318.767L158.828 318.328L158.884 318.218L159.433 313.112L159.816 311.19L160.693 304.657L160.309 302.844L159.102 300.155L158.716 298.892Z" fill="white"/>
</svg>
