<svg width="500" height="500" viewBox="0 0 500 500" fill="none" xmlns="http://www.w3.org/2000/svg">
<circle cx="250" cy="250" r="250" fill="#1592ED"/>
<path d="M201.343 42.0471L202.832 42.1146L207.164 42.0464V42.4523L207.434 43.3303L209.058 46.2343L209.6 48.126L209.532 51.1651L209.666 52.9879L209.936 53.4607L210.817 54.136L211.02 54.6763V55.0822L210.75 56.3646L211.427 57.9855L215.759 65.1443L225.574 74.8026L226.658 76.491L227.403 78.3138L227.81 80.4081L228.418 81.5562L229.434 81.9614L230.449 82.5692L236.135 94.388L239.789 99.183L240.466 99.8584L241.55 100.534L242.092 100.804L243.378 101.073L243.986 101.343L244.459 101.884L245.543 103.302L246.085 103.708L247.304 103.776L248.251 103.438L249.063 103.573L251.025 107.491L252.853 109.517L262.465 116.946L264.225 117.755L266.188 118.296L267.61 119.241L268.422 120.66L268.625 122.551L269.032 124.105L271.604 127.347L272.62 128.967L273.432 130.79L274.177 131.803L276.75 133.762L277.088 134.234L277.495 135.517L277.833 136.057L278.24 136.26L279.39 136.598L279.729 136.867L280.136 137.543L280.339 138.15V138.757L280.136 139.77V141.256L281.083 145.308L281.692 146.727L284.331 149.294L285.211 150.779L285.28 153.008L285.009 154.966L285.213 162.126L288.123 175.295L288.192 176.915L287.785 181.171L288.056 182.79V183.601L287.717 184.479L287.243 185.223L286.905 186.032L286.973 187.18L287.989 190.354L288.327 192.11L288.057 193.529L286.906 194.61L283.657 195.016L282.099 195.624L281.152 197.042V198.663L281.422 200.62L281.219 202.715L280.474 204.741L280.067 206.632L280.406 208.389L282.233 209.807L283.587 210.685L285.144 212.036L286.228 213.724L286.431 215.345L286.093 216.29L285.686 217.1L285.416 217.844L285.281 218.992L285.484 219.735L286.568 222.301L286.838 224.935L287.108 225.813L287.717 226.691L289.341 228.312L289.95 229.325L290.288 231.014L290.153 232.702L290.221 234.187L291.102 235.672L291.846 236.01L293.674 236.348L294.486 236.888L294.892 237.698L295.096 239.387L295.366 240.062L296.112 240.535L298.007 241.075L298.616 241.75L299.158 242.629L299.969 243.508L300.85 244.251L304.843 246.547L305.589 247.694L305.927 249.788V251.612L305.657 253.503L305.387 254.381L304.506 256.204L304.303 257.082L304.641 258.84L306.468 262.217L307.011 264.108L307.281 268.835L307.551 270.455L307.958 271.468L309.243 273.022L309.785 273.966L309.988 274.912L309.785 276.465L309.853 277.343L310.192 278.222L311.072 279.91L311.342 280.789L311.207 281.936L310.53 282.68L309.785 283.355L309.312 284.166L309.582 285.719L310.732 285.988L315.335 284.434H316.148L316.825 284.772L317.231 285.516L317.028 286.326L316.689 287.136L316.554 288.149L315.2 292.133L314.997 294.497L316.282 295.713L317.84 296.253L318.923 297.266L319.465 298.752L319.397 300.44L318.112 303.885L317.841 305.642L318.45 307.533L319.465 308.816L320.954 310.167L322.511 311.18L323.865 311.585L324 312.396L322.85 318.068L322.173 320.026L316.961 327.32L315.945 328.13L312.561 328.333L310.734 328.739L309.38 329.617L308.635 330.968L308.566 332.994L308.702 336.439L308.363 337.858L307.618 339.546L306.603 340.965L304.302 343.396L303.556 344.747L303.083 346.842L302.948 348.327L302.474 349.746L299.359 353.19L298.479 354.541L297.261 357.918L296.313 359.81L293.674 363.118L292.59 365.009L290.153 372.573L289.611 373.317L287.85 373.924L287.105 374.397L286.497 375.207L285.685 376.963L285.211 377.774L283.654 378.989L280.404 380.746L279.119 382.097L278.78 382.84L278.035 385.407L277.29 386.488L276.545 386.42L275.665 386.014L274.785 385.677L273.701 385.542L273.294 385.339L272.956 385.407L272.21 386.217L271.737 386.96L271.467 387.839L271.263 388.783L271.195 389.661L271.399 390.743L272.007 392.431V393.713L271.737 395.402L271.399 396.077L270.79 396.753L270.383 396.888L267.472 398.171H266.592L265.915 397.764L265.17 397.63L264.087 398.102L263.41 398.912L262.733 400.669L262.124 401.412L261.582 401.615L259.821 401.684L259.01 401.953L257.52 403.372L253.933 408.302L253.121 410.26L252.375 413.907L252.645 414.987L254.203 416.338L254.744 417.283L255.895 422.619L255.827 424.375L254.676 427.616L253.864 431.939L252.375 437.071L251.767 437.341L251.36 437.747L251.021 438.219L250.074 440.313L248.721 444.569L248.179 447.877L247.434 449.16L245.673 451.117L243.981 453.751L239.581 463.341L237.212 466.718L235.789 468L235.112 467.122L234.977 466.379L234.232 465.163L233.962 464.488L233.894 463.609L234.029 461.852L233.961 461.042L233.487 458.273L233.419 454.423L231.726 451.654L231.523 450.709L231.455 450.102L231.523 449.561L232.877 446.05L233.284 444.699L233.69 440.782L234.571 437.743V435.919L233.217 430.922L231.795 428.424L231.726 426.667L232.335 423.087L231.928 419.508L229.289 413.295L228.95 409.648V406.069L229.289 404.853L230.373 404.381L232.133 404.65L233.149 405.394L234.571 407.96L235.382 407.015V405.733L234.774 404.585L233.962 403.841L234.909 403.369L235.856 403.503L236.669 404.111L237.413 405.056L237.955 403.705L238.564 401.342L239.038 400.397L240.392 398.371L240.595 397.222L240.121 395.669L240.933 395.737L241.679 395.602L242.355 395.196L242.897 394.521L242.017 394.183L240.054 393.981L239.309 393.643L238.902 393.102L238.699 392.427L238.902 391.887L241.475 391.143L242.422 390.198L243.167 389.185L244.251 388.712L244.658 388.847L245.605 389.657L246.35 389.86L246.485 389.591L247.635 389.185L248.786 388.982L249.056 389.251L249.53 388.238L249.869 386.753L249.936 385.199L249.53 383.984L250.139 383.511L249.665 382.701L248.243 381.62L247.904 381.079L248.108 380.134L248.581 379.729L249.19 379.459L249.867 379.053L250.34 378.04L250.002 376.824L249.393 375.339L249.055 373.516L247.633 373.988L246.617 373.244L245.128 370.611L248.716 369.598L250.477 368.516L251.222 366.828V364.196L252.238 361.763L252.644 359.94L253.118 359.399L253.321 358.927L252.305 357.508L250.682 353.456L250.275 352.037L250.207 350.552L250.68 349.066L248.718 349.539L248.311 348.795L249.056 345.824L249.733 344.136L251.425 343.528L254.607 343.259L253.862 342.043L253.658 338.735L252.913 337.384L252.168 337.181L250.882 337.788L250.137 337.382L249.934 336.572L250.61 335.153L250.137 334.41L251.22 333.059L251.424 331.708L251.22 328.669L251.424 327.183L251.897 325.226L252.778 323.806L254.063 323.942L255.01 323.401L255.62 323.671L256.228 324.211L257.108 324.549L258.055 324.211L258.124 323.333V322.388L258.462 321.578L259.546 321.375L261.035 321.645L262.592 322.185L263.539 322.792H264.081L262.862 320.36L257.04 319.144L255.213 317.591L255.821 315.496L257.582 313.539L258.732 311.513L257.378 309.352L257.921 310.837L257.447 311.851L256.701 312.593L255.956 313.539L254.061 316.983L253.519 317.051L252.097 316.917L251.827 317.255L251.556 317.457L250.609 318.47L250.406 318.74L249.459 319.146L249.255 320.159L249.187 321.375L248.781 322.456L247.9 323.401L247.223 323.739L246.412 323.536L244.245 322.185L241.741 320.227L241.199 319.62L241.131 318.741L240.658 317.661V316.985L240.861 316.378L241.808 314.689L242.282 314.351L242.756 314.42L242.959 314.351L242.89 313.473H240.656L241.942 311.515L242.349 311.178L242.957 311.043L243.703 310.975L244.311 311.043L244.581 311.178L245.258 309.895L245.867 308.342L246.95 307.194L249.049 307.059L248.034 305.843L246.342 305.911L242.889 307.059H236.255L237 305.303L238.624 304.695L242.617 304.764L244.04 304.357L245.597 303.479L246.815 302.466L247.763 300.643L248.71 300.238L249.725 300.034L250.132 299.765L250.267 296.929L250.132 295.984L249.59 294.565L248.913 293.621L248.778 292.608L249.523 291.324L245.665 291.595L245.123 290.987L244.04 290.109L243.159 289.028V288.149L243.701 287.068L243.363 286.324L242.821 285.514L242.889 284.298L243.43 283.893L244.514 283.555L246.342 283.149V282.542H245.139L245.884 281.597L248.185 280.315L249.336 279.369L249.674 278.356L249.336 277.343L248.794 276.465L248.252 276.127L245.544 276.6L243.717 277.613L242.16 278.964L240.129 280.246L239.452 279.908L238.031 279.436L237.421 279.03L236.136 277.679L235.459 276.126L235.527 274.505L236.474 272.952L237.828 271.939L239.385 271.466L246.628 269.913L248.32 268.832L249.066 267.143L248.524 265.724L247.238 264.981L244.599 263.9L242.568 261.874L242.095 261.536L241.011 261.13L240.807 260.252L241.214 258.361L241.35 256.47L241.688 255.388L242.703 254.848L244.599 254.578H247.645L248.66 254.309L249.202 253.701L249.337 253.094L248.796 252.891L248.119 252.688L247.035 252.012L246.358 251.675L245.411 251.54H244.53L243.65 251.472L242.904 250.999L242.296 249.244L242.904 247.42L243.988 245.597L244.597 243.774L244.867 243.504H245.409L246.018 243.573L246.356 243.504L246.288 242.964L245.679 241.748L245.882 239.316L246.356 238.235L246.898 237.425L247.44 236.884L247.778 236.277L247.913 234.994L247.643 234.791L245.409 235.332L244.325 235.197L243.784 234.791L243.715 234.184L243.985 233.577L244.662 233.307H245.542L246.355 233.173L246.762 232.362L246.085 231.956L242.632 232.362L241.819 231.553V230.539L241.955 230.742L242.362 230.675L243.173 230.268L243.782 230.134L244.189 229.864L244.595 228.851L243.173 221.962L242.428 221.49L240.466 219.195L239.586 218.451L240.397 216.628L240.939 215.818L241.548 215.548L241.209 215.076L240.126 211.968L239.246 210.213L239.11 209.333L238.84 206.092L238.909 205.079L239.586 204.403L239.043 201.904L238.637 195.759L237.622 194.475L236.606 193.935L232.341 190.423L231.868 187.317L231.461 186.304L230.649 187.452L230.243 186.708L230.039 185.829V184.951L230.107 184.006L229.092 181.373L229.024 180.225L230.107 179.347L229.972 178.74L229.904 178.064L230.107 176.511L229.362 176.916L228.955 177.591L228.414 179.349L228.548 177.929L228.278 176.647L227.805 175.499L227.331 174.621L226.924 174.351L226.451 174.013L225.977 173.608L225.639 172.933L225.707 172.325L226.52 171.515L226.723 170.908L226.316 169.963L224.42 167.194L223.675 165.436L222.863 164.693L221.779 164.018L220.696 163.68L220.966 162.599L220.628 161.856L218.935 160.707L219.004 158.885L215.958 154.563L215.077 152.537L215.686 153.077L216.159 151.997L214.129 151.456L212.572 151.524L211.556 150.849L211.218 148.147L212.098 145.04L212.302 143.757L212.098 142.542L211.828 141.46L211.759 140.379L212.302 139.164L211.759 138.218L210.609 133.559V129.776L210.406 128.898L210.135 128.155V127.48L210.609 126.872V126.332L209.729 125.453L208.579 124.034L207.631 122.414L207.225 121.063H206.751L206.683 122.076L206.276 123.833L206.207 124.846L206.478 125.318L207.561 126.737L207.832 127.143L207.764 129.507L207.357 130.654L206.477 131.802L206.273 132.883L207.492 136.192L207.831 137.678L207.695 139.298L206.95 142.269L206.205 149.292L207.355 153.21L207.558 154.763L207.355 156.182L206.747 157.802L206.477 158.275L206.207 158.613L205.868 159.153L205.597 160.031L205.394 161.112L205.326 161.922L205.596 163.679L206.543 164.692L206.814 165.367L206.205 165.908L205.528 165.839L204.919 165.367L203.904 164.151L203.835 164.826L203.497 165.434L203.362 165.906L203.158 164.962L203.227 163.813L203.158 162.869L202.55 162.463L202.211 162.057L202.618 161.247L203.295 160.437L203.904 160.031L203.565 159.626L203.158 158.748L202.82 158.341L203.971 158.003L204.512 156.99V155.64L203.904 154.289L205.258 154.358L205.393 153.682L204.648 152.872L203.632 152.534L201.737 152.602L201.128 152.468L200.045 151.995L200.315 151.455L200.856 150.104L201.127 149.632L199.096 148.686L198.351 146.12L198.824 143.959L200.585 144.364L200.112 140.582L200.043 137.07L200.516 135.719L200.652 134.841L200.313 134.504L199.84 134.368L199.231 134.031L198.554 133.491L198.351 132.95L198.081 130.992L196.997 127.412L196.659 125.656L197.066 123.765L198.825 121.131L199.502 119.848L199.571 118.701L200.383 117.147L200.586 116.066L200.451 115.256L199.504 112.285H200.588L200.317 111.138L199.844 110.192L199.37 110.057L198.897 111.07L195.038 105.871L192.873 101.075L191.112 98.4422L190.503 96.5498L190.097 94.5238L190.028 92.7017L190.232 90.8781L191.315 88.2442L191.654 86.6241L190.977 87.3676L190.368 88.3125L189.76 88.7845L188.88 88.3794L188.541 87.5689L187.729 83.7194L185.291 79.0608L184.614 76.6281L185.561 74.3994L183.531 72.9136L182.38 70.7538V68.3212L183.869 66.2276L187.051 65.2821L189.081 67.2406L191.044 70.0772L193.887 71.4279L191.044 67.5783L190.232 65.6873L191.654 65.0795L190.435 64.6067L189.284 63.9313L188.743 62.9872L189.42 61.5676L188.878 61.0274L188.336 60.2845L187.93 59.5402L187.726 58.9338L187.591 58.5272L187.185 58.8648L186.642 59.7435L186.778 59.9468L187.048 60.4189L187.251 61.026V61.5663L186.032 62.5118L184.882 61.9715L184.07 60.4857L183.866 58.6622H183.325L183.055 60.2156L183.732 63.7956L182.986 64.471L182.579 64.6743L182.173 65.1464L181.496 65.5522L180.549 65.6205L179.94 65.4172L179.466 64.9451L179.128 64.4041L178.858 63.8638L176.624 54.1387L175 51.6405L175.135 51.5061L177.097 50.0872L178.181 48.8047L179.873 46.1033L181.227 43.2668L181.904 41.3758L182.446 39.0795L182.853 35.9729L183.191 35.2976L183.733 34.7566L185.29 34.5533H186.305L189.081 34.2156L190.57 33.8779L192.669 33.0682L193.346 33L193.955 33.2033L194.7 34.013L197.746 39.3484L198.694 40.4958L199.574 41.3055L199.844 41.5088L200.317 41.7783L201.343 42.0471Z" fill="white"/>
</svg>
