<svg width="500" height="500" viewBox="0 0 500 500" fill="none" xmlns="http://www.w3.org/2000/svg">
<circle cx="250" cy="250" r="250" fill="#1592ED"/>
<path d="M155.3 163.902C155.3 163.902 151.7 164.713 150.32 165.503C148.94 166.282 145.8 168.063 144.22 168.253C142.65 168.452 140.09 169.633 138.32 167.463C136.55 165.303 129.87 157.242 129.87 157.242L115.12 153.702L107.06 153.112L99 154.262L99.4 155.201L101.3 157.701H102.8L107.9 164.502L108.7 166.002L109.8 168.602L109.7 170.302L108.9 171.701L107.4 172.502L105.4 173.201L101.5 173.701L99.9 174.401L99.6 175.301L99.7 176.301L100.1 176.901L100.6 177.601L105.9 182.401L108.2 186.301L108.1 187.801L107.5 189.401L103.8 193.002L102.5 195.502L102.8 197.802L105.9 204.302L106.3 206.602L105.9 208.402L105.4 210.102L104.8 213.002V214.302V215.302L110.2 225.102L111.7 227.102L113.59 229.002H113.6L115.5 227.401L119.3 224.301L122.5 222.2L125.49 221.39L128.19 222.01L129 222.199L131.99 224.5H132L134.6 227.199L137.8 228.699H140.9L143.29 226.599L144.29 224.299L145.29 221.189V218.299L146.29 216.389L148.69 214.889L150.89 214.699H150.9H151.59L152.803 215.596L154.703 217.696L156.902 219.696L164.402 229.396L165.902 231.498L167.102 232.598L167.703 233.798L170.602 236.298L175.902 242.398L176.503 242.999L178.402 244.3L179.102 244.999L179.703 246.398L180.602 249.499L181.203 250.698L181.602 251.8L181.501 254.6L182.001 255.8L182.701 256.999L187.201 269.898L187.701 274.598L186.6 279.497L189.499 281.896L191.6 284.096L191.999 284.896L192.1 285.896L191.9 286.396L191.4 289.497L191.501 294.598L191.001 296.497L188.801 298.997L187.201 300.497V303.098L188.201 308.598L190.001 313.698L192.301 317.499L193.501 318.8L195.201 320.198L197.201 321.398L199.301 321.797L201.102 322.696L203.001 323.797L211.102 326.797L213.902 328.696L216.402 331.896L222.801 341.896L226.102 335.396L228.402 332.997L231.102 331.598L235.001 328.398L237.001 325.999L240.001 320.3L241.501 318.6L248.4 314.8L250.4 313.3L251.799 311.999L253.4 309.6L256.501 305.799L258.001 304.698L259.4 304.299L260.501 304.698L261.2 305.198L262.1 306.499L265.799 315.499L287.499 353.398L288.499 355.499L292.699 374.1L293.398 375.9L294.297 377.3L295.997 379.499L298.297 383.1L299.696 386.2L300.696 390.9L300.797 392.599L300.196 398.299L300.497 401.4L306.497 402.001L321.997 400.9L332.497 401.799L338.896 403.099L340.497 403.599L341.497 404.2L342.497 405.001L346.297 409.4L350.696 413.299L352.497 413.9L351.797 413.4L350.098 412.501V411.602L351.699 411.801L354.299 412.402L355.9 412.503L355.001 411.503L354.301 410.503L353.801 409.402L353.402 408.202L357.402 409.102L358.703 408.301L359.602 402.7L361.801 398.801L362.501 397.001L362.4 391.7L360.6 387.301L355.9 378.801L355.1 373.301L356.999 369.801L360.1 367.2L362.499 364.2V360.099L359.398 357.4L355.297 354.799L352.598 351.099L351.797 350.4L352.196 349.9L352.797 349.4L353.497 348.9L354.196 348.599L354.497 349.4L355.396 350.501L355.896 351.102L356.795 349.301L357.795 344.402L359.096 342.503L359.196 328.303L360.096 324.202L361.21 323.691L362.21 323.191L363.21 322.992L363.609 322.891L364.91 323.291L366.51 323.391H367.01L367.41 323.191L367.71 322.891L368.01 322.691L368.41 322.391L369.109 322.492L370.109 322.793L371.808 323.393L373.208 323.693L373.508 323.593L374.008 323.993L374.708 324.593L377.407 328.293L377.806 328.593L378.506 328.993L380.607 329.891L381.907 330.091L382.607 330.391L383.506 330.993L385.206 332.493L386.006 333.493L386.406 334.891V336.191L386.506 336.691L386.607 337.091L386.708 337.291L387.107 338.891L387.506 339.191L387.906 339.391L390.304 338.891L397.204 335.691L399.204 334.293L400.804 332.893L401.304 331.393L398.804 329.593V328.093L399.004 327.393L399.204 326.793L399.304 321.793L395.406 311.593L394.706 308.893L394.506 307.093L394.906 306.293L396.406 304.293L396.706 303.593L397.406 301.193L397.706 298.393L397.506 296.893L397.206 295.893L396.605 295.393L395.804 295.093L395.204 294.593L394.603 293.593L394.704 292.493L394.603 291.493L394.302 290.593L389.103 279.693L388.802 278.393V277.494L389.403 275.994L389.903 275.295L390.302 274.693L391.403 273.693L391.802 273.193L392.202 272.494L392.702 270.994L393.101 270.393L393.601 269.793L394.101 269.093L395.5 265.893L395.8 264.893L396 261.893L396.101 261.293L396.402 260.493L397.402 258.691L397.902 256.993V255.793L397.601 254.893L397.101 254.193L396.5 253.693L391.899 250.295L390 248.095V246.095L390.2 244.595V241.295L389.7 238.995L388.7 235.795L387.899 234.595L387 234.095L386.2 234.196L385.599 234.696L384.998 235.297L384.698 235.897L384.298 237.097L383.798 237.597L382.998 237.697L381.898 237.197L381.296 236.499L380.898 235.697L380.796 234.999L380.996 233.197L380.895 232.097L380.496 231.397L378.696 229.697L378.095 229.097L377.294 228.697L375.294 227.897L373.994 227.097L373.095 226.097L372.095 224.797L370.395 221.695L369.794 220.095L369.694 218.795L370.394 217.193L370.694 216.393L370.894 215.593L370.994 214.393L370.894 213.693L370.994 212.893L371.994 208.693L371.894 206.193L371.194 203.193L371.093 202.295L371.194 201.295L371.093 199.994L370.593 198.693L370.093 197.893L369.394 197.193L367.994 196.093L367.794 195.393L367.595 194.393L367.196 193.593L366.595 193.093L365.895 192.793H364.794L358.994 194.593L353.095 197.993L351.794 198.493L350.794 198.593L348.794 197.893L346.895 197.593L345.696 197.293L344.696 196.893L343.196 195.893L342.095 195.494H341.294L340.494 195.795L339.794 196.395L338.994 197.095L337.494 197.895H336.694L335.994 197.395L335.595 196.695L335.095 194.997L334.696 194.195L332.595 191.797L331.794 189.996L330.294 185.695L327.095 179.895L327.196 177.695L330.395 174.095L330.095 172.295L328.494 169.994L327.194 167.893L326.994 166.193L327.494 164.893L328.494 163.792L329.994 162.593L334.694 159.492L335.294 157.992L335.095 157.391L334.696 156.791L333.496 155.791L333.097 155.091L332.398 153.391L331.898 152.691L331.398 152.091L327.796 148.791L323.996 145.99L319.296 141.49L316.796 137.99L316.097 136.689L315.698 135.49L315.498 134.591L315.198 133.391L314.898 132.791L313.898 132.391L313.296 130.493L313.496 130.191L313.996 129.691L315.496 128.691L317.796 126.293V125.393L317.496 124.693L316.796 124.393L316.097 124.093L315.398 123.393L314.796 122.293L314.097 119.293L313.597 117.992L313.198 117.093L312.798 116.693L312.198 115.893L311.597 114.893L310.796 112.893L310.196 111.593L309.496 110.693L308.696 109.893L308.496 109.193L308.996 106.893L309.097 104.693L308.796 103.494L308.398 102.494L307.796 101.893L306.496 101.093L305.696 100.292L304.895 99.3931L303.996 97.693L303.696 96.7941L303.796 95.895L303.996 94.9961L304.196 93.796L303.996 92.8971L303.395 91.998L302.895 91.3971L301.095 88.8971L293.095 88.197L289.994 88.2981L288.194 88.599L287.294 88.6991L286.595 88.599L285.895 88.2981L283.895 87.7981L277.095 87.599L275.994 87.399L275.194 87H274.794L274.494 87.1991L274.294 87.599L274.095 88.599L273.895 88.998L273.595 89.7991L273.294 91.2991L273.095 91.7991L272.696 92.2991L270.696 93.197L270.296 93.3971L269.097 94.697L267.996 95.498L267.296 95.697H266.696L265.296 95.2991L264.996 95.099L264.395 94.498L264.095 94.197L263.395 93.7991L262.696 93.2991L262.095 92.697L261.895 92.3971L261.595 92.097L260.895 91.796L255.895 91.1951L254.595 90.6951L253.494 90.1951L252.494 89.395L252.095 89.1951L250.395 88.5951L250.095 88.395L248.794 87.895L247.494 87.4961H246.694L245.994 87.597L245.294 87.796L242.794 88.097L241.994 88.4961L241.694 88.6951L241.393 88.9961L241.093 89.395L240.992 89.6951L240.891 90.6951L240.391 91.296L239.29 91.8971L236.391 92.197L235.591 92.097L234.79 91.697L234.091 91.2991L233.79 90.998L232.591 90.3971L229.192 89.697V91.097L230.391 93.4961L231.29 97.297L231.49 99.3971L231.69 100.498L231.99 101.299L234.79 105.197L235.591 106.498L235.79 107.697L236.091 109.799V113.197L235.49 117.897L235.29 118.498L234.99 118.897L233.389 120.197L232.889 120.799L232.69 121.197L232.589 121.799L232.488 122.599V125.599V126.099L232.288 126.599L231.988 126.899L231.788 127.099L230.988 127.599L227.887 125.599L226.887 125.399L225.188 125.199H221.587L205.688 127.501L198.587 127.301L196.087 127.601L188.786 129.801L185.087 131.7L178.786 139.501L169.986 141.101L167.986 143.801V148.901L167.786 149.901L167.387 150.901L166.587 152.503L164.986 154.003L158.786 157.803L155.786 160.603L155.387 161.603L155.286 162.204V163.903" fill="white"/>
</svg>
