<svg width="500" height="500" viewBox="0 0 500 500" fill="none" xmlns="http://www.w3.org/2000/svg">
<circle cx="250" cy="250" r="250" fill="#1592ED"/>
<path d="M273.913 444.311H273.39L271.748 444.46L269.957 445.581L269.21 447V449.167L268.463 451.484L267.717 453.204L265.926 454.774H263.611L261.222 453.653L259.281 451.635L257.041 449.916L254.428 449.318L252.188 449.916L249.799 451.486L246.962 453.804L245.544 455L244.126 453.58L243.006 452.085L238.975 444.761V444.014V443.042L239.424 440.875L239.797 439.605L240.095 438.259L239.797 436.541L237.482 431.683L237.258 429.964L238.229 428.095L240.991 425.403L241.44 424.208L241.515 423.087L239.797 420.172L235.84 416.585L235.467 416.062L235.169 415.613L235.094 414.866L235.318 414.193L236.513 413.671L239.424 413.297L240.917 412.775L242.037 412.176L242.635 411.131L242.71 409.86L241.888 407.917L241.29 406.796L237.482 401.713H236.362L234.944 399.845L231.734 392.223L227.403 387.44L224.492 385.796L222.924 385.571L221.728 385.198L220.684 383.703L219.789 381.312L218.371 375.931L218.52 373.765L219.191 372.568L220.162 372.493L220.684 372.269L220.833 371.372L220.385 369.653L218.22 365.767L209.933 353.809L209.111 352.016L207.169 341.847L203.735 325.704L200.002 317.483L199.704 316.212L199.629 314.718L200.152 312.251L201.046 309.262L201.345 307.992L201.195 306.646L200.525 305.152L198.956 303.134L196.268 300.369L196.044 300.22L194.325 298.801L193.728 297.306L193.205 295.811L193.504 289.908L189.174 284.676L187.905 282.359L185.814 275.931L184.545 273.315L172.973 254.034L172.6 253.211L171.629 251.567L170.584 250.297L169.167 249.101L167.674 248.429L164.016 247.756L162.896 247.234L162 245.664L162.076 234.304L168.57 238.639L170.139 238.864L172.676 239.013L180.291 237.069L182.234 236.097L182.98 235.126L182.904 234.379L182.755 233.855L182.458 233.332L179.919 230.045L179.173 228.775L178.65 227.28L177.904 223.245L177.233 221.079L174.322 214.951L174.098 214.054L174.769 210.242L180.443 200.004L181.041 198.059L181.265 195.742L181.041 189.539L180.667 187.746L180.07 186.55L178.876 185.504L175.291 183.335L173.127 181.168L175.74 176.011L177.382 165.1L181.786 155.459L182.235 153.889V152.245L181.786 151.049L180.143 148.284L176.037 141.409L172.53 134.981L171.184 131.767L170.887 128.254L171.261 122.276L172.082 119.362L172.679 118.614L173.575 117.943L175.068 117.195L175.367 116.523V115.925L175.217 115.551L174.545 113.758L172.531 107.406L172.905 105.388L174.771 101.129L175.068 98.8867V97.0184L172.531 84.3135V82.5923L172.827 81.3966L174.843 78.1082L175.141 76.763L174.843 76.0156L174.021 75.7175L172.902 75.4925L172.677 74.8199L173.649 72.5779L173.797 71.2326L172.677 61.5171L173.05 58.0786L172.902 56.4344L171.931 53.2963L171.184 48.2136L173.797 47.8399H174.993L176.337 47.6157L177.533 47.0926L178.131 46.7189L178.578 46.1965L179.325 45H179.848L180.744 45.3737L181.341 46.7189L181.565 47.5417L181.49 48.2136L181.341 48.5873L181.415 48.9609L182.387 49.7083L182.535 49.8578L182.612 50.1559L182.835 51.0528L182.91 51.3509L183.806 52.8456L184.628 53.8172L186.121 55.1632L190.003 59.722L194.109 67.1207L196.573 72.3522L196.947 73.5479L197.095 75.4163L196.722 76.6868L193.214 83.7866L192.686 85.208L192.461 86.0301L192.313 87.4501L193.507 98.3621L194.179 100.081L194.849 101.127L195.596 102.023L196.419 102.322H197.464L200.153 101.499L201.87 101.648L203.363 104.562L204.034 105.085L205.23 105.757L206.274 106.056L206.945 106.803L207.468 108.373L207.765 110.241L207.841 113.006L206.05 128.551L206.499 129.748L207.246 130.495L208.887 131.766L211.202 133.111L212.993 133.709L214.487 133.934L215.383 133.709L215.904 133.41L217.996 131.467L219.787 130.644L224.49 129L226.132 128.851L228.746 129.3L230.463 129.823L231.88 130.047L233.225 129.972L236.809 129.225L240.466 128.926L242.184 128.477L246.215 128.179L253.082 129.598L264.879 129.897L267.267 128.327L270.105 127.729L271.598 128.027L273.763 128.699L274.585 129.896L277.122 132.736L278.691 135.95L279.661 137.146L281.155 138.267L281.901 139.164L282.126 140.434L282.2 142.676L282.425 143.946L283.694 144.769L285.56 146.712L287.203 147.684L290.86 148.881L290.338 150.078L289.516 154.786L289.218 155.608L289.74 162.484L288.994 162.334L288.247 163.605L287.576 163.829L286.754 163.531L285.932 163.605L285.335 163.979L284.886 164.278L284.513 164.576L284.289 164.95L283.093 166.52L277.27 171.378L274.358 175.189L272.865 176.684L270.775 177.283L267.119 177.804L266.372 177.656L265.252 176.833L264.43 176.535L262.115 176.908L260.398 178.254L259.278 180.271L258.905 182.662L257.934 183.185L252.11 184.978L247.929 184.903L247.631 184.828L247.258 184.752L246.586 184.977L246.138 185.275L245.242 186.098L243.973 186.994L243.151 188.713L242.554 190.807L242.256 192.675L242.331 196.861L243.824 204.708L244.049 208.819L243.6 210.611L245.765 211.359L245.541 212.404L248.004 214.571L251.513 216.589L253.753 217.411L255.619 217.71L260.173 217.411H260.323L264.653 219.429L266.968 221.446L267.491 222.194L267.715 222.716V223.315V224.211L267.417 225.854L267.043 226.678L266.67 227.126L265.848 228.846L265.55 229.818V231.088L266.67 236.769L266.595 237.814L266.371 239.384L265.848 240.73L265.773 242.972L266.295 244.84L268.535 249.175L269.282 249.997L269.953 250.296L270.624 250.071L271.147 249.772L271.744 248.354L272.64 244.392L273.536 243.347L276.82 240.582L278.164 239.834L280.553 239.162H281.673L284.061 239.311L285.479 239.014L286.301 238.49L289.959 235.501L291.974 234.53L296.155 233.408L299.59 232.138L300.71 231.241L302.652 229.223L303.547 228.701L304.892 228.476L305.713 228.401L309.073 228.476L312.806 229.075L314.224 229.673L314.522 229.897L314.895 230.271L315.717 231.468L316.091 232.364L316.388 235.727L316.91 239.837L324.525 253.514L325.496 256.354L326.168 260.241L326.541 261.735L327.138 262.856L328.034 265.023L327.959 265.546L327.734 266.144L327.063 267.414L326.541 267.937L326.243 268.459L326.094 268.684L326.543 270.179L327.513 274.14L328.11 275.186L328.335 275.41L328.709 275.859L329.23 276.756L329.306 276.905L329.754 278.998L329.979 279.596L330.203 279.97L330.352 280.194L330.726 281.091L331.099 281.689L331.248 281.914L331.472 282.363L331.92 285.203L332.07 285.652L332.219 285.95L332.667 286.399L333.116 286.773L334.385 287.371L334.533 287.67L334.683 288.043L334.385 289.089L334.011 289.761L332.594 291.705L332.22 292.75V293.796L332.071 294.245L331.847 294.619L330.129 295.964L330.727 298.355V298.878L330.503 299.7L330.129 300.299L329.905 300.673L328.71 302.392V302.765L328.859 303.139L329.381 303.588L330.128 304.037L330.352 304.336L330.95 306.128L331.099 309.567L331.696 310.165L332.145 310.688L332.443 311.211L332.518 311.509L332.594 311.883L332.668 314.05L332.744 314.423L332.893 314.722L333.191 315.32L333.266 315.618V316.067L333.042 316.59L332.371 317.262L331.922 317.411L331.251 317.487L331.027 317.86L330.878 318.459L330.653 319.804L330.355 320.626L328.937 323.093L328.788 323.616L328.937 324.363L329.162 324.812L329.31 325.11L329.535 325.335L329.684 325.633L329.76 325.932V326.603L329.61 327.5L329.013 329.294L328.415 330.041L327.593 330.789L327.22 331.237L326.1 333.479L325.129 337.141L325.727 344.016L326.399 346.78L326.847 347.603L327.518 348.5L329.758 350.143L331.849 350.891V351.937L332.745 353.73L333.415 356.571L333.564 358.14L333.714 358.963L333.938 359.561L336.028 362.475L336.626 363.447L336.775 364.343L337 365.912V368.452L336.551 371.964L336.402 372.414L336.178 372.712L334.983 373.683L334.609 374.132L334.46 374.431L334.385 374.88L334.31 375.478V377.721V378.094L334.161 378.468L333.937 378.692L333.787 378.842L333.19 379.215L330.875 377.721L330.128 377.571L328.859 377.422H326.172L314.301 379.141L309 378.993L307.134 379.217L301.683 380.861L298.922 382.279L294.217 388.109L287.647 389.306L286.154 391.324V395.135L286.005 395.883L285.707 396.63L285.11 397.826L283.915 398.947L279.286 401.787L277.046 403.881L276.748 404.628L276.673 405.076V406.347" fill="white"/>
</svg>
