<svg width="500" height="500" viewBox="0 0 500 500" fill="none" xmlns="http://www.w3.org/2000/svg">
<circle cx="250" cy="250" r="250" fill="#1592ED"/>
<path fill-rule="evenodd" clip-rule="evenodd" d="M238.727 313.954L236.765 300.875L236.491 299.079L236.404 297.606L236.585 296.455L236.765 295.592L236.895 295.202L237.404 295.373L238.162 295.277L238.858 295.092L238.901 295.078L239.889 294.345L241.212 293.454L243.181 294.044L246.752 296.044L247.827 295.743L248.628 295.524L248.293 294.119L248.2 293.167L248.05 292.262L248.367 292.228L248.79 292.153L249.007 292.029L248.889 291.714L248.858 291.104L248.69 290.563L248.603 290.2L248.249 290.097L247.765 289.83L247.56 289.481L247.38 288.871L246.988 288.665L246.491 288.46L245.97 288.288L245.982 288.261L246.113 287.98L246.324 287.309L246.38 287.281L246.914 286.802L247.255 286.075L247.572 285.459L248.274 285.37L249.212 285.027L249.852 284.938L250.659 284.876L250.821 284.842L250.765 284.541L250.603 284.068L250.162 283.232L249.914 282.17L249.957 280.807L249.734 279.327L249.578 277.545L250.572 277.511L253.796 277.292L255.169 277.278L257.125 277.127L257.653 279.018L258.659 280.683L258.852 281.464L258.647 282.554L258.193 283.506L257.1 284.657L259.262 285.644L260.287 286.164L261.075 286.452L261.709 286.384L261.827 286.37L262.616 286.034L263.088 285.5L263.585 284.993L264.293 284.493L267.225 284.328L267.013 286.452L267.051 286.658L268.709 287.035L269.597 287.131L270.231 287.24L271.057 287.494L272.2 288.35L272.976 288.994L274.603 290.303L275.411 290.748L276.243 290.947L277.461 291.104L279.082 290.974L280.249 290.967H280.56L280.759 290.947L281.256 289.844L282.02 289.022L283.324 288.055L284.305 287.213L285.144 286.377L285.802 285.473L286.84 283.835L287.579 282.931L287.989 282.307L288.249 281.828L288.305 281.327L288.299 280.766L288.374 280.45L288.467 280.032V279.745L288.305 279.471L288.2 279.135L288.349 278.717L288.883 277.915L289.529 277.121L291.2 276.627L292.281 276.572L293.74 276.497L295.175 276.168L296.113 276.148L297.982 275.99L299.392 275.017L299.455 274.969L299.535 274.921L300.715 274.065L300.778 274.003L300.79 273.983L301.287 274.188L301.647 275.099L301.66 275.161L302.02 275.894L302.442 276.312L302.889 276.723L303.66 276.874H303.74L303.864 276.908H303.989L304.896 276.518L304.97 276.47L305.032 276.401L305.703 275.565L305.722 275.531L305.784 275.469L306.759 274.312L306.821 274.25L307.802 273.441V273.421L307.796 272.749L308.206 271.496L308.256 271.447L309.647 270.173L309.666 270.16L310.504 268.906L310.535 268.885L311.299 267.953L312.33 267.405L313.163 267.158L313.939 266.98L315.2 266.282L316.597 265.775L317.597 265.692L318.312 265.576L319.045 264.576L319.697 263.246L320.243 262.253L321.225 261.301L321.604 260.519L322.082 260.239L322.666 260.177L323.007 259.773L323.25 259.355L323.74 258.793L323.97 258.293L324.088 258.019H324.138L324.821 257.704L326.032 257.512L327.666 257.505L328.542 257.464H329.287L329.604 257.416L330.84 256.861L331.908 256.443L332.535 256.299L333.337 256.278L334.871 256.285L335.467 256.292L335.772 256.176L336.591 255.648L337.641 255.162L338.169 255.052L339.442 255.093L340.709 254.97L342.132 254.922L342.622 255.141L343.188 255.477L343.654 255.867L344.355 256.84L344.945 257.423L345.654 257.957L346.48 258.471L347.045 258.827L348.455 260.177L349.38 261.177L349.852 261.712L350.591 262.376L351.175 262.911L351.585 263.424L351.852 263.918L351.952 264.418L352.219 265.069L352.368 265.507L352.449 266.206L352.175 267.138L351.939 267.81L351.697 268.851L351.66 269.556L351.666 269.975L351.809 270.365L352.113 270.852L352.765 271.297L353.107 271.667L353.43 272.201L353.678 273.003L353.877 274.085L353.946 274.688L354.107 275.976L354.343 276.545L354.921 277.415L355.84 278.827L356.641 279.758L357.225 280.032L358.374 280.697L359.169 281.17L359.722 281.636L360.057 281.903L360.48 282.602L360.623 283.424L360.741 284.15L360.871 284.561L361.25 284.945L362.026 285.322L362.728 285.87L363.517 286.5L364.175 287.069L364.722 287.61L365.374 288.652L366.076 289.577L366.405 290.275L366.641 291.104L366.71 292.002L366.778 292.351L366.995 292.824L367.163 293.441L367.256 294.119L367.399 294.537L367.654 294.989L368.374 295.661L368.989 296.044L369.567 296.325L370.088 296.455L371.312 296.325L372.853 296.195L373.561 296.257L374.449 296.565L374.939 296.955L375.374 297.415L375.741 298.12L375.902 298.538L376.026 299.319L376.126 299.58L376.157 299.621L376.666 300.265L377.38 300.902L378.02 301.635L378.53 302.265L379.287 302.889L379.554 303.149L379.902 303.505L380.076 303.992L380.175 304.478L380.349 305.026L380.629 305.362L381.194 306.102L381.523 306.692L381.691 307.424L381.778 308.158L381.79 308.356L381.169 308.651L380.368 309.268L380.039 309.761L379.846 310.247L379.492 311.008L379.014 311.864L378.499 312.57L378.051 313.036L377.151 313.522L376.797 313.55L376.393 313.447L375.908 313.365L375.107 313.324L374.542 313.502L373.784 313.79L372.915 314.166L372.144 314.461L371.2 314.838L370.852 315.057L370.648 315.256L369.834 315.975L370.474 317.181L369.2 317.277L366.66 318.579L363.846 318.88L361.529 321.134L359.797 323.046L358.859 324.224L357.995 324.964L357.542 326.869L357.126 327.006L356.517 327.061L356.02 327.177L355.741 327.376L355.331 327.835L354.877 328.184L354.244 328.554L353.542 329.116L353.175 329.425L352.2 330.425L351.778 330.74L351.132 331.11L350.678 331.069L350.051 331.041L350.02 331.137L349.958 331.473L349.927 332.213L350.026 332.72L350.051 332.761L350.324 333.22L350.859 333.57L351.473 333.933L351.654 334.125L351.722 334.392L351.585 334.618L350.983 335.084L350.647 335.413L350.616 335.584V335.632L350.66 335.872L350.697 335.92L350.722 335.968L351.076 336.214L351.616 336.475L352.113 336.632L352.206 336.653L352.337 336.742V336.797L352.306 337.023L352.287 337.071L351.827 338.003L351.697 338.544L351.685 338.592L351.784 338.907L351.809 338.962L351.852 339.023L352.275 339.578L352.306 339.613L353.2 340.353L353.61 340.668L353.765 340.75L354.026 340.743L354.97 340.483L355.592 340.394L356.374 340.455L356.43 340.462L357.039 340.62L357.442 340.962L358.119 341.497L358.579 341.586L358.852 341.572L359.486 341.209L359.939 341.127L360.498 341.175L360.983 341.558L361.182 341.963L361.374 342.422L361.759 342.977L362.38 343.319L363.051 343.559L363.772 343.765L364.324 344.032L364.604 344.128H364.654L364.809 344.039L365.641 343.361L365.915 343.1L366.231 343.011L366.989 343.018L367.461 343.223L367.797 343.388L368.095 343.347H368.163L368.511 343.271L368.648 343.319L369.02 343.71L369.48 344.08L369.921 344.224L370.374 344.251L370.672 344.375L371.157 344.731L371.486 344.943L372.002 345.08L372.325 345.101H372.399L372.66 345.032L372.716 344.97L373.443 344.244L373.896 343.943L374.648 343.408L375.486 343.175L376.182 343.155L376.784 343.251L377.449 343.388L378.722 343.566L379.163 343.703L379.207 343.737L379.449 343.977L379.939 344.909L380.294 345.601L380.331 345.649L380.927 346.725L381.287 347.458L381.43 348.451L381.362 349.157L381.393 350.671L381.436 351.356L381.492 351.589L381.766 351.877H381.815L382.12 352.034L382.188 352.082L382.219 352.11L382.747 352.596L383.02 353.377L383.151 354.426L383.281 355.419L383.424 355.782L383.623 356.111L384.219 356.769L384.691 357.276L384.958 357.728L385.318 358.379L385.561 359.03L385.685 359.612L385.828 360.215L386.039 360.791L386.567 361.448L386.697 361.53L386.952 361.805L386.971 361.859L387.045 362.085L387.014 362.133L386.815 362.346L386.766 362.366L386.412 362.469L385.604 362.736L385.163 363.058L384.977 363.387V363.435L384.964 364.031L384.983 364.771L384.908 365.08L384.542 365.285L384.511 365.381L383.306 366.203L382.349 367.032L379.865 367.875L380.014 371.767L377.238 372.76L375.809 375.158L375.859 376.426L375.144 380.516L374.474 385.915L372.362 387.998L371.25 390.087L369.026 390.697L366.25 387.141L365.3 385.627L364.026 383.585L362.803 381.866L360.101 380.673L360.169 380.064L359.852 379.262L359.362 378.584L358.051 378.618L357.026 378.378L357.02 377.508L357.71 376.604L358.02 376.021L357.803 375.439L357.2 376.035L356.387 377.015L355.573 376.974L354.983 376.378L354.151 376.604L352.952 376.802L352.262 377.337L351.685 377.604L351.399 378.159L351.194 377.535L350.939 376.521L350.418 375.836L349.529 376.213L348.492 376.453L347.579 376.371L346.647 376.316L346.126 376.857L344.977 377.213L344.182 377.015L343.591 376.158L343.343 375.425L342.859 374.822L342.039 374.048L341.219 373.603L340.442 373.013L339.877 372.767L339.225 372.109L338.914 371.527L338.219 371.814L337.213 371.095L335.299 372.15L333.647 373.274V368.779L332.504 367.238L330.281 364.805L328.784 364.463L327.287 363.654L324.107 361.626L323.175 360.071L322.448 359.071L322.33 358.365L322.529 357.879L322.989 357.118L327.001 357.337L331.337 356.234L332.889 354.515L331.778 351.692L330.001 349.239L326.442 348.259L321.243 346.992L320.573 345.978L319.809 345.19L319.032 344.813L318.448 344.388L317.653 343.771L317.237 343.333L316.796 342.785L316.2 342.62L315.579 342.155L315.051 341.791L314.498 341.12L313.417 340.14L312.274 338.955L310.709 338.482L309.579 338.982L308.84 339.345L308.448 339.811L308.014 339.852L307.759 339.065L307.585 338.736L306.827 337.681L306.548 336.694L306.262 336.002L305.92 335.077L305.2 334.118L304.914 332.974L304.181 332.782L303.691 332.432L302.759 331.871L302.262 331.713L301.597 331.281L301.038 330.774L300.56 330.117L299.951 329.164L299.287 328.335L298.864 327.952L298.455 327.349L297.951 326.78L297.616 326.43L297.125 326.013L296.417 325.738L295.51 325.211L294.746 324.211L294.163 323.868L293.368 323.56L293.1 322.662L292.933 322.1L292.448 321.607L291.821 320.997L291.38 320.107L290.753 319.668L290.585 319.524L286.467 319.894L284.51 319.168L284.2 319.243L282.933 319.654L281.628 320.23L280.728 320.668L279.74 321.08L278.728 320.6L277.883 319.833L276.883 318.407L276.131 317.75L275.635 318.579L275.69 319.572L276.318 320.25L276.802 320.84L276.734 321.772L276.038 322.84L274.958 323.395L274.349 323.484L273.933 323.642L273.79 323.073L273.635 322.244L273.392 321.628L273.38 320.504L272.498 316.421L269.74 314.31L267.225 314.064L266.063 313.954L265.367 313.248L264.79 312.954L263.703 312.515L263.063 312.488L261.945 312.412L260.454 312.289L258.746 312.693L256.79 313.406L256.082 313.598L254.982 312.906L253.783 314.118L252.591 314.331L251.504 314.523L249.572 313.564L248.852 312.385L247.926 311.398L244.212 311.926L243.728 313.056L242.535 313.118L242.106 314.173L239.355 314.797L239.038 313.831L239.007 313.844L238.727 313.954Z" fill="white" stroke="white" stroke-width="2" stroke-linecap="square" stroke-linejoin="bevel"/>
<path fill-rule="evenodd" clip-rule="evenodd" d="M236.436 201.735L238.939 201.249L240.715 201.221L242.951 201.139L245.964 200.858L247.777 200.708L248.411 202.468L249.106 203.03L251.162 203.537L251.572 204.407L252.982 204.62L255.032 204.839L257.044 204.956L257.982 204.64L259.224 205.003L259.796 205.682L260.013 205.716L260.734 206.072L261.249 206.648L262.1 207.497L263.001 208.443L263.523 209.375L263.746 210.498L263.69 211.512L263.473 212.43L263.206 213.164L262.697 213.869L262.467 214.828L262.504 215.37L262.759 215.877L262.641 216.445L262.752 217.172L262.846 218.46L262.902 218.864L263.088 219.021L263.094 219.2L263.026 219.515L262.939 219.878L262.839 220.227L262.734 220.405L262.529 220.501L262.417 220.693L262.311 220.878L262.038 220.947L261.771 221.063L261.721 221.399L261.796 221.762L261.995 222.009L262.206 222.05L262.61 221.879L262.976 221.783L263.181 221.824L263.405 221.968L263.523 222.201L263.492 222.31L263.349 222.735L263.032 223.187L262.945 223.495L262.889 223.79L262.895 224.002L262.746 224.592L262.721 225.044L262.585 225.421L262.547 225.859L262.529 226.154L262.311 226.517L262.138 226.935L261.976 227.305L261.622 227.723L261.479 228.25L261.467 228.422L261.572 228.668L261.858 229.031L262.318 229.367L262.653 229.593L262.709 229.833L262.634 230.148L262.398 230.361L261.883 231.011L261.585 231.313L261.523 231.594V232.073L261.504 232.546L261.336 232.944V232.957L261.287 233.416L261.33 233.752L261.529 234.191L262.001 234.499L262.405 234.629L262.746 234.828L263.063 235.088L263.144 235.355L263.057 235.835L262.746 236.082L262.038 236.534L261.243 236.801L261.063 237.034L261.038 237.301L261.343 237.52L261.815 237.678L262.131 237.973L262.28 238.514L262.411 239L262.436 239.055L262.647 239.302L262.87 239.336L263.187 239.24L263.423 239.295L263.647 239.74L263.821 240.419L263.802 240.878L263.492 241.857L262.833 243.303L262.2 244.338L261.883 244.961L261.622 245.454L261.181 246.044L261.131 246.085L260.846 246.345L260.69 246.859L260.653 247.366L260.933 247.852L261.579 248.716L262.398 249.565L262.783 250.244L262.877 250.812L262.721 251.162L262.293 251.292H262.249L261.784 251.278L261.231 251.079L260.864 250.853L260.603 250.936L260.38 251.347L260.479 251.765L260.87 251.991L261.15 252.463L261.405 253.251L261.79 254.361L262.237 254.704L262.895 255.362L263.138 255.93V256.389L262.839 256.732H262.554L261.989 256.362L261.436 255.766L261.026 255.026L260.666 254.444L260.349 254.293L259.97 254.478L259.771 255.142L259.498 256.013L259.454 256.718L259.249 256.937L258.665 257.698L257.703 258.356L257.082 259.041L257.038 259.801L257.33 260.452L257.827 260.98L258.473 261.5L258.622 261.795L258.703 262.206L258.628 262.652L258.429 263.008L258.094 262.967L257.684 262.699L257.318 262.46L257.013 262.391L256.653 262.59L256.38 262.994L256.262 263.446L256.504 263.988L256.846 264.296L257.2 264.371L257.51 264.31L257.578 264.515L257.597 265.029L257.454 265.762L257.125 266.626L256.771 267.167L256.212 267.591L255.901 267.865L255.877 268.153L256.075 268.462L256.56 268.551L256.97 268.592L257.231 268.777L257.877 269.763L258.547 270.497L259.603 271.6L260.367 272.257L261.106 272.86L261.405 273.265L261.398 273.703L261.299 274.381L260.808 275.066L260.224 275.841L259.628 276.704L258.771 277.533L258.318 278.184L258.243 278.622L258.429 279.081L258.864 279.308L259.504 279.63L260.516 280.027L261.287 280.294L261.684 280.52L261.989 281.034L262.069 281.822L262.051 282.391L261.697 282.61L260.926 282.822L260.535 282.973L260.473 283.459L260.79 283.932L261.082 284.624L261.311 285.111L261.485 285.474L261.523 286.029L261.697 286.371L261.709 286.385L261.075 286.454L260.287 286.166L259.262 285.645L257.1 284.658L258.193 283.507L258.647 282.555L258.852 281.466L258.659 280.685L257.653 279.02L257.125 277.129L255.169 277.279L253.796 277.293L250.572 277.512L249.578 277.547L249.734 279.328L249.957 280.808L249.914 282.171L250.162 283.233L250.603 284.069L250.765 284.542L250.821 284.843L250.659 284.878L249.852 284.939L249.212 285.028L248.274 285.371L247.572 285.46L247.255 286.077L246.914 286.803L246.38 287.283L246.324 287.31L246.113 287.981L245.982 288.262L245.97 288.29L245.932 288.283H245.523L244.709 288.427L240.349 289.338L239.951 289.386L239.218 289.578L238.821 289.585L238.672 289.578L238.162 289.523L237.684 289.413L236.889 289.242L236.001 289.023L235.926 288.55L235.591 286.734L235.125 284.343L234.964 283.734L234.976 283.692L235.193 283.117L235.541 281.363L235.554 280.493L235.672 279.691L235.932 279.047L236.013 277.184L236.609 276.176L237.485 275.58L239.044 274.416L240.33 273.443L240.547 273.128L240.963 272.161L241.373 270.078L241.523 269.208L241.572 267.598L241.342 266.098L241.007 263.926L240.727 262.288L240.293 260.815L239.945 259.096L239.765 258.164L239.529 256.547L239.33 254.814L239.286 253.532L239.094 252.594L238.889 251.915L238.752 249.997L238.436 248.983L238.404 247.852L238.063 246.941L238.106 245.982L238.392 245.242L238.597 244.735L238.386 244.358L237.976 243.673L237.721 242.159L237.318 239.494L237.119 238.589L237.019 237.075L236.821 235.814L236.684 233.848L236.498 232.149L236.485 231.011L236.64 230.272L237.144 229.943L237.311 229.908L237.87 229.812L238.97 229.655H238.988L239.56 229.49L239.696 228.997L239.659 228.689L239.026 228.038L238.392 226.853L237.79 225.592L237.249 224.009L237.001 223.057L237.125 221.255L237.311 220.351L237.665 219.124L237.709 218.076L237.603 217.877L237.237 217.768L237.168 217.624L237.305 217.048L237.56 216.288L237.342 215.678L237.038 214.438L237.007 214.417L236.634 213.951L236.454 213.301L236.467 212.691L237.057 211.869L237.448 211.094L237.672 210.402L237.684 209.827L237.349 209.361L236.839 208.95L236.665 208.621L236.659 208.189L236.653 207.504L236.467 205.97L236.46 205.209L236.609 204.126L236.883 203.058L236.436 201.742V201.735Z" fill="white" stroke="white" stroke-width="2" stroke-linecap="square" stroke-linejoin="bevel"/>
<path fill-rule="evenodd" clip-rule="evenodd" d="M234.963 283.733L235.125 284.343L235.591 286.734L235.926 288.55L236.001 289.022L236.889 289.242L237.684 289.413L238.162 289.523L238.672 289.578L238.821 289.584L239.218 289.578L239.951 289.386L240.349 289.338L244.709 288.426L245.523 288.282H245.932L245.97 288.289L246.491 288.461L246.988 288.666L247.38 288.872L247.56 289.481L247.765 289.831L248.249 290.098L248.603 290.201L248.69 290.564L248.858 291.105L248.889 291.715L249.007 292.03L248.79 292.154L248.367 292.229L248.05 292.263L248.2 293.168L248.293 294.12L248.628 295.525L247.827 295.744L246.752 296.045L243.181 294.044L241.212 293.455L239.889 294.346L238.901 295.079L238.858 295.093L238.162 295.278L237.404 295.374L236.895 295.203L236.765 295.593L236.585 296.456L236.404 297.607L236.491 299.08L236.765 300.876L235.821 300.601L235.15 300.334L234.535 300.074L234.044 299.587L233.435 298.978L232.758 298.258L232.293 297.909L232.187 297.847L231.684 297.676L230.901 297.635L229.088 297.594L227.833 297.69L226.454 297.833L226.448 298.251L225.659 298.224L225.162 298.327L224.162 298.601L222.566 298.957L222.342 298.676L222.156 298.498L221.622 298.217L220.883 297.806L220.597 297.628L220.162 296.819L219.789 296.086L219.448 296.011L218.678 295.874L218.286 295.949L217.075 296.189L216.622 296.443L216.547 296.162L216.336 295.113L216.181 294.394L215.957 293.908L215.709 293.387L215.647 292.873L215.665 292.572V292.51L216.156 291.4L216.653 290.187L216.429 289.961L216.206 289.317L216.007 288.954L215.578 288.714L215.553 288.707L215.274 288.358L214.777 287.947L214.249 287.152L214.131 286.734L214.044 286.453L213.92 286.193L213.429 285.679L213.15 285.336L213.063 284.98L213.057 284.727L212.988 284.405L212.466 283.521L212.174 282.918L211.907 282.383L211.777 281.822L211.634 281.068L211.628 281.054L212.348 280.855L212.945 280.677L213.671 280.52L214.429 280.369L215.206 280.198L215.963 280.143L216.622 280.026L217.379 279.985L217.914 279.965L218.094 280.013L218.367 279.869L218.945 279.732L218.926 279.403L219.013 279.067L218.963 278.725L218.988 278.43L219.1 278.293L220.019 277.964L220.628 277.759L221.274 277.656L221.522 277.622L221.64 277.704L221.87 277.964L222.23 278.19L222.336 278.286L222.442 278.444L222.771 278.999L222.864 279.129L222.994 279.184H223.727L224.286 279.122L224.597 279.06L225.218 278.601L225.33 278.492L226.001 279.225L226.479 279.821L226.858 280.225L227.23 280.479L228.187 280.616L229.727 280.855L232.522 281.308L233.007 281.397L233.74 282.267L234.541 283.13L234.945 283.665L234.963 283.733Z" fill="white" stroke="white" stroke-width="2" stroke-linecap="square" stroke-linejoin="bevel"/>
<path fill-rule="evenodd" clip-rule="evenodd" d="M236.436 201.735V201.742L236.883 203.058L236.609 204.126L236.46 205.209L236.467 205.97L236.653 207.504L236.659 208.189L236.665 208.621L236.839 208.95L237.349 209.361L237.684 209.827L237.672 210.402L237.448 211.094L237.057 211.869L236.467 212.691L236.454 213.301L236.634 213.951L237.007 214.417L237.038 214.438L237.342 215.678L237.56 216.288L237.305 217.048L237.168 217.624L237.237 217.768L237.603 217.877L237.709 218.076L237.665 219.124L237.311 220.351L237.125 221.255L237.001 223.057L237.249 224.009L237.79 225.592L238.392 226.853L239.026 228.038L239.659 228.689L239.697 228.997L239.56 229.491L238.988 229.655H238.97L237.87 229.813L237.311 229.909L237.144 229.943L236.641 230.272L236.485 231.012L236.498 232.149L236.684 233.848L236.821 235.814L237.019 237.075L237.119 238.589L237.318 239.494L237.721 242.159L237.976 243.673L238.386 244.358L238.597 244.735L238.392 245.242L238.106 245.982L238.063 246.941L238.405 247.852L238.436 248.983L238.752 249.997L238.889 251.915L239.094 252.594L239.287 253.532L239.33 254.814L239.529 256.547L239.765 258.164L239.945 259.096L240.293 260.815L240.728 262.289L241.007 263.926L241.342 266.098L241.572 267.598L241.523 269.208L241.374 270.079L240.964 272.161L240.547 273.128L240.33 273.443L239.044 274.416L237.485 275.58L236.609 276.176L236.013 277.184L235.932 279.047L235.672 279.691L235.554 280.493L235.541 281.363L235.193 283.117L234.976 283.692L234.964 283.734L234.945 283.665L234.541 283.131L233.74 282.267L233.007 281.397L232.523 281.308L229.727 280.856L228.187 280.616L227.231 280.479L226.858 280.226L226.479 279.821L226.001 279.225L225.33 278.492L225.218 278.602L224.597 279.061L224.286 279.123L223.727 279.184H222.995L222.864 279.129L222.771 278.999L222.442 278.444L222.336 278.287L222.231 278.191L221.87 277.965L221.64 277.704L221.522 277.622L221.274 277.656L220.628 277.759L220.019 277.965L219.1 278.293L218.988 278.431L218.963 278.725L219.013 279.068L218.926 279.403L218.945 279.732L218.367 279.869L218.094 280.013L217.914 279.965L217.38 279.986L216.622 280.027L215.963 280.143L215.206 280.198L214.429 280.369L213.671 280.52L212.945 280.678L212.348 280.856L211.628 281.055L211.603 281.061L211.044 281.137L210.342 281.527L210.274 281.555L209.255 282.048L208.293 282.5L207.479 282.877L206.976 283.206L206.51 283.734L206.007 284.213L206.001 284.241L205.485 284.652L205.442 284.686L204.926 284.974L204.901 284.98L204.293 284.994L202.789 284.83L202.268 284.741L202.05 284.679L201.771 284.638L201.727 284.611L201.336 284.617L200.957 284.679H200.92L200.373 284.693L199.969 284.7L199.907 284.686L199.647 284.617H199.609L199.336 284.583H199.28L199.038 284.624H199.013L198.622 284.665H198.603L198.23 284.693H198.199L197.783 284.658L197.435 284.604L197.162 284.583L197.137 284.569L196.796 284.563L196.541 284.611L196.324 284.782L196.255 284.802L195.994 284.926L195.702 284.967H195.671L195.268 284.946L194.932 284.768L194.485 284.7L194.038 284.706H194.019L194.05 280.876L193.926 273.751L193.758 273.045L190.001 269.825L187.665 268.263L185.299 266.119L184.566 265.276L183.938 265.118L183.851 264.036L183.15 263.159L182.491 262.179L182.386 261.35L182.56 260.37L182.261 259.548L181.74 259.027L181.019 258.465L179.789 258.383L179.23 257.664L178.733 256.8L178.951 255.643L177.876 255.334L176.839 255.444L175.59 255.553L174.491 255.149L173.758 254.142L173.342 252.923L172.236 252.121L172.094 250.922L172.05 249.812L171.665 248.935L170.702 248.449L169.69 248.181L169.125 247.462L169.174 246.119L168.889 245.139L169.174 243.762L168.379 243.132L167.938 242.227L167.33 241.22L167.354 239.795L167.336 238.576L167.665 237.02L166.994 236.137L166.236 235.02L164.317 235.698L163.398 235.842L163.286 234.232L162.398 233.122L160.566 231.005L157.901 229.573L157.255 230.662L156.118 231.183L154.584 230.45L151.845 231.039L150.472 231.594L149.615 232.252L148.267 233.492H147.708L145.801 232.375L144.124 232.498L143.323 230.546L142.23 230.114L141.187 230.244L140.621 230.738L139.081 230.621L138.124 230.388L137.46 229.751L136.851 229.593L136.882 229.196L136.708 228.285L136.553 227.264L135.621 226.462L134.509 225.661L134.41 225.188L134.491 223.831L134.522 221.892L133.485 221.474L132.64 221.639L132.013 221.145L131.447 220.44L129.447 218.967L128.454 217.247L128.391 216.418L129.509 215.938L130.199 215.452L131.323 213.458L133.068 211.046L134.317 209.464L134.068 208.155L133.131 207.333L133.696 206.572L134.69 206.435L134.951 205.257L135.472 204.997L135.522 204.846L135.746 204.106L136.112 203.503L135.789 202.79L134.808 202.338L135.062 201.633L134.578 200.386L134.013 198.686L132.621 198.207L132.236 196.994L131.267 195.569H132.559V195.535L135.609 195.542L142.398 195.364L150.975 195.048L151.957 194.219L152.429 193.74L152.46 193.719L152.503 193.705L152.566 193.685L153.547 193.63H153.584L154.491 193.808L154.534 193.815L155.727 194.096L156.733 194.493L157.031 194.651L157.609 194.699L159.075 194.658L160.211 194.665L161.907 194.904L161.926 194.911L162.932 195.076L166.963 195.055L168.951 194.281L169.808 196.357L171.193 198.721L173.441 197.727L174.684 196.864H176.367L177.199 195.768L181.653 195.076L184.373 193.815L184.466 193.02L184.504 192.698L187.851 195L188.976 197.234L192.131 197.727L198.82 195.864L198.74 197.337L203.193 197.364L205.572 197.344L205.69 197.398L206.963 197.953L208.23 198.782L208.752 199.742L209.547 199.927L210.572 199.913L210.597 199.885L211.858 199.31L214.752 199.351L215.622 199.433L215.74 199.372L217.063 199.111L217.094 199.077L218.057 199.036L218.597 198.974L219.808 199.146L221.137 199.605L221.653 200.29L222.199 200.749L222.262 200.783L222.833 201.215L223.199 201.708L224.05 202.386L225.106 202.818L225.162 202.811L226.1 202.962H226.187L227.845 202.763L230.069 202.708L231.541 202.448L233.647 202.181L233.765 202.119L233.945 202.085L235.814 201.948L236.436 201.735Z" fill="white" stroke="white" stroke-width="2" stroke-linecap="square" stroke-linejoin="bevel"/>
<path fill-rule="evenodd" clip-rule="evenodd" d="M211.628 281.054L211.634 281.067L211.777 281.821L211.907 282.383L212.175 282.917L212.466 283.52L212.988 284.404L213.057 284.726L213.063 284.98L213.15 285.336L213.429 285.678L213.92 286.192L214.044 286.453L214.131 286.734L214.249 287.152L214.777 287.946L215.274 288.357L215.553 288.707L215.578 288.714L216.007 288.953L216.206 289.317L216.429 289.961L216.653 290.187L216.156 291.399L215.665 292.509V292.571L215.647 292.872L215.709 293.386L215.957 293.907L216.181 294.393L216.336 295.113L216.547 296.161L216.622 296.442L217.075 296.189L218.286 295.949L218.678 295.873L219.448 296.01L219.789 296.086L220.162 296.819L220.597 297.628L220.883 297.806L221.622 298.217L222.156 298.497L222.342 298.676L222.566 298.957L224.162 298.6L225.162 298.326L225.659 298.223L226.448 298.251L226.454 297.833L227.833 297.689L229.088 297.593L230.901 297.634L231.684 297.675L232.187 297.847L232.293 297.908L232.759 298.258L233.436 298.977L234.044 299.587L234.535 300.073L235.15 300.334L235.821 300.601L236.765 300.875L238.727 313.954L238.311 314.119L237.094 314.722L235.436 315.51L234.79 317.01L233.684 320.566L230.193 321.053L228.349 320.683L228.64 320.155L227.168 319.799L226.33 320.004L224.796 320.093L223.467 320.148L222.001 320.23L219.175 319.689L217.38 319.559L214.348 319.271L213.137 318.929L212.224 318.682L211.206 318.497L210.752 318.47L210.317 319.203L209.932 319.394L209.249 319.305L208.802 318.846L208.541 318.326L208.025 318.703L206.628 319.696L205.802 319.812L204.622 318.586L203.814 318.339L203.609 318.065L203.15 316.613L202.907 316.065L202.398 315.736L201.15 315.955L200.603 315.565L199.765 314.105L199.895 313.016L199.982 311.029L199.553 309.946L198.535 309.364L197.951 308.124L196.609 306.754L195.013 305.061L193.932 304.28L193.957 292.379L194.019 284.706H194.038L194.485 284.699L194.932 284.767L195.268 284.945L195.671 284.966H195.702L195.994 284.925L196.255 284.801L196.323 284.781L196.541 284.61L196.796 284.562L197.137 284.569L197.162 284.582L197.435 284.603L197.783 284.658L198.199 284.692H198.23L198.603 284.664H198.622L199.013 284.623H199.038L199.28 284.582H199.336L199.609 284.617H199.647L199.907 284.685L199.969 284.699L200.373 284.692L200.92 284.678H200.957L201.336 284.617L201.727 284.61L201.771 284.637L202.05 284.678L202.268 284.74L202.789 284.829L204.293 284.993L204.901 284.98L204.926 284.973L205.442 284.685L205.485 284.651L206.001 284.24L206.007 284.212L206.51 283.733L206.976 283.205L207.479 282.876L208.293 282.499L209.255 282.047L210.274 281.554L210.342 281.527L211.044 281.136L211.603 281.061L211.628 281.054Z" fill="white" stroke="white" stroke-width="2" stroke-linecap="square" stroke-linejoin="bevel"/>
<path fill-rule="evenodd" clip-rule="evenodd" d="M260.734 206.071L262.97 205.851L265.554 205.714L269.162 205.838L271.665 205.769L272.883 205.687L276.212 205.81L278.218 205.845H278.268L279.653 205.858L281.225 205.92H281.299L283.02 205.934H283.088L284.448 205.851L284.548 205.797L284.666 205.776L284.734 205.749L286.02 205.344L286.187 205.317L287.169 205.139L288.268 205.153L289.926 205.139L291.312 205.009L292.572 204.824L293.479 204.94L293.603 204.988L294.846 205.406L294.871 205.427L296.256 205.495L296.902 205.783L298.262 206.687L298.243 206.852L299.2 208.373L300.709 210.75L300.765 210.798L300.821 210.853L300.858 210.887L301.001 211.799L301.299 212.312L301.827 212.895L302.156 213.367L302.243 213.751L302.274 214.566L302.237 215.245L302.336 215.649L302.473 216.081L302.889 216.615L303.392 217.067L303.97 217.424L304.399 217.684L304.771 218.225L305.045 218.746L305.293 219.28L305.902 219.931L306.15 220.431L306.368 220.808L306.548 221.487L306.554 221.541L306.641 222.076L306.846 222.432L307.703 223.213L308.995 224.104L309.684 224.686L310.032 225.049L310.802 225.83L311.678 226.659L311.933 227.125L312.392 228.009L312.877 228.948L313.473 229.53L314.082 229.866L314.25 230.181L314.423 230.448L314.56 230.88L314.74 231.551L314.958 232.004L315.504 232.428L316.231 233.148L316.821 233.792L317.274 234.264L317.951 234.984L318.715 235.676L319.132 235.984L319.486 236.505L319.815 236.95L320.045 237.128L320.417 237.354L320.591 237.567L320.684 238.115L320.473 238.937L320.368 239.458L320.436 239.862L320.548 240.177L320.964 240.355L321.07 240.444L321.542 240.677L321.759 240.931L321.958 241.404L322.181 241.678L322.573 241.828L322.604 241.87L322.79 242.144L322.778 242.596L322.865 243.185L323.194 243.493L323.473 243.651L323.945 243.774L324.212 243.87L324.343 244.014L324.349 244.096L324.324 244.233L324.318 244.281L324.293 244.322L323.778 244.651L322.945 245.254L322.498 245.563L322.169 245.802L322.132 245.85L322.113 246.282L322.051 246.919L321.672 247.584L321.274 248.632L321.119 249.571L321.169 250.112L321.212 250.824L321.169 251.715L321.051 252.613L321.101 253.298L321.343 253.866L321.846 254.558L322.324 255.107L322.995 256.038L323.281 256.58L323.653 257.258L323.877 257.895L323.983 258.019H324.088L323.97 258.293L323.74 258.793L323.25 259.355L323.007 259.773L322.666 260.177L322.082 260.238L321.604 260.519L321.225 261.3L320.243 262.253L319.697 263.246L319.045 264.575L318.312 265.576L317.597 265.692L316.597 265.774L315.2 266.281L313.939 266.98L313.163 267.158L312.33 267.405L311.299 267.953L310.535 268.885L310.504 268.905L309.666 270.159L309.647 270.173L308.256 271.447L308.206 271.495L307.796 272.749L307.802 273.421V273.441L306.821 274.25L306.759 274.311L305.784 275.469L305.722 275.531L305.703 275.565L305.032 276.401L304.97 276.469L304.895 276.517L303.989 276.908H303.864L303.74 276.874H303.659L302.889 276.723L302.442 276.312L302.02 275.894L301.659 275.161L301.647 275.099L301.287 274.188L300.79 273.982L300.777 274.003L300.715 274.065L299.535 274.921L299.454 274.969L299.392 275.017L297.982 275.99L296.113 276.147L295.175 276.168L293.74 276.497L292.28 276.572L291.2 276.627L289.529 277.12L288.883 277.915L288.349 278.717L288.2 279.135L288.305 279.47L288.467 279.744V280.032L288.374 280.45L288.299 280.765L288.305 281.327L288.249 281.827L287.989 282.307L287.579 282.93L286.839 283.835L285.802 285.472L285.144 286.377L284.305 287.212L283.324 288.055L282.02 289.021L281.256 289.843L280.759 290.947L280.56 290.967H280.249L279.082 290.974L277.461 291.104L276.243 290.947L275.411 290.748L274.603 290.302L272.976 288.994L272.2 288.35L271.057 287.493L270.231 287.24L269.597 287.13L268.709 287.034L267.051 286.658L267.013 286.452L267.224 284.328L264.293 284.492L263.585 284.993L263.088 285.5L262.616 286.034L261.827 286.37L261.709 286.383L261.696 286.37L261.523 286.027L261.485 285.472L261.311 285.109L261.082 284.623L260.79 283.931L260.473 283.458L260.535 282.971L260.926 282.821L261.696 282.608L262.051 282.389L262.069 281.82L261.988 281.032L261.684 280.519L261.287 280.293L260.516 280.025L259.504 279.628L258.864 279.306L258.429 279.08L258.243 278.621L258.318 278.182L258.771 277.531L259.628 276.702L260.224 275.839L260.808 275.065L261.299 274.38L261.398 273.701L261.405 273.263L261.106 272.859L260.367 272.256L259.603 271.598L258.547 270.495L257.877 269.762L257.231 268.775L256.97 268.59L256.56 268.549L256.075 268.46L255.877 268.152L255.901 267.864L256.212 267.59L256.771 267.165L257.125 266.624L257.454 265.761L257.597 265.028L257.578 264.514L257.51 264.308L257.2 264.37L256.846 264.294L256.504 263.986L256.262 263.445L256.38 262.993L256.653 262.588L257.013 262.39L257.318 262.458L257.684 262.698L258.094 262.965L258.429 263.006L258.628 262.65L258.703 262.205L258.622 261.794L258.473 261.499L257.827 260.978L257.33 260.451L257.038 259.8L257.082 259.039L257.703 258.354L258.665 257.697L259.249 256.936L259.454 256.717L259.498 256.011L259.771 255.141L259.97 254.476L260.349 254.291L260.665 254.442L261.026 255.024L261.436 255.764L261.988 256.36L262.554 256.73H262.839L263.137 256.388V255.929L262.895 255.36L262.237 254.702L261.79 254.36L261.405 253.25L261.15 252.462L260.87 251.989L260.479 251.763L260.38 251.345L260.603 250.934L260.864 250.852L261.231 251.078L261.783 251.277L262.249 251.29H262.293L262.721 251.16L262.877 250.811L262.783 250.242L262.398 249.564L261.578 248.714L260.932 247.851L260.653 247.364L260.69 246.857L260.846 246.344L261.131 246.083L261.181 246.042L261.622 245.453L261.883 244.96L262.2 244.336L262.833 243.302L263.491 241.856L263.802 240.876L263.821 240.417L263.647 239.739L263.423 239.293L263.187 239.239L262.87 239.335L262.647 239.3L262.436 239.054L262.411 238.999L262.28 238.512L262.131 237.971L261.814 237.677L261.342 237.519L261.038 237.3L261.063 237.032L261.243 236.8L262.038 236.532L262.746 236.08L263.057 235.833L263.144 235.354L263.063 235.087L262.746 234.826L262.405 234.628L262.001 234.497L261.529 234.189L261.33 233.751L261.287 233.415L261.336 232.956V232.942L261.504 232.545L261.523 232.072V231.592L261.585 231.312L261.883 231.01L262.398 230.359L262.634 230.147L262.709 229.832L262.653 229.592L262.318 229.366L261.858 229.03L261.572 228.667L261.467 228.42L261.479 228.249L261.622 227.721L261.976 227.303L262.137 226.933L262.311 226.516L262.529 226.152L262.547 225.858L262.585 225.419L262.721 225.042L262.746 224.59L262.895 224.001L262.889 223.789L262.945 223.494L263.032 223.186L263.349 222.734L263.491 222.309L263.523 222.199L263.405 221.966L263.181 221.822L262.976 221.781L262.61 221.877L262.206 222.048L261.995 222.007L261.796 221.761L261.721 221.398L261.771 221.062L262.038 220.945L262.311 220.877L262.417 220.692L262.529 220.5L262.734 220.404L262.839 220.226L262.939 219.876L263.026 219.513L263.094 219.198L263.088 219.02L262.901 218.862L262.846 218.458L262.752 217.17L262.641 216.444L262.759 215.875L262.504 215.368L262.467 214.827L262.696 213.868L263.206 213.162L263.473 212.429L263.69 211.511L263.746 210.497L263.523 209.373L263.001 208.441L262.1 207.496L261.249 206.646L260.734 206.071Z" fill="white" stroke="white" stroke-width="2" stroke-linecap="square" stroke-linejoin="bevel"/>
<path fill-rule="evenodd" clip-rule="evenodd" d="M338.455 150.315L338.424 150.39L337.691 151.165L337.38 152.028L336.753 152.521L336.331 153.076L335.654 153.453L334.523 153.98L333.902 154.446V154.556L333.815 155.262V155.378L334.163 156.543L334.144 158.016L333.865 158.838L333.07 159.839L331.97 160.407L331.573 160.832L330.157 161.818L328.914 162.901L327.424 163.244L325.834 162.545L325.088 162.778L324.467 163.312L324.436 163.415L323.473 163.997L322.685 164.525L322.33 165.306L321.535 166.868L320.666 167.437L320.281 168.108L320.318 168.136L320.486 169.711L320.964 171.417L321.045 172.294L321.976 172.925L322.063 172.986L322.144 173.014L322.666 173.672L323.492 175.7L323.821 177.481L324.585 180.256L324.579 180.372L324.38 181.304L323.672 182.907L324.629 183.024H324.771L325.871 183.264L326.045 183.38L326.778 184.024L326.858 184.079L326.89 184.168L327.337 185.525L328.219 187.1L329.318 188.094L329.393 188.142L329.449 188.231L330.225 188.957L329.529 189.848L328.765 190.649L328.734 190.711L328.368 191.362L328.219 192.897L327.939 193.363L326.331 193.959L326.299 194L324.722 194.377L323.25 194.665L321.585 194.603L320.883 194.651L321.132 195.918L321.865 197.713L321.604 198.487V198.549L321.579 198.604L321.324 199.214L321.076 200.666L320.355 201.55V201.639L319.647 202.105V202.187L318.858 202.598V202.688L318.119 203.208L317.566 204.161L316.734 204.811L315.802 205.044L314.417 204.544L312.417 203.229L310.107 201.564L309.374 201.358L309.007 201.838L308.386 202.934V203.051L307.846 203.982V204.072L307.815 204.126L307.281 204.859L305.883 204.503L305.753 204.442L302.343 203.448L300.399 203.297L299.889 204.38L299.181 205.25L298.361 205.805L298.262 206.689L296.902 205.784L296.256 205.497L294.871 205.428L294.846 205.408L293.604 204.99L293.479 204.942L292.573 204.825L291.312 205.01L289.927 205.14L288.268 205.154L287.169 205.14L286.187 205.318L286.02 205.346L284.734 205.75L284.666 205.778L284.548 205.798L284.448 205.853L283.088 205.935H283.02L281.299 205.921H281.225L279.653 205.86L278.268 205.846H278.218L276.212 205.812L272.883 205.688L271.666 205.771L269.162 205.839L265.554 205.716L262.97 205.853L260.734 206.072L260.013 205.716L259.796 205.682L259.224 205.003L257.982 204.64L257.044 204.955L255.032 204.839L252.982 204.62L251.572 204.407L251.162 203.537L249.106 203.03L248.411 202.468L247.777 200.707L245.964 200.858L242.951 201.139L240.715 201.221L238.939 201.249L236.436 201.735L235.814 201.948L233.945 202.085L233.765 202.119L233.647 202.181L231.541 202.448L230.069 202.708L227.845 202.763L226.187 202.962H226.1L225.162 202.811L225.106 202.818L224.05 202.386L223.199 201.708L222.833 201.214L222.261 200.783L222.199 200.749L221.653 200.29L221.137 199.604L219.808 199.145L218.597 198.974L218.056 199.036L217.094 199.077L217.063 199.111L215.74 199.371L215.622 199.433L214.752 199.351L211.858 199.31L210.597 199.885L210.572 199.913L209.547 199.926L208.752 199.741L208.23 198.782L206.963 197.953L205.69 197.398L205.572 197.343L203.193 197.364L198.74 197.337L198.82 195.864L192.131 197.727L188.976 197.234L187.851 195L184.504 192.698L184.466 193.02L184.373 193.815L181.653 195.075L177.199 195.767L176.367 196.864H174.684L173.441 197.727L171.193 198.721L169.808 196.357L168.951 194.281L166.963 195.055L162.932 195.075L161.926 194.911L161.907 194.904L160.211 194.665L159.075 194.658L157.609 194.699L157.031 194.651L156.733 194.493L155.727 194.096L154.534 193.815L154.491 193.808L153.584 193.63H153.547L152.565 193.685L152.503 193.705L152.46 193.719L152.429 193.739L151.957 194.219L150.975 195.048L142.398 195.363L135.609 195.542L132.559 195.535V195.035L132.112 193.445L132.752 193.335L134.255 193.075L134.895 191.444L135.398 191.965L135.913 191.91L138.857 191.472L139.342 190.581L139.218 189.183L139.379 188.251L138.534 187.196L138.373 184.702L137.733 183.551L138.286 183.051L138.857 182.592L138.832 182.03L138.23 181.695L138.87 180.557L140.056 179.317L140.23 178.509L140.547 178.303L141.1 178.262L141.547 178.118L142.031 177.604L142.671 177.481L142.77 177.097L142.671 176.542L143.236 176.07L143.596 175.432L143.87 174.857L144.478 174.542L144.323 173.802L144.391 173.261L144.994 172.884L145.18 172.096L145.342 171.726L145.975 171.712L146.298 171.493L147.18 170.534L147.584 168.396V165.724L145.671 164.381L144.379 163.84L140.261 160.969L138.143 159.839L138.112 159.688L137.814 159.434L137.162 159.311L136.447 157.557L135 155.543L135.721 153.617L135.292 152.213L135.416 147.999L134.696 147.355L135.037 146.759L134.839 146.3L134.373 145.855L133.814 145.368L133.578 144.978L133.658 143.861L133.298 142.258L131.963 139.716L129.801 139.428L129.739 139.407L129.571 139.401L129.298 138.846L129.056 137.174L130.025 135.242L128.894 134.659L129.236 133.036L128.329 130.295L129.416 127.822L127.783 126.349L126.068 125.801L125.957 125.191L125.609 124.739L124.901 124.649L124.416 124.999L123.77 125.156L123.267 124.944L122.764 124.684L122.404 124.636L121.957 124.512L121.236 124.149V124.142L121.422 123.546L121.969 122.745L121.727 121.47L120.453 120.271L121.118 118.73L121.665 117.462L120.907 116.921L120.814 115.996L120.571 115.126L120.876 114.454L119.907 113.338L123.18 113.817L125.708 114.269L126.957 114.633L128.957 116.291L131.373 117.209L133.124 118.593L135.547 119.237L137.379 118.312L138.795 116.565L141.131 114.913L142.329 114.208L142.721 114.283L143.304 114.201L143.851 114.653L144.006 115.05L143.435 115.003L143.329 115.489L143.298 116.263L143.615 116.578L143.64 115.934L144.1 115.612L144.292 115.77L144.547 115.982L145.019 116.202L145.41 116.482L145.963 116.284L146.155 116.64L146.888 116.791L146.503 117.147L146.087 117.962L147.131 119.785H147.752L147.69 120.292L148.367 120.264V120.908L148.044 122.251L147.975 123.245L148.367 123.813L149.392 124.382L149.957 125.972L150.193 126.52L150.478 126.842L151.056 126.719L151.901 127.075L152.609 127.712L153.379 128.349L154.019 130.192L153.957 130.973L154.267 131.611L154.584 131.953L155.367 131.891L155.69 132.392L155.628 133.666L155.118 136.276L155.541 136.215L155.888 136.365L155.826 137.071L156.236 137.393L156.628 137.078L157.075 136.811L157.46 137.297L157.857 136.989L158.416 136.523L158.969 136.619L159.497 136.948L159.951 136.756L160.447 137.133L160.882 137.14L161.137 136.448L161.541 136.42L161.802 136.866L161.659 137.578L162.696 137.777L164.69 139.051L165.013 139.983L165.23 140.339L165.013 140.887L165.404 141.23L165.814 141.429L166.025 141.237L167.323 141.038L167.547 140.38L167.634 140.463L168.125 140.483L168.839 140.195L169.292 139.983L169.125 139.414L169.472 139.421L169.789 139.743L169.845 139.524L169.951 139.209L170.305 139.544L170.783 140.175L170.857 139.27H171.118L172.212 141.182L171.696 141.751L171.503 142.669L172.019 142.813L172.851 142.957L172.944 142.107L174.845 142.312L175.485 143.662L176.963 143.731L178.876 144.101L178.944 143.861L179.535 142.312L178.764 140.826L179.342 139.195L177.348 137.14L177.808 136.132L178.994 135.975L181.075 135.701L181.994 134.413L181.41 133.214L180.075 131.563L179.969 130.254L180.149 130.042L179.87 129.678L179.758 129.322L180.156 129.171L180.628 129.356L180.901 129.726L181.143 130.076L182.162 129.076L181.994 127.328V125.396L184.081 123.923L185.41 122.635L188.249 120.799L189.913 119.785L190 117.305L192.752 117.579L193.752 117.12L194.845 116.284L195.733 120.011L196.466 121.073H198.274L202.504 121.326L203.988 119.812L205.131 120.819L206.615 120.066H207.988L209.013 121.073L209.69 122.943L211.187 121.58L212.535 122.457L212.839 122.169L213.404 121.854L215.529 119.812L215.87 120.573L216.553 121.703L216.112 123.855L217.143 125.088V124.827L217.299 124.485L217.479 124.184L217.597 123.896L218.162 123.683L218.777 123.403L219.237 122.998L219.951 122.436L220.535 121.861L220.771 121.299L220.839 120.771L221.293 120.71L221.895 120.868L222.311 120.806L222.858 120.977L223.553 120.737L226.56 122.621L229.137 122.724L230.92 122.429L232.342 122.724L236.523 124.78L238.585 125.3L242.653 127.335L243.69 129.158L245.442 132.303L247.044 131.912L247.342 129.404L247.547 128.507L248.523 126.451L249.324 123.211L249.858 121.45L250.783 120.176L251.082 119.737L251.516 119.483L252.957 118.175L253.237 117.229L253.839 117.503L255.106 116.736L255.342 115.695L256.988 115.14L258.243 114.365L259.933 114.406L260.541 113.708L262.256 114.297L262.672 114.311L263.206 114.228L263.572 114.516L263.914 114.715L265.541 113.427L266.187 112.666L267.274 113.297L269.194 114.146L270.243 114.036L270.796 113.708L270.995 113.07L271.2 112.735L271.305 112.07L271.659 111.584L271.678 111.2L272.889 110.755L274.579 108.398L277.051 107.507L277.958 107.192L279.281 107L280.604 107.26L281.653 107.555L282.026 107.658L281.181 109.33L282.187 111.782L284.076 112.029L286.076 112.152H288.523H290.187L292.417 113.625L294.417 114.482H296.305L297.864 114.728L299.641 115.955L300.865 117.914L302.641 119.881L305.088 121.84L307.983 123.677H310.759L312.542 125.396L312.821 126.383L312.672 126.554V128.103L313.206 129.5L314.2 129.72L314.43 130.179L316.43 132.022L318.759 133.837L319.343 133.543L320.678 134.132L321.076 134.94L322.436 137.784L325.647 140.031L325.747 141.12L327.368 141.024L328.734 141.805L330.747 142.004L330.672 142.813L329.48 143.772L330.014 144.505L331.082 143.991L331.349 144.875L333.001 144.313L333.89 145.019L333.927 145.053L333.418 146.348L333.685 147.232L335.386 146.259L336.685 145.978L336.554 147.232L338.455 150.315Z" fill="white" stroke="white" stroke-width="2" stroke-linecap="square" stroke-linejoin="bevel"/>
<path fill-rule="evenodd" clip-rule="evenodd" d="M238.727 313.954L239.007 313.845L239.038 313.831L239.355 314.797L242.106 314.174L242.535 313.118L243.728 313.057L244.212 311.926L247.926 311.399L248.852 312.385L249.572 313.564L251.504 314.523L252.591 314.331L253.783 314.119L254.982 312.906L256.082 313.598L256.79 313.406L258.746 312.694L260.454 312.289L261.945 312.413L263.063 312.488L263.703 312.516L264.79 312.954L265.367 313.249L266.063 313.954L267.225 314.064L269.74 314.311L272.498 316.421L273.38 320.504L273.392 321.628L273.635 322.245L273.79 323.074L273.933 323.642L274.349 323.485L274.958 323.396L276.038 322.841L276.734 321.772L276.802 320.84L276.318 320.251L275.69 319.572L275.635 318.579L276.131 317.75L276.883 318.408L277.883 319.833L278.728 320.6L279.74 321.08L280.728 320.669L281.628 320.23L282.933 319.655L284.2 319.244L284.51 319.168L286.467 319.895L290.585 319.525L290.753 319.668L291.38 320.107L291.821 320.998L292.448 321.607L292.933 322.101L293.1 322.662L293.368 323.56L294.163 323.868L294.746 324.211L295.51 325.211L296.417 325.739L297.125 326.013L297.616 326.431L297.951 326.78L298.455 327.349L298.865 327.952L299.287 328.335L299.951 329.164L300.56 330.117L301.038 330.775L301.597 331.282L302.262 331.713L302.759 331.871L303.691 332.433L304.181 332.782L304.914 332.974L305.2 334.118L305.92 335.077L306.262 336.002L306.548 336.694L306.827 337.681L307.585 338.736L307.759 339.065L308.014 339.853L308.448 339.812L308.84 339.346L309.579 338.983L310.709 338.482L312.275 338.955L313.417 340.14L314.498 341.12L315.051 341.792L315.579 342.155L316.2 342.621L316.796 342.785L317.237 343.333L317.653 343.772L318.448 344.389L319.032 344.813L319.809 345.19L320.573 345.978L321.243 346.992L326.442 348.26L330.001 349.239L331.778 351.692L332.89 354.515L331.337 356.235L327.001 357.338L322.989 357.118L322.529 357.879L322.33 358.365L322.449 359.071L323.175 360.071L324.107 361.627L327.287 363.655L328.784 364.463L330.281 364.806L332.504 367.238L333.647 368.78V373.274L332.299 374.069L328.685 375.309L327.306 375.165L327.07 374.788L326.237 374.74L325.498 374.912L324.902 374.85L324.337 374.795L323.703 374.836L323.107 374.316L322.318 373.891L321.591 373.63L321.2 373.946L320.964 374.391L320.442 374.877L319.778 375.24L318.834 375.165L318.15 374.576L317.101 374.391H315.889L314.299 374.473L313.144 374.432L312.032 374.446L310.61 374.439L309.281 374.521L308.231 374.494L307.765 374.453L306.243 376.131L306.038 375.871L300.585 376.275L300.15 376.398L299.579 376.583L299.076 376.35L298.337 376.46L297.765 376.008L297.051 375.665L296.063 375.384L294.97 375.473L293.976 375.617L292.927 375.432L292.498 374.932L291.479 374.857L290.442 375.001L289.889 374.754L289.1 374.891L287.871 374.953L286.448 374.788L285.069 374.686L284.026 374.466L282.902 374.514L281.579 374.781L281.057 375.158L280.281 375.467L279.281 375.747L279.032 375.83L278.51 375.987L277.722 375.885L277.162 375.275L276.56 375.371L275.852 375.96L274.523 376.296L273.852 375.761L273.28 374.932L272.864 374.158L272.28 373.589L271.386 373.199L270.119 373.233L268.69 373.452L267.61 373.391L266.827 373.384L265.243 373.432L264.852 373.439H264.504L263.225 373.288L261.523 373.281L259.995 373.302L258.485 373.452L256.964 373.555L255.926 373.212L254.56 373.459L253.696 373.487L252.28 373.528L249.945 373.521L248.926 373.137L248.821 372.281L248.392 371.65L247.734 370.849L247.181 370.136L246.641 370.26L245.914 370.04L245.231 370.28L244.653 370.732L244.1 370.842L243.728 371.493L243.305 371.945L242.877 372.137L242.734 372.986L242.628 373.349L242.491 373.788L242.386 374.569L242.28 375.439L242.026 376.131L241.939 376.371L241.703 377.001L241.386 377.789L241.504 378.385L241.808 379.139L241.342 380.05L240.895 380.859L240.69 381.859L240.535 382.77L240.647 383.798L240.877 384.826L241.032 385.86L240.442 386.182L239.504 385.867L238.429 385.901L237.759 386.066L237.827 385.394L237.777 384.99L237.293 385.1L236.796 386.141L236.336 386.388L235.69 385.771L235.349 385.456L235.038 385.984L234.578 385.901L233.914 385.881L233.516 386.587L233.485 387.333L232.709 387.786L232.622 388.526L232.839 389.512L232.672 390.19L232.367 390.547L231.659 390.718L231.678 391.17L231.92 391.91L231.746 392.445L231.392 393.294L231.56 393.863L230.951 393.993L230.137 394L229.255 393.815L228.585 392.952L227.976 392.767L227.491 393.102L227.094 392.835L226.448 392.986L226.038 392.65L225.79 393.02L225.634 393.363L224.715 393.883L224.274 393.513L224.05 392.698L223.653 392.225L223.268 391.979L222.572 391.458L222.218 391.691L221.647 391.759L221.442 391.41L221.46 390.999L221.1 390.684L220.92 390.238L221.044 389.793L221.286 389.087L221.044 388.861L220.336 388.69L219.348 388.245L218.864 387.539L218.566 387.621L218.156 387.69L217.734 387.1L217.46 386.635L217.019 386.573L216.286 386.737L215.876 386.58L215.491 386.086L215.206 385.518L214.926 384.792L214.814 384.572L214.199 383.675L213.634 383.497L213.218 383.038L213.268 382.565L212.603 382.517L212.15 382.202L211.988 381.434L211.634 381.126L211.293 380.722L211.025 380.434L210.69 380.174L210.038 379.653L209.398 379.577L209.336 380.133L209.529 380.537L209.578 380.688L209.348 381.105L209.032 381.283L208.292 381.921L207.479 381.784L206.876 381.79L206.429 382.154L206.056 382.119L205.715 382.174L205.187 382.585L204.783 382.394L200.951 381.434L200.46 381.359L199.926 381.119L199.435 380.742L198.994 380.345L198.628 380.091L198.1 380.167L197.771 379.968L197.435 379.687L196.976 379.632L196.28 379.653L195.783 379.742L195.243 379.783L194.839 379.557L194.764 379.18L194.609 378.605L194.261 378.207L193.858 378.008L193.597 377.981L193.348 378.139L189.168 376.946L187.112 375.391L185.553 375.083L184.895 375.186L184.373 375.103L183.665 375.206L182.901 375.535L182.187 375.405L181.392 374.946L180.702 374.754L180.224 374.076L179.199 373.733L178.298 373.822L178.044 374.706L178.168 375.371L177.907 375.96L176.783 375.871L175.646 376.008L174.398 376.028L173.696 376.117L172.348 376.07L170.907 376.035L169.895 376.056L168.802 375.953L167.994 376.344L167.876 377.125L167.311 378.125L166.802 379.009L166.646 379.913L166.485 381.208L166.466 382.01L166.51 383.003L166.429 383.647L166.336 384.326L165.938 385.326L165.516 385.799L165.106 386.484L164.845 387.512L163.901 387.854L162.646 387.505L158.205 387.813L155.261 387.08L152.572 386.552L151.919 385.682L151.354 384.977L150.652 384.73L149.963 384.997L148.901 384.867L147.994 383.716L147.578 382.585L146.876 381.859L146.553 381.64L145.267 381.599L142.062 381.304L141.05 381.927L139.901 381.325L138.677 381.338L137.888 380.941L137.696 380.859L136.752 380.708L136.391 380.598L135.627 380.372L134.211 379.619L133.093 379.242L132.441 378.399L131.845 377.104L129.578 376.563L128.422 375.521L128.131 375.254L127.373 374.514L126.528 373.658L126.23 372.411L125.553 371.184L124.099 370.787L122.522 370.814L120.398 366.402L119.391 362.881L117.963 361.024L118.553 360.195L119.981 359.359L121.578 356.488L120.565 355.001L117.876 352.501L117.205 350.555L115.944 348.609L116.702 347.218L117.124 345.176L117.068 344.334L119.056 343.697L119.304 343.23L118.634 342.58L117.77 341.566L117.267 340.805L116.584 340.305L117.46 339.339L117.087 338.229L117.671 337.092L119.304 337.023L118.087 335.351L117.54 333.221V331.645L116.702 330.72L114.559 330.021L113.988 328.89L114.099 328.589L113.646 328.198L113 327.643L113.006 327.561L113.05 326.999L114.099 324.786L114.571 322.443L115.311 323.032L115.956 322.436L116.596 321.669L116.727 321.361L117.236 321.539L118.385 322.286L119.894 321.08L120.484 319.6L121.826 318.113L122.665 317.743L122.752 315.982L122.919 313.571L123.603 311.899L124.106 311.317L124.795 310.775L125.572 311.358L126.317 311.337L127.037 311.639L127.876 311.412L128.342 311.584L128.534 310.837L127.988 310.145L127.578 309.316L128.298 308.288L129.304 306.527L129.05 304.766L129.261 303.41L130.82 302.266L130.901 300.505L132.249 299.21L132.329 297.908L131.571 296.702L131.658 295.777L130.441 294.688L130.143 292.722L129.975 291.886L129.317 291.742L128.646 291.413L127.882 291.571L127.708 290.694L127.317 290.125L127.193 289.474L127.056 289.07L127.329 287.884L127.478 286.788L128.491 286.487L129.975 286.507L130.379 285L130.596 284.178L130.826 283.321L130.367 282.595L134.18 280.67L134.093 278.265L133.404 276.285L135.441 274.367L134.683 273.257L135.099 271.311V270.29L136.36 268.899L137.149 267.741L137.758 267.858L138.665 268.618L139.721 269.55L140.814 268.625L142.832 268.529L142.919 265.377L143.1 264.761L143.491 263.904L143.603 263.267L144.093 261.767L143.547 260.129L142.572 259.787L142.025 259.239L141.572 258.485L140.652 258.026L140.056 257.032L140.149 255.936L139.373 255.457L139.926 254.634L140.373 254.436L140.646 253.757L140.261 252.922L140.683 251.839L140.994 250.407L140.851 249.133L140.242 248.064L139.832 247.105L139.789 245.919L139.255 245.501L139.05 244.782L138.988 244.426L138.808 244.015L138.174 242.96L137.646 242.028L136.727 241.343L135.733 241.24L135.099 240.472L134.323 239.637L134.596 238.616L134.54 237.382L135.037 236.375L135.348 235.389L135.54 234.32L135.472 233.847L135.367 232.47L135.888 231.853L136.329 230.976L136.814 230.106L136.851 229.592L137.46 229.75L138.124 230.387L139.081 230.62L140.621 230.736L141.186 230.243L142.23 230.113L143.323 230.545L144.124 232.497L145.801 232.374L147.708 233.491H148.267L149.615 232.251L150.472 231.593L151.845 231.038L154.584 230.449L156.118 231.182L157.255 230.661L157.901 229.572L160.565 231.004L162.398 233.121L163.286 234.231L163.398 235.841L164.317 235.697L166.236 235.019L166.994 236.136L167.665 237.019L167.336 238.575L167.354 239.794L167.33 241.219L167.938 242.226L168.379 243.131L169.174 243.761L168.889 245.138L169.174 246.118L169.125 247.461L169.69 248.18L170.702 248.448L171.665 248.934L172.05 249.811L172.093 250.921L172.236 252.12L173.342 252.922L173.758 254.141L174.491 255.148L175.59 255.552L176.839 255.443L177.876 255.333L178.951 255.642L178.733 256.799L179.23 257.663L179.789 258.382L181.019 258.464L181.74 259.026L182.261 259.547L182.559 260.369L182.386 261.349L182.491 262.178L183.149 263.158L183.851 264.035L183.938 265.117L184.566 265.275L185.299 266.117L187.665 268.262L190 269.824L193.758 273.044L193.926 273.75L194.05 280.875L194.019 284.705L193.957 292.379L193.932 304.28L195.013 305.061L196.609 306.753L197.951 308.124L198.535 309.364L199.553 309.946L199.982 311.029L199.895 313.016L199.764 314.105L200.603 315.564L201.15 315.955L202.398 315.736L202.907 316.065L203.15 316.613L203.609 318.065L203.814 318.339L204.622 318.586L205.802 319.812L206.628 319.696L208.025 318.702L208.541 318.326L208.802 318.846L209.249 319.305L209.932 319.394L210.317 319.203L210.752 318.469L211.206 318.497L212.224 318.682L213.137 318.928L214.348 319.271L217.379 319.559L219.175 319.689L222.001 320.23L223.467 320.148L224.796 320.093L226.33 320.004L227.168 319.799L228.64 320.155L228.349 320.682L230.193 321.052L233.684 320.566L234.79 317.01L235.436 315.51L237.094 314.722L238.311 314.119L238.727 313.954Z" fill="white" stroke="white" stroke-width="2" stroke-linecap="square" stroke-linejoin="bevel"/>
</svg>
