<svg width="500" height="500" viewBox="0 0 500 500" fill="none" xmlns="http://www.w3.org/2000/svg">
<circle cx="250" cy="250" r="250" fill="#1592ED"/>
<path d="M289.573 58.56H290.56L293.364 60.9869L293.288 62.5042L293.212 62.8836L292.985 63.3395L291.771 64.2499L291.469 64.6293L291.318 65.0086L291.469 66.5259L291.545 66.8286L292.076 67.6639L292.153 67.9666L292.076 68.346L291.848 68.6487L291.241 68.8763L290.406 68.9529L290.104 69.0295L288.057 71.0779L287.299 71.6082L287.071 71.8366L286.844 72.0642L285.934 73.2788L285.707 73.8091L285.555 74.2651L285.707 74.872L285.858 75.2513L286.009 75.6307L285.858 76.01L285.403 76.5411L285.024 76.7687L284.644 76.8453L284.341 76.7687L284.039 76.6177L283.811 76.466L283.356 76.01L283.054 75.8583L282.751 75.7066H282.371L281.992 75.7832L281.689 75.9349L281.462 76.1625L281.385 76.6184V77.2254L281.841 78.44L282.22 78.9711L282.522 79.3504L282.75 79.578L282.826 79.9573L282.75 80.565L282.295 81.703L281.916 83.0686L281.992 85.0419L281.841 87.1662L281.764 87.5455V88.0766V88.7586V89.138L281.613 89.3655L281.234 89.8966L280.627 90.5787L280.4 90.8814L280.324 91.1841L280.172 91.9428L280.096 92.2447L279.869 92.4723L279.034 93.0034L278.807 93.231L278.655 93.4593L278.578 93.8386V94.2939L278.73 95.5836L279.033 96.2656L279.488 97.1009L281.611 98.9976L282.293 99.908L282.975 101.349L283.126 102.107V102.638L282.975 102.94L282.823 103.244L282.747 103.547L283.505 104.608L287.903 107.187L295.712 107.718L302.764 106.428L303.977 106.351L304.356 106.275L305.721 105.82L306.1 105.743L307.693 105.82L308.072 105.743L308.451 105.592L308.602 105.364L309.284 104.377L309.436 104.226L310.496 103.77L310.875 103.619L311.406 103.77L312.164 104.149L313.452 105.136L313.983 105.743L314.362 106.122L314.665 106.351L315.044 106.502H315.802L316.257 106.351L316.637 106.122L317.167 105.82L317.395 105.743L317.697 105.82L317.774 106.275V106.578L317.622 106.958L317.471 107.26V107.563L317.548 108.322L317.474 108.632L317.323 108.935L317.246 109.162L317.17 109.314V109.391V109.466L317.473 109.77L320.05 111.363L320.808 111.667L321.566 111.894L324.371 111.971L325.811 112.198L328.541 113.488L329.071 113.943L329.223 114.247L329.374 114.626L329.45 115.385V115.687L329.299 116.067L328.997 116.446L328.087 117.205L327.86 117.584L327.329 118.419L326.192 119.785L326.04 120.088L325.282 121.226L325.131 121.453L324.752 121.984L324.524 122.591L324.448 122.971L324.297 124.564L323.994 124.943L322.402 126.385L321.946 126.612H321.339L320.732 126.689L319.746 127.371L319.291 127.523H318.835L316.64 126.84L314.213 126.688L313.684 126.765L312.925 126.992L311.03 128.207L308.527 129.495L308.225 129.799L307.011 130.102L303.297 130.405L302.539 129.949L301.856 129.267L301.628 129.116L301.249 129.039L300.794 129.116L300.112 129.495L299.126 129.874H298.444L297.155 130.633L296.776 130.937L296.169 131.013L295.109 131.089L291.773 130.862L290.485 130.559L289.499 130.179L288.892 130.255L288.436 130.406L286.238 132.075L282.675 134.274L283.812 136.398L283.963 136.929L284.039 138.447L284.116 138.826L284.645 138.978L284.948 138.902L285.555 138.599L285.782 138.675L285.859 138.978L285.782 142.468V142.848L285.934 143.379L286.92 145.275L287.602 146.262L290.635 149.827L290.937 150.434L291.089 150.965L291.165 151.724L290.937 153.848L291.014 154.531L291.544 155.366L291.999 155.669L292.378 155.82H292.758L293.137 155.897L293.364 156.124L293.592 156.353L293.743 156.58L294.501 158.325V158.856L294.425 159.463L293.97 160.753L293.818 161.739L293.667 164.395L293.06 166.974L293.439 168.871L293.667 169.25L294.046 169.478L294.88 169.705L298.444 170.085L299.658 169.934H300.416L300.795 170.085L301.25 170.388L301.706 170.995L302.54 172.21L302.996 172.74L303.451 173.575L303.602 174.031L303.905 177.824L305.422 178.962L306.256 180.177L307.696 183.591L307.847 183.894L307.924 184.804V186.624V187.004L307.621 188.142V188.521V188.9L307.698 189.28L308.153 189.735L309.062 190.191L313.84 191.632L316.19 193.226L317.555 193.454L321.118 194.44L324.151 195.957L325.744 196.488L326.123 196.565H328.549L329.686 196.793L330.065 196.944L331.202 197.626L332.036 198.764L332.644 203.165L333.553 205.82L333.704 206.199L334.007 206.73L336.358 209.234L336.737 209.765L338.026 212.42L338.328 213.407L338.48 213.71L341.057 216.821L341.208 217.124L341.587 218.034L341.663 218.565V219.247L341.512 220.536L341.588 221.219L341.665 221.598L341.967 221.825L342.954 222.205L343.181 222.357L343.409 222.508L343.637 222.811L343.939 223.418L344.016 223.721V224.252L343.939 224.934V225.39L344.091 225.769L344.242 225.997L344.621 226.453L344.773 226.755L344.924 227.135L345 227.97V229.487V229.79L344.846 230.093L344.694 230.397L344.164 230.548H343.478L341.356 230.092L340.825 229.941L340.522 229.789L339.992 229.41L339.462 228.803L338.627 228.121L338.324 227.893L338.022 227.969L337.415 228.349L337.112 229.107L335.898 230.701L331.424 232.522L330.286 232.445L330.135 232.143L329.907 231.915L329.68 231.763L329.301 231.687L328.846 231.763L328.315 232.066L327.481 232.825L326.344 233.735L325.434 234.645L324.903 235.48L322.857 237.908L322.25 238.438L321.947 238.667L321.795 238.971L321.568 239.577L321.34 239.957L321.037 240.412L317.928 242.765L317.7 242.992L317.549 243.22L317.17 243.523L316.563 243.825L315.275 244.129H314.593H314.063L313.684 244.054L312.849 244.281L306.102 247.619L304.586 247.847L304.055 247.695H303.22L298.444 248.681L295.563 248.833L295.107 249.136L294.729 249.744L294.198 251.109L294.122 251.791L294.198 252.322L294.88 253.384L294.273 254.293L290.406 256.646L290.634 259.301L291.695 265.068V266.055L291.922 266.434L292.15 266.814L292.301 267.041L292.453 267.344L292.529 267.723L292.68 268.861L293.059 270.228L294.348 276.752L294.499 277.056L294.878 277.586L295.257 277.965L295.864 278.724L296.546 279.862L297.002 281.152L297.457 281.987L297.608 282.29L297.685 283.048L297.836 283.276L298.064 283.579L298.216 283.881L298.139 284.185L297.911 284.64L297.608 284.943L297.229 285.094L296.776 285.173L295.336 284.945H294.73L294.122 285.022L293.061 285.325L291.621 284.946L291.242 284.717L290.939 284.566H290.409L288.362 285.022L286.011 286.236L284.723 287.374L284.572 287.754L284.495 288.285L285.102 290.863V291.319L284.951 291.85L284.495 292.609L284.193 293.064L283.889 293.368L283.587 293.595L283.359 294.885L283.815 299.816L286.848 302.548L287.682 303.079L289.35 303.61L291.018 303.989L293.671 304.899L297.462 306.719L298.371 306.947L299.964 307.629L300.571 307.78H301.026L301.329 307.704L302.315 307.325L302.617 307.173L303.299 307.401L306.711 309.828L307.469 310.284H307.925L308.227 310.208L308.53 310.056L309.439 309.221L309.97 308.766L310.197 308.614L310.653 308.842L311.26 309.449L312.397 310.966L313.078 311.497L313.609 311.8L313.912 311.648L314.291 311.573H314.67L314.973 311.648L315.276 311.725L315.578 311.877L315.806 312.104L317.019 313.545L317.398 314.228L317.627 314.91L317.778 315.366L317.701 315.896L317.55 316.352L317.094 316.882L316.487 317.49L316.185 318.4L316.261 320.676L315.882 322.649L313.078 322.877L311.561 322.726H310.727L310.271 322.802L309.74 323.03L309.21 323.409L308.755 324.32V324.471L308.224 325.002L305.722 326.975L306.252 329.099L305.722 330.314L305.494 330.693V331.073L305.645 331.679L306.025 332.438L306.404 332.817L307.238 333.349L307.466 333.5L307.694 333.728L307.921 333.955L309.21 336.231L309.589 337.369L309.817 337.825L310.045 338.054L310.273 338.205L310.575 338.281L310.878 338.358L311.18 338.435L311.483 338.737L311.786 339.419L312.165 339.647H312.467L313.377 339.268H313.605L313.833 339.496L313.909 339.799L313.985 340.255L314.062 340.785L313.834 343.289V344.125L314.137 345.565V346.021L314.06 346.401L313.909 346.78L313.151 347.235L312.621 347.387L309.36 347.539L308.981 348.297L309.588 349.738V350.194V350.724L309.285 351.18L309.057 351.483L308.527 351.939L308.299 352.167L308.147 352.47L308.072 352.773L307.843 354.29L307.541 355.731L307.617 356.641L308.527 361.116L309.209 363.316L309.511 363.847L309.663 364.226L309.739 364.529L312.923 372.267L313.605 373.405L313.833 373.936L313.984 374.315V374.77L313.907 375.453L313.149 376.591L310.724 378.563L309.965 379.02L309.586 379.4L309.435 379.627L308.677 380.841L308.374 381.144L307.692 381.751L306.025 382.814L305.797 382.965L305.569 383.193L305.418 383.496L305.341 383.875L305.493 384.557L305.721 385.392L305.872 386.074L305.948 387.212L306.025 387.515L306.252 387.743L306.859 388.046L307.162 388.197L307.389 388.349L307.541 388.651L307.692 388.954L307.768 389.334L307.617 389.789L307.315 390.245L306.557 391.004L306.101 391.611L305.722 392.521L305.343 393.052L304.964 393.508L304.054 394.115L303.524 394.266H303.145L302.614 393.887L302.084 393.508H301.781L301.402 393.659L301.023 393.887L300.493 394.266L300.114 394.343L299.811 394.266L299.508 394.115L299.129 394.039H298.823L298.52 394.19L298.292 394.493L298.369 395.479L298.597 396.087L300.341 399.501L305.118 405.721L305.648 407.391L305.497 407.693L305.269 408.375V408.755L305.192 409.134L305.269 409.513L305.497 409.893L306.027 410.195L307.088 410.651L307.769 410.728H308.225L309.893 410.121L310.574 409.969H311.03L312.167 410.197L313.076 410.576L313.455 411.032L313.911 411.791L315.125 414.295L315.655 415.281L319.37 419.682L320.583 421.73L321.797 422.489L322.404 422.791L322.935 423.171L323.389 423.55L323.769 424.006L324.072 424.614L324.299 425.296V426.054L323.844 426.964L323.237 427.495L322.023 428.102L321.568 428.558L321.189 429.24L320.886 430.075L320.43 430.606L319.9 430.986L318.839 431.365L318.309 431.668L317.778 431.895H317.172L316.716 431.972L316.109 432.124L315.579 432.426L315.123 432.806L314.896 433.262L314.744 433.792L314.972 434.474L315.427 435.082L316.944 436.068L317.625 436.371L318.535 436.599L319.445 437.055L319.9 437.132L320.43 437.055L321.491 437.206H322.022L322.552 437.129L323.234 437.054L323.916 437.433L324.522 438.115L325.659 440.694L325.962 441.681L326.038 442.288L325.432 444.336L324.825 445.095L324.597 445.702L324.37 445.929L323.383 446.765L322.549 447.675L322.398 447.978L322.095 448.509L321.867 448.736L321.565 448.888L320.351 449.418L319.365 449.721L319.063 449.873L318.38 450.48L318.078 450.556L317.699 450.405L317.243 449.723L317.167 449.267L317.243 448.888L317.471 448.66L317.548 448.357L317.471 448.054L317.32 447.826L315.803 447.296L313.68 446.916L311.936 446.158L310.117 445.854L300.489 446.841L294.424 446.31L292.073 446.387L290.707 446.615L290.026 446.691L289.496 446.615L288.965 446.387L287.449 446.007L282.293 445.856L281.459 445.705L280.851 445.402H280.549L280.321 445.553L280.17 445.856L280.019 446.615L279.867 446.918L279.64 447.525L279.412 448.663L279.261 449.042L278.958 449.421L277.442 450.103L277.139 450.255L276.23 451.241L275.395 451.849L274.864 452H274.409L273.348 451.697L273.12 451.546L272.665 451.09L272.437 450.862L271.907 450.559L271.377 450.18L270.921 449.724L270.769 449.496L270.542 449.269L270.011 449.04L266.22 448.585L265.235 448.205L264.4 447.826L263.642 447.219L263.339 447.067L262.051 446.612L261.823 446.46L260.837 446.081L259.851 445.778H259.244L258.714 445.855L258.183 446.006L256.288 446.234L255.681 446.537L255.453 446.688L255.226 446.916L254.998 447.219L254.922 447.447L254.845 448.205L254.466 448.662L253.631 449.117L251.433 449.345L250.827 449.269L250.219 448.965L249.69 448.663L249.461 448.435L248.552 447.979L245.975 447.448L243.852 446.689L241.577 445.021L240.896 444.111L240.44 443.275L239.758 440.47L239.152 433.49L240.137 429.773L241.275 427.497L241.654 427.041L242.489 426.283L243.095 425.524L243.702 423.703L243.853 422.793V422.112L243.777 421.808L243.626 421.506L243.398 421.277L243.247 420.975L243.018 420.518L242.868 419.76L243.018 419.23L244.459 416.725L244.762 415.891L244.989 414.525L245.141 413.917L245.368 413.538L246.05 413.461L246.505 413.31L247.187 412.628L247.415 412.097V411.641L247.338 411.339L247.036 410.732L246.884 410.428L246.808 410.049L246.731 407.85L246.655 407.47L246.579 407.167L246.276 406.636L245.821 406.105L245.213 405.498L245.062 402.009L244.455 400.188L244.228 399.885L243.47 399.429L242.939 398.974L242.788 398.595V398.215L244.002 396.47L244.229 396.09L244.608 395.482L244.836 394.648V394.117L244.229 391.689L245.973 390.324L246.201 389.944L246.352 389.489V388.427L246.731 387.366L248.172 385.392L248.551 384.71L248.853 383.649L248.702 383.269L248.551 382.966L247.262 382.359L246.806 381.98L246.351 381.524L246.199 381.221L246.048 380.765L245.592 377.882L245.365 377.426L245.213 377.199L244.834 376.591L244.455 375.681L244.304 375.453L244.076 375.074L243.849 374.467L243.393 372.342L243.316 372.191L242.786 371.28L242.407 370.824L242.179 370.597L241.573 369.535L240.587 365.514L240.131 363.996L240.282 363.769L240.586 363.238L241.116 362.707L241.797 361.418L242.025 360.811L242.102 360.28L241.192 358.08L240.586 356.942L240.206 355.425L239.524 351.48L238.539 348.597L230.816 334.714L230.286 330.541L229.983 327.127L229.604 326.217L228.77 325.002L228.391 324.623L228.088 324.396L226.648 323.788L222.858 323.181L219.446 323.104L218.611 323.181L217.246 323.409L216.337 323.94L214.365 325.987L213.227 326.898L209.739 328.187L205.493 329.325L203.446 330.312L199.731 333.346L198.897 333.877L197.457 334.179L195.032 334.028H193.894L191.468 334.71L190.104 335.469L186.768 338.276L185.859 339.337L184.949 343.359L184.342 344.8L183.812 345.103L183.13 345.33L182.448 345.027L181.69 344.192L179.416 339.792L178.885 337.895L178.962 335.619L179.492 334.254L179.72 332.66L179.796 331.598L178.659 325.832V324.542L178.962 323.556L179.796 321.81L180.175 321.355L180.555 320.52L180.857 318.85V317.941V317.333L180.63 316.803L180.099 316.044L177.748 313.996L173.35 311.948H173.196L168.571 312.251L166.676 311.948L164.401 311.113L160.838 309.064L158.336 306.865L158.563 305.804L156.365 305.045L156.821 303.225L156.593 299.052L155.077 291.086L155 286.84L155.303 284.943L155.91 282.818L156.745 281.073L158.033 280.163L158.942 279.329L159.398 279.025L160.08 278.797L160.459 278.874L160.761 278.951L165.008 279.027L170.921 277.207L171.908 276.676L172.287 274.249L173.424 272.2L175.168 270.835L177.519 270.455L178.354 270.758L179.491 271.593L180.249 271.745L183.963 271.214L186.087 270.607L187.603 269.09L190.559 265.22L196.473 260.288L197.687 258.694L197.914 258.315L198.293 258.012L198.749 257.71L199.355 257.33L200.19 257.254L201.025 257.556L201.706 257.329L202.465 256.039L203.223 256.191L202.693 249.211L202.995 248.376L203.83 243.596L204.36 242.382L204.967 241.167L205.574 240.332V239.725L206.711 236.993L207.772 232.972L209.211 231.834L220.735 229.406L222.782 229.329L224.299 229.861L227.331 232.972L233.018 240.635L240.75 239.648L242.874 240.104L243.404 240.711L247.802 235.552L249.241 233.199L252.274 221.668L253.639 219.241L254.549 218.33L256.367 218.71L258.414 218.634L260.082 218.254L261.75 217.647L263.568 216.737L266.07 214.84L267.89 212.261L268.799 209.15L268.572 205.585L266.448 199.439L264.856 196.404L264.175 189.885L263.038 184.272L262.81 179.113L262.887 178.05L263.342 177.064L263.798 176.457L264.328 176.078L264.784 175.47L265.39 174.105L265.314 173.269L263.191 171.296L261.524 169.172L260.841 167.426L260.993 159.84L261.372 157.943L262.586 156.198L263.267 154.378L262.812 152.405L256.593 141.71L255.229 137.386L255.987 134.275L256.897 133.972L259.019 133.82L260.08 133.289L260.687 132.38L260.99 131.469L261.899 94.6739L261.217 92.3979L260.157 88.377L259.55 86.7079L259.248 86.101L259.096 85.7983L258.944 85.4956L258.413 84.3546L255.91 76.4644L255.834 75.0988L255.91 73.1255L256.518 71.0779L257.276 69.1813L259.171 66.2225L264.857 59.4711L265.766 57.5744L265.995 56.3598L267.359 53.4769L269.331 51.2009L271.606 49.2276L273.729 49L274.487 49.151L275.547 49.9097L276.382 51.8063L276.459 53.0209L276.231 54.2356L275.7 55.6762L275.473 56.8142V58.0289L275.929 58.9393L276.763 59.6213L279.795 60.9869L281.767 61.5946L284.042 61.1386L288.135 58.9393L289.573 58.56Z" fill="white"/>
</svg>
